<?xml version="1.0" encoding="utf-8"?>
<!-- Generator: Adobe Illustrator 24.2.0, SVG Export Plug-In . SVG Version: 6.00 Build 0)  -->
<svg version="1.1" id="レイヤー_1" xmlns="http://www.w3.org/2000/svg" xmlns:xlink="http://www.w3.org/1999/xlink" x="0px"
	 y="0px" viewBox="0 0 485 50" style="enable-background:new 0 0 485 50;" xml:space="preserve">
<style type="text/css">
	.st0{fill:#FFFFFF;}
</style>
<g id="レイヤー_2_1_">
	<g id="レイヤー_1-2_1_">
		<path class="st0" d="M12.1,13.4L6.7,7.9c-2.5,2.8-4.4,6-5.5,9.6l7.4,2C9.3,17.3,10.5,15.2,12.1,13.4z"/>
		<path class="st0" d="M41.6,21.3c0.2,1.2,0.3,2.3,0.3,3.5s-0.1,2.4-0.5,3.5l7.4,2c0.5-1.8,0.7-3.7,0.7-5.5s-0.2-3.6-0.6-5.4
			L41.6,21.3z"/>
		<path class="st0" d="M36.2,12.1l5.4-5.5c-2.7-2.5-6-4.4-9.6-5.4l-1.9,7.4C32.4,9.3,34.4,10.5,36.2,12.1z"/>
		<path class="st0" d="M7.7,24.8c0-1.2,0.1-2.4,0.5-3.6l-7.4-1.9C0.2,21.1,0,23,0,24.8c0,1.9,0.2,3.7,0.6,5.5l7.4-2
			C7.8,27.2,7.7,26,7.7,24.8z"/>
		<path class="st0" d="M41,19.5l7.4-1.9c-1.1-3.6-3-7-5.6-9.7l-5.3,5.4C39.1,15.1,40.3,17.2,41,19.5z"/>
		<path class="st0" d="M19.5,8.6l-2-7.4c-3.6,1.1-6.8,3-9.6,5.5l5.5,5.4C15.2,10.5,17.3,9.3,19.5,8.6z"/>
		<path class="st0" d="M24.8,7.7c1.2,0,2.3,0.1,3.5,0.3l1.9-7.4C28.4,0.2,26.6,0,24.8,0c-1.9,0-3.7,0.2-5.5,0.7l2,7.3
			C22.5,7.8,23.6,7.7,24.8,7.7z"/>
		<path class="st0" d="M8.6,30.1L1.1,32c1.1,3.6,3,6.9,5.5,9.7l5.4-5.4C10.4,34.5,9.3,32.4,8.6,30.1z"/>
		<path class="st0" d="M37.5,36.2l5.4,5.5c2.5-2.8,4.4-6,5.5-9.6l-7.4-2C40.3,32.4,39.1,34.5,37.5,36.2z"/>
		<path class="st0" d="M24.8,42c-1.2,0-2.3-0.1-3.5-0.3l-1.9,7.4c1.8,0.4,3.6,0.6,5.4,0.6c1.9,0,3.7-0.2,5.5-0.6l-2-7.6
			C27.2,41.8,26,42,24.8,42z"/>
		<path class="st0" d="M30.1,41.1l2,7.4c3.6-1.1,6.9-3,9.6-5.5l-5.5-5.4C34.4,39.2,32.4,40.4,30.1,41.1z"/>
		<path class="st0" d="M13.4,37.7L8,43.1c2.7,2.5,6,4.4,9.6,5.4l1.9-7.3C17.3,40.4,15.2,39.2,13.4,37.7z"/>
		<path class="st0" d="M13.6,28.4h3.7v-1.1h-0.6L15,21.2h-4.7v1.2h1l-1.5,4.8H9.4v1.1h2.7v-1.1h-0.5l0.2-0.7H14l0.2,0.7h-0.6
			C13.6,27.2,13.6,28.4,13.6,28.4z M12.2,25.3l0.7-2.5l0.7,2.5H12.2z"/>
		<polygon class="st0" points="17.9,27.3 17.9,28.4 24.8,28.4 24.8,25.5 22.9,25.5 22.9,27.3 21,27.3 21,22.5 21.5,22.5 21.5,21.2 
			17.9,21.2 17.9,22.5 18.5,22.5 18.5,27.3 		"/>
		<path class="st0" d="M30,26.2c1.4,0.1,2.5-1,2.6-2.4v-0.1c0-1.4-1.1-2.5-2.5-2.5H30h-4.6v1.2H26v4.8h-0.6v1.1h3.5v-1.1h-0.5v-1.1
			H30V26.2z M28.4,25v-2.6H29c0.7,0,1.2,0.6,1.2,1.2c0.1,0.7-0.4,1.3-1.1,1.3H29h-0.6V25z"/>
		<path class="st0" d="M32.9,25.8v2.6H34v-0.6h0.1c0.8,0.4,1.7,0.6,2.6,0.6c0.7,0,1.5-0.1,2.1-0.3l1-0.6c0.4-0.4,0.6-0.8,0.6-1.4
			s-0.4-1.2-0.9-1.5c-0.1-0.2-0.5-0.3-0.8-0.5L37,23.6l-0.9-0.3H36c-0.1,0-0.2-0.1-0.2-0.3s0.2-0.3,0.3-0.3H37
			c0.7,0.1,1.4,0.3,2,0.6v0.6h1.2v-2.7H39v0.7h-0.1c-0.7-0.4-1.5-0.6-2.4-0.6c-0.7,0-1.5,0.1-2.1,0.5l0,0l-0.7,0.5h-0.1
			c-0.4,0.4-0.6,0.8-0.6,1.4s0.3,1.1,0.8,1.5l0,0c0.2,0.2,0.5,0.3,0.8,0.3l1.2,0.5l1.1,0.3h0.3c0.1,0.1,0.2,0.2,0.2,0.3
			c0,0.1-0.1,0.2-0.2,0.2l0,0l0,0L37,27h-0.5c-0.8,0-1.6-0.3-2.4-0.7H34v-0.5H32.9z"/>
		<path class="st0" d="M74.6,37.3l-3.8,6.5H59.1L80.5,4.6h11.7l8.8,39.1H89.3l-1.6-6.4C87.7,37.3,74.6,37.3,74.6,37.3z M84.3,17.8
			L79,28.5h7.1L84.3,17.8z"/>
		<path class="st0" d="M115.4,34.6h12.2l-1.5,9.1h-22.9L109.6,5h10.3L115.4,34.6z"/>
		<path class="st0" d="M134.9,4.8h17.5c9,1,11.6,4.7,11,12.2c-0.7,9.5-6.8,13.4-14.7,14.1h-7l-2.3,12.7h-10.7L134.9,4.8z
			 M143.2,22.1h1.7c2.3-0.1,6-0.5,6.9-3.2c1.5-4.7-0.8-6-6.2-5.7h-1.1L143.2,22.1z"/>
		<path class="st0" d="M189.5,15.2c-1.7-1.6-4-2.6-6.4-2.6c-1.9,0-4.4,0.9-4.5,3.2s2.8,2.5,4.5,3l3.9,1.4c5.4,2.4,6,5,6.1,8.3
			c0.1,5-2.3,9.7-6.3,12.6c-2.5,1.7-3.9,3-10.1,3.5c-5.3,0.4-10.6-1.3-14.7-4.7l5.9-8.3c2.6,2.1,3.6,3.4,7.2,3.8
			c1.4,0.2,4.8,0,5.9-2c1.8-3.8-2.3-4.7-4.4-5.3c-9.9-2.7-9.6-6.3-9.6-9.1c0-6.3,4.6-15.1,16.1-15.1c4.2-0.3,8.4,0.8,11.9,3.2
			L189.5,15.2z"/>
		<path class="st0" d="M225,34.6h12.1l-1.4,9.1h-22.9l6.3-38.9h10.3L225,34.6z"/>
		<path class="st0" d="M282.8,26c-3.9,14.9-15.8,18.9-25.4,18.8c-11.9-0.2-20.2-8.1-17.8-21.9c1.9-11.9,13.6-20.5,25.7-19.7
			C277.4,4,286.2,13.6,282.8,26z M250.7,24.7c-0.1,3.6,0.7,8.5,7.4,9.5c6.8,1,12.6-4.2,14-11c0.9-5.2-3.3-9.9-9.2-9.6
			C256.9,13.9,250.9,18.4,250.7,24.7z"/>
		<path class="st0" d="M327.2,21.6c-0.8,6.7-2.5,11.7-7.1,16.5s-9.1,7-18.5,6.8c-13.5-0.3-17.8-9.9-16.2-20.5
			c1.8-12.6,10.8-20.2,23.8-20.7c7.2-0.3,14.8,2.3,17.2,10.9l-10.6,4.3c-2.1-4.2-3.8-7.8-11.7-5.3c-4.6,1.5-7.7,8.3-7.7,10.9
			c-0.3,9.2,2.9,11.3,7.8,11.7c4.8,0.5,8.9-2,9-6.3h-7.9l1.1-8.3L327.2,21.6z"/>
		<path class="st0" d="M338.8,43.9L328,43.5l6-39l10.8,0.3L338.8,43.9z"/>
		<path class="st0" d="M371,15.2c-1.7-1.6-4-2.6-6.4-2.6c-1.9,0-4.4,0.9-4.5,3.2s2.8,2.5,4.5,3l3.9,1.4c5.4,2.4,6,5,6.1,8.3
			c0.1,5-2.3,9.7-6.3,12.6c-2.5,1.7-3.9,3-10.1,3.5c-5.3,0.4-10.6-1.3-14.7-4.7l5.9-8.3c2.6,2.1,3.6,3.4,7.1,3.8c1.4,0.2,5,0,6-2
			c1.8-3.8-2.3-4.7-4.4-5.3c-9.9-2.7-9.6-6.3-9.6-9.1c0-6.3,4.6-15.1,16.1-15.1c4.2-0.3,8.4,0.8,11.9,3.2L371,15.2z"/>
		<path class="st0" d="M414.8,43.9l-10.7-0.3l6-39l10.7,0.3L414.8,43.9z"/>
		<path class="st0" d="M392.5,43.8H382l4.4-29.6h-8.1l1.1-9h27.5l-1.4,8.7H397L392.5,43.8z"/>
		<path class="st0" d="M481.4,15.2c-1.7-1.6-4-2.6-6.4-2.6c-1.9,0-4.4,0.9-4.5,3.2s2.8,2.5,4.5,3l3.9,1.4c5.4,2.4,6,5,6.1,8.3
			c0.1,5-2.3,9.7-6.3,12.6c-2.5,1.7-3.9,3-10.1,3.5c-5.3,0.4-10.6-1.3-14.7-4.7l5.9-8.3c2.6,2.1,3.6,3.4,7.2,3.8
			c1.4,0.2,4.8,0,5.9-2c1.8-3.8-2.3-4.7-4.4-5.3c-9.9-2.7-9.6-6.3-9.6-9.1c0-6.3,4.6-15.1,16.1-15.1c4.2-0.3,8.4,0.8,11.9,3.2
			L481.4,15.2z"/>
		<path class="st0" d="M453.5,17.2c-2.9-2.9-5.2-4.1-8.7-4.1c-6.2,0-11.3,5.4-11.7,10.9c-0.5,5.5,4.6,10,9.7,9.2
			c2.8-0.3,5.6-1.9,8.7-3.9L449.7,42c-3.3,1.4-7,2.1-10.6,1.9c-5-0.1-9.7-2.1-13.3-5.5c-3.4-3.2-4.8-9.5-3.7-15.6
			c0.9-5.1,3.5-9.8,7.4-13.2c4.6-4.3,9.1-6.3,14.7-6.7c3.9-0.4,7.7,0.2,11.3,1.8L453.5,17.2z"/>
	</g>
</g>
</svg>
