<svg xmlns="http://www.w3.org/2000/svg" width="658.2" height="44.3" viewBox="0 0 658.2 44.3"><defs><style>.cls-1{fill:#0d4782;}</style></defs><g id="レイヤー_2" data-name="レイヤー 2"><g id="レイヤー_1-2" data-name="レイヤー 1"><path class="cls-1" d="M10.7,11.9,5.9,7A22.6,22.6,0,0,0,1,15.5l6.6,1.8A13.9,13.9,0,0,1,10.7,11.9Z"/><path class="cls-1" d="M36.9,18.9a15.5,15.5,0,0,1,.3,3.1,10.6,10.6,0,0,1-.4,3.1l6.6,1.8A19.9,19.9,0,0,0,44,22a24.4,24.4,0,0,0-.5-4.8Z"/><path class="cls-1" d="M32.1,10.7l4.8-4.9A21.1,21.1,0,0,0,28.4,1L26.7,7.6A14.6,14.6,0,0,1,32.1,10.7Z"/><path class="cls-1" d="M6.8,22a11.7,11.7,0,0,1,.4-3.2L.6,17.1A19.9,19.9,0,0,0,0,22a26.3,26.3,0,0,0,.5,4.9l6.6-1.8A15.5,15.5,0,0,1,6.8,22Z"/><path class="cls-1" d="M36.4,17.3,43,15.6A21.2,21.2,0,0,0,38,7l-4.7,4.8A15,15,0,0,1,36.4,17.3Z"/><path class="cls-1" d="M17.3,7.6,15.5,1A22.6,22.6,0,0,0,7,5.9l4.9,4.8A15.3,15.3,0,0,1,17.3,7.6Z"/><path class="cls-1" d="M22,6.8a16.3,16.3,0,0,1,3.1.3L26.8.5A24.4,24.4,0,0,0,22,0a19.9,19.9,0,0,0-4.9.6l1.8,6.5A15.5,15.5,0,0,1,22,6.8Z"/><path class="cls-1" d="M7.6,26.7,1,28.4A22.2,22.2,0,0,0,5.9,37l4.8-4.8A14.3,14.3,0,0,1,7.6,26.7Z"/><path class="cls-1" d="M33.3,32.1,38.1,37A22.6,22.6,0,0,0,43,28.5l-6.6-1.8A14.4,14.4,0,0,1,33.3,32.1Z"/><path class="cls-1" d="M22,37.2a15.5,15.5,0,0,1-3.1-.3l-1.7,6.6A24.4,24.4,0,0,0,22,44a26.3,26.3,0,0,0,4.9-.5l-1.8-6.7A10.6,10.6,0,0,1,22,37.2Z"/><path class="cls-1" d="M26.7,36.4,28.5,43A21.3,21.3,0,0,0,37,38.1l-4.9-4.8A13.9,13.9,0,0,1,26.7,36.4Z"/><path class="cls-1" d="M11.9,33.4,7.1,38.2A21.1,21.1,0,0,0,15.6,43l1.7-6.5A18.1,18.1,0,0,1,11.9,33.4Z"/><path class="cls-1" d="M12.1,25.2h3.3v-1h-.5l-1.5-5.4H9.2v1.1h.9L8.8,24.2H8.3v1h2.4v-1h-.4l.2-.6h1.9l.2.6h-.5Zm-1.3-2.8.6-2.2.6,2.2Z"/><polygon class="cls-1" points="15.9 24.2 15.9 25.2 22 25.2 22 22.6 20.3 22.6 20.3 24.2 18.6 24.2 18.6 19.9 19.1 19.9 19.1 18.8 15.9 18.8 15.9 19.9 16.4 19.9 16.4 24.2 15.9 24.2"/><path class="cls-1" d="M26.6,23.2A2.2,2.2,0,0,0,28.9,21a2.2,2.2,0,0,0-2.3-2.2H22.5v1.1H23v4.3h-.5v1h3.1v-1h-.4v-1Zm-1.4-1V19.9h.5A1.1,1.1,0,0,1,26.8,21a1.1,1.1,0,0,1-1.1,1.2Z"/><path class="cls-1" d="M29.2,22.9v2.3h1v-.5h.1a5.9,5.9,0,0,0,2.3.5,5,5,0,0,0,1.9-.3l.9-.5a1.7,1.7,0,0,0,.5-1.2,1.6,1.6,0,0,0-.8-1.3c-.1-.2-.4-.3-.7-.4l-1.5-.4-.8-.3h-.2c-.1,0-.2-.1-.2-.3s.2-.3.3-.3h.8a5.6,5.6,0,0,1,1.8.5v.5h1.1V18.8H34.6v.6h-.1a4.6,4.6,0,0,0-2.1-.5,4.1,4.1,0,0,0-1.9.4h0l-.6.4h-.1a1.7,1.7,0,0,0-.5,1.2,1.6,1.6,0,0,0,.7,1.3h0a.9.9,0,0,0,.7.3l1.1.4,1,.3h.3c.1.1.2.2.2.3a.2.2,0,0,1-.2.2h0l-.3.2h-.4a4.7,4.7,0,0,1-2.1-.6h-.1v-.4Z"/><path class="cls-1" d="M616.7,2.7h12.2c11.1-.5,18.6,8.2,16.7,18.2-2.3,11.9-13.1,17.8-20.4,17.6H610.9Zm5.7,27.2h2.1c5.2-.2,9.3-2.3,10.9-9.7,1.2-5.8-2.9-8.7-6.8-9.2h-3.4Z"/><path class="cls-1" d="M658.2,32.8c0,3.1-3,5.7-6.4,5.7s-4.8-1.9-4.8-5,2.5-6.4,5.8-6.4S658.2,29.7,658.2,32.8Z"/><path class="cls-1" d="M573.8,30.1h11.1l-1.3,8.3H562.7l5.8-35.6h9.4Z"/><path class="cls-1" d="M600.7,38.5h-9.6l4-27.1h-7.4l1.1-8.2h25.1l-1.2,8h-7.8Z"/><polygon class="cls-1" points="548 29 537.4 44.3 531.1 44.3 539.5 29 548 29"/><path class="cls-1" d="M529.9,33.3c0,3.1-3,5.6-6.2,5.6S519,37.1,519,34s2.5-6.1,5.7-6.1A5.1,5.1,0,0,1,529.9,33.3Z"/><path class="cls-1" d="M488.8,22.3c-.1,3.3.6,7.6,6.5,8.4s11.3-3.7,12.4-9.8c.9-4.5-2.9-8.7-8.1-8.5S489,16.8,488.8,22.3Zm28.4.7c-3.5,13.2-14.1,16.8-22.5,16.7-10.7-.2-17.9-7.2-15.9-19.4C480.6,9.7,491,2.1,501.6,2.8S520.2,12,517.2,23Z"/><path class="cls-1" d="M66.2,33.1l-3.4,5.8H52.4l19-34.8H81.8l7.8,34.7H79.2l-1.4-5.7Zm8.6-17.3-4.7,9.5h6.3Z"/><path class="cls-1" d="M102.4,30.7h10.8l-1.3,8.1H91.6L97.2,4.4h9.1Z"/><path class="cls-1" d="M119.7,4.2h15.5c8,.9,10.3,4.2,9.8,10.8-.6,8.4-6,11.9-13,12.5h-6.2l-2,11.3h-9.5ZM127,19.6h1.5c2-.1,5.3-.4,6.1-2.8,1.3-4.2-.7-5.3-5.5-5.1h-1Z"/><path class="cls-1" d="M168.1,13.5a8.4,8.4,0,0,0-5.7-2.3c-1.7,0-3.9.8-4,2.8s2.5,2.2,4,2.7l3.5,1.2c4.8,2.1,5.3,4.4,5.4,7.4a13.6,13.6,0,0,1-5.6,11.2c-2.2,1.5-3.5,2.7-9,3.1a18.4,18.4,0,0,1-13-4.2l5.2-7.4c2.3,1.9,3.2,3,6.4,3.4,1.2.2,4.3,0,5.2-1.8,1.6-3.4-2-4.2-3.9-4.7-8.8-2.4-8.5-5.6-8.5-8.1,0-5.6,4.1-13.4,14.3-13.4A16.8,16.8,0,0,1,173,6.2Z"/><path class="cls-1" d="M199.6,30.7h10.7l-1.2,8.1H188.8l5.6-34.5h9.1Z"/><path class="cls-1" d="M250.9,23c-3.5,13.2-14,16.8-22.5,16.7-10.6-.2-17.9-7.2-15.8-19.4,1.7-10.6,12.1-18.2,22.8-17.5S253.9,12,250.9,23Zm-28.5-1.1c-.1,3.2.6,7.5,6.6,8.4s11.2-3.7,12.4-9.8c.8-4.6-2.9-8.8-8.2-8.5S222.6,16.3,222.4,21.9Z"/><path class="cls-1" d="M290.3,19.1c-.7,5.9-2.2,10.4-6.3,14.6s-8.1,6.2-16.4,6c-12-.3-15.8-8.8-14.4-18.2,1.6-11.2,9.6-17.9,21.1-18.4,6.4-.3,13.1,2,15.3,9.7l-9.4,3.8c-1.9-3.7-3.4-6.9-10.4-4.7-4.1,1.3-6.8,7.4-6.8,9.7-.3,8.2,2.6,10,6.9,10.4s7.9-1.8,8-5.6h-7l1-7.4Z"/><path class="cls-1" d="M300.6,38.9l-9.6-.3L296.3,4l9.6.3Z"/><path class="cls-1" d="M329.1,13.5a8.4,8.4,0,0,0-5.7-2.3c-1.7,0-3.9.8-4,2.8s2.5,2.2,4,2.7l3.5,1.2c4.8,2.1,5.3,4.4,5.4,7.4a13.6,13.6,0,0,1-5.6,11.2c-2.2,1.5-3.5,2.7-9,3.1a18.4,18.4,0,0,1-13-4.2l5.2-7.4c2.3,1.9,3.2,3,6.3,3.4,1.2.2,4.4,0,5.3-1.8,1.6-3.4-2-4.2-3.9-4.7-8.8-2.4-8.5-5.6-8.5-8.1,0-5.6,4.1-13.4,14.3-13.4A16.8,16.8,0,0,1,334,6.2Z"/><path class="cls-1" d="M368,38.9l-9.5-.3L363.8,4l9.5.3Z"/><path class="cls-1" d="M348.2,38.8h-9.3l3.9-26.3h-7.2l1-8H361l-1.2,7.7h-7.6Z"/><path class="cls-1" d="M427.1,13.5a8.4,8.4,0,0,0-5.7-2.3c-1.7,0-3.9.8-4,2.8s2.5,2.2,4,2.7l3.5,1.2c4.8,2.1,5.3,4.4,5.4,7.4a13.6,13.6,0,0,1-5.6,11.2c-2.2,1.5-3.5,2.7-9,3.1a18.4,18.4,0,0,1-13-4.2l5.2-7.4c2.3,1.9,3.2,3,6.4,3.4,1.2.2,4.3,0,5.2-1.8,1.6-3.4-2-4.2-3.9-4.7-8.8-2.4-8.5-5.6-8.5-8.1,0-5.6,4.1-13.4,14.3-13.4A16.8,16.8,0,0,1,432,6.2Z"/><path class="cls-1" d="M402.3,15.2c-2.6-2.6-4.6-3.6-7.7-3.6-5.5,0-10,4.8-10.4,9.7s4.1,8.9,8.6,8.2c2.5-.3,5-1.7,7.7-3.5l-1.6,11.2a21.4,21.4,0,0,1-9.4,1.7A17.9,17.9,0,0,1,377.7,34c-3-2.8-4.3-8.4-3.3-13.8A20.1,20.1,0,0,1,381,8.5c4.1-3.8,8.1-5.6,13-5.9a19.7,19.7,0,0,1,10,1.6Z"/><path class="cls-1" d="M476.5,15.2c-2.6-2.6-4.6-3.6-7.7-3.6a10.7,10.7,0,0,0-10.3,9.7c-.5,6,4,8.9,8.6,8.2,2.5-.3,5-1.7,7.7-3.5l-1.7,11.2a20.9,20.9,0,0,1-9.3,1.7A18.2,18.2,0,0,1,451.9,34c-2.9-2.8-4.2-8.4-3.2-13.8a20.1,20.1,0,0,1,6.6-11.7,19.7,19.7,0,0,1,12.9-5.9,20.1,20.1,0,0,1,10.1,1.6Z"/></g></g></svg>