<svg xmlns="http://www.w3.org/2000/svg" viewBox="0 0 1200 561.76"><defs><style>.cls-1{isolation:isolate;}.cls-2{fill:#79a8ff;}.cls-15,.cls-3{font-size:45px;font-family:Pretendard-SemiBold, Pretendard;font-weight:600;letter-spacing:-0.05em;}.cls-13,.cls-3,.cls-5{fill:none;}.cls-3{stroke:#fff;stroke-width:10px;}.cls-13,.cls-3{stroke-miterlimit:10;}.cls-4{mix-blend-mode:multiply;}.cls-6{fill:#fff;}.cls-7{fill:#ecdff3;}.cls-8{fill:#d8bee6;}.cls-9{fill:#c59eda;}.cls-10{fill:#b17ecd;}.cls-11{fill:#9e5dc1;}.cls-12{fill:#8a3db4;}.cls-13{stroke:#192b64;stroke-width:0.82px;}.cls-14,.cls-15{fill:#192b64;}</style></defs><g class="cls-1"><g id="レイヤー_1" data-name="レイヤー 1"><path class="cls-2" d="M173.92,380.14c-3,1.24-9.21,4.17-12.95,5.19-4.76,1.3-9.33,1.09-12.22,4.88-.95,1.24-.42,3.18-1.07,4-.11.15-5.3,3.48-5.3,3.48a19.28,19.28,0,0,0-3.88,1.55c-.89,1.17-1.84,2.4-.77,3.1-.28.54-1,.94-1.74,1.94-1.54,2-.28,4.25,3.13,4.25,8.28,0,13.39-5.18,18.33-8.67,6.19-4.38,12-8.29,16.13-13.94a13.35,13.35,0,0,1,2,.39l.84-1.16c.14-2,4.17-7.05,0-7.36-1,.62-1.54,1.94-2.47,2.32"/><path class="cls-2" d="M312.14,335c-.58,1.09.16,2.17,1.85,2.17a7.12,7.12,0,0,0,5.48-3.18c1.28-2.47-1.67-3.41-2.34-5.26-1.23,2.33-3.79,4-5,6.27"/><path class="cls-2" d="M364.08,337.71l-.27.62c0,.78,1,2.94,1.91,3.1s2.3,0,2.48.69c.35.93.51,1.4.85,2.33s3.32.77,3.44,2.55c0,.63.08,2.48.61,2.72.28.15,1.74.23,1.8.39s-.28.69.09.69,1.22,1.54,1.3,1.94a9.2,9.2,0,0,0,3,4.72c1.69,1.39,3.72,2,5.52,3.48.1.07,1.6,2.09,2.22,2.09.89,0,3.48-.23,3.8-1.08s.06-1.85,1.43-2.17l1.23-3.33c.28-.78-1.39-1-2-1.47-1-.84-2.36-1.31-1.74-2.94-1.36,0-2.25-.23-1.87-1.24l.79-.77a1,1,0,0,0-.84-.7h-1c0-.08.35-.31.37-.38.45-1.17-1.48-1.56-3.16-1.94a10.86,10.86,0,0,1-5.8-3.18c-.89-.77-1.37-1.7-3-2.09-.45-.07-1.09,0-1.16-.39a3.77,3.77,0,0,0-3.24-2.94h-4c-.84-.31-.9-.7-2.1-.7Z"/><path class="cls-2" d="M432.87,338.71c-.66.62-3.32.24-4.61.93-.29.16-.53.55-.93.63-.63.15-.57.31-1.37.54,0,0-1.51.62-1.13.93-1.18.62-1.43,1.41-3.31,1.63a10.43,10.43,0,0,0-3.63.69c-2.05,1.08-2.37,3.49-6.15,3.49-1.71,0-4.09-.55-4.54.77-.14.38.13,3.17.71,3.25s1.32.07,1.44.47c0,.07-.23.31-.26.39,1.08,1.54-1.82,4.26,2.78,4.26,1,0,1.77-.48,2.74-.39,0,.3-.38,1.15-.14,1.15s.49.39.87.39c1.5,0,2.39-.84,3.38-.84,2.11,0,3.2.91,5.09,1.23-.14.47,0,1.09,1.27,1.09,1.64,0,2.17-.93,4.26-1.24.26-.86,2.09-2,2.28-2.64.11-.38-.45-.54-.29-1.08a4.72,4.72,0,0,1,3.24-1.78c.38-1.32,1.51-1.78,2.62-3.49l.83-.77a7.19,7.19,0,0,1,1.27-.15c1.33,0,2.21.38,2.91-.78-2.19,0-4.36-3.87-4-5,.07-.23.61-.47,1-.54-.05-.24-.23-.47-.27-.7a37.34,37.34,0,0,0,3.81-1.08c-.24,0-.42-.23-.37-.39.2-.69,2.72-.23,2.92-.94.44-1.54-4.87-.61-4.4-2.23.34-1.16.79-1.94-1.24-1.94s-5.43,2.94-6.76,4.17"/><path class="cls-2" d="M463.22,346.38a44.87,44.87,0,0,0-4.35,1.79h-1l-8.3-.94a6.38,6.38,0,0,0-5.87,4.41c-.13.47-1.22.86-1.43,1.17-1.37,1.78-2.93,2.48-3.41,4.18-.26.93,1.46.93,2.2,1-.42,1.48-.63,2.23-1,3.71-.13.47.72,1,1.72,1,1.4,0,2.63-2.71,2.74-3.09.27-1-.69-1.55-.41-2.56.15-.55,1.24-.93,2.11-.93a4.68,4.68,0,0,0,1,0l-.94,1.63c-.27,1,1.62,1.39,1.36,2.39-.07.23,0,.47-.19.7H449c.22-.85,3-.77,3.18-1.62-.48-.08-1.49-.93-1.37-1.4,0-.16.46-.3.61-.46-.67-.24-2.3-3-2.24-3.25,3.46,0,4.15-1.7,7.13-2.25.06-.25.09-.37.16-.62a53.79,53.79,0,0,0-7.76,1.38l.34-.3c-.6.39-.83.78-1.58.78-1.85,0-2.18-1.48-1.86-2.63.42-1.54,2.3-1.25,4.37-1.25s3-.29,4.75-.29,2.56.52,4.15.52a4.52,4.52,0,0,0,4.28-2.47c.38,0,.58-.38.76-.62Z"/><path class="cls-2" d="M393.63,363.5c-.38,0-.52-.32-.9-.32a13,13,0,0,0-3.74,1.63c1.89,0,2.58.93,3.55,1.7a3.84,3.84,0,0,0,2.54.32,8.85,8.85,0,0,1,2.36.08,33.75,33.75,0,0,0,6.79.54c1.26,0,1.32,1,2.83,1,5,0,9.22.15,13.09,1.17,0-.24-.14-.79.24-.79,1.53,0,1.24.55,2.5.55a4.91,4.91,0,0,0,1.65-.85c-.82-.23-.75-.48-1.81-.71a4.32,4.32,0,0,0-1.39,0,2.22,2.22,0,0,1-1.6-.15c-.2-.15,0-.7-.81-.7-2.27,0-3.86-.16-5-1,.22.06,4.6-.16,4.85-.55h-1l-3.89.31c-2.28,0-2.7-1.4-5.22-1.4-1.5,0-2.27,1.17-4.17,1.17-4.16,0-4.94-2.48-8.71-2.48-.75,0-1.42.47-2.17.47"/><path class="cls-2" d="M447,369.07c-1.91,0-2.65-.54-4.94-.54-.89,0-2.27-.08-2.44.54-.24.85,1.7.78,2.59.78h4.58a7.59,7.59,0,0,0,4.09-1.55,12.14,12.14,0,0,1-3.88.77"/><path class="cls-2" d="M433.41,368.6c-.07.24-.24.4-.31.63a7.66,7.66,0,0,0-2.32-.31c-1.15,0-2.14-.08-2.4.77-.09.31,1.38.55,2.39.55,1.28,0,1.94-.47,3.29-.78l.93.31h1.14c-.21-.15.15-.54.32-1.17Z"/><path class="cls-2" d="M436.22,371.25c-.21.76,1.82.84,3.08.84-.06.24-.15,1,.48,1h.52c.4,0,1.1-.3,1.17-.54.25-.93-1.72-.7-1.42-1.79h-2.27c-.73,0-1.44.07-1.56.49"/><path class="cls-2" d="M425.81,368.53c-.1.31-.14.47-.24.78s.48.54.87.54a1.77,1.77,0,0,0,1.51-.78c-.46-.15-.34-.54-1-.54Z"/><path class="cls-2" d="M457.49,369.77c-.28.15-.4.62-.81.7-2,.39-4.42.38-4.85,2.08-.09.32.21.7.72.7a13.29,13.29,0,0,0,4.54-1.31c.45-.24,0-1,.63-1,2,0,6.39-.63,7.94-1.79a6.83,6.83,0,0,0-2.12-.21c-2.11,0-5.05.31-6.05.83"/><path class="cls-2" d="M493,363.66c-.08.45-1.36.53-1.51,1.31a.66.66,0,0,0,.64.62c1,0,.92-.86,1.07-1.64.63,0,1.06-.29,1.14-.77s-.2-.22-.35-.84c-.88.07-.89.77-1,1.32"/><path class="cls-2" d="M464.66,357.3c-.15.62,1.13,1.47,1.88,1.47a3.39,3.39,0,0,0,1.49-1c.12-.5-1.23-.94-2.25-.94-.57,0-1,.14-1.12.47"/><path class="cls-2" d="M472.14,356.6c-.28.16-.94.32-1,.7,0,0,1.67.31,2.16.31h2.87c1.74,0,2.44.78,4.19.78.26,0,.75,0,.78-.16.13-.62-1.2-.78-1.2-1.39l-.4.07c-.74,0-1.65.23-1.79-.31Z"/><path class="cls-2" d="M472,346.54c-.23,1,.68,1.32.48,2.16-.09.41-.13.61-.23,1a1.18,1.18,0,0,0,1.27,1.46c-.5-.53-.68-.84-1.06-1.31.05-.22.08-.33.13-.54a28,28,0,0,0,2.85-.16c0-.62-.81-.77-.72-1.17s1.34-.53,1.44-1c-2-.31-2.72-.92-2.71-2a1.89,1.89,0,0,0-1.45,1.55"/><path class="cls-2" d="M547.67,363.88l-.19-.11Z"/><path class="cls-2" d="M554.26,361.48c-1.15.3-3,.23-4.94.62a6,6,0,0,1-1.4.24h-3.76c.25.9,2.11.81,3.18,1.34l.07.05.07,0,0,0a6.26,6.26,0,0,0,1.83.53c2.63,0,3.84-.85,6.13-1.16.1-1.4,2.72-1.08,2.83-2.72a1.07,1.07,0,0,0-1.05-1.15c-1.75,0-1.13,1.7-2.92,2.24"/><path class="cls-2" d="M484,352c-.74,0-1.77.23-1.87.69-.23,1.1,2.84.62,3.49,1.72a1,1,0,0,0,.61.69,13.16,13.16,0,0,0,1.67.23,19,19,0,0,0,3.65-.31h.88c-1.05.93-4.73.77-6.58,1.32.12.61,1.55.3,2.05.92s-.18.93.29,1.71c.08.23.83.23,1.2.23a2.87,2.87,0,0,0,2.14-1.39c-.05.27-.08.41-.13.69,2.06-.39,2.45,1.62,4.32,1.62a31.57,31.57,0,0,1,6.62.78c1.19.39,4.56,1.26,4.9,2.17.43,1.15-.48,2.25,1.13,3.33-.8.23-3.26.62-3.41,1.54-.1.62,1,.62,1.92.62h2.68c.06-.38,1.46-.46,2-.46,3.3,0,3.84,2.4,7.15,2.4h4.85c.07-.55,1.25-.85.87-1.86,1.85-.54,1.76-1.93,4.93-1.93,4.18,0,6.23,2.16,8.6,3.71.23.16,1.23.3,1.2.63-.08.84,2.77,1.69,4.67,1.93h3.33a15.29,15.29,0,0,0,2.35.93h.76c0-.54,1-.93,1.77-1.24-.36-.08-2.31.07-2.52-.31a1.8,1.8,0,0,0-1.2-.93,3.19,3.19,0,0,0-.61,0c-.38,0-.76.08-.9-.17s-.57-.86-1-.86a5.11,5.11,0,0,1-2.72-.77c-.94-.93-.64-1.47-1.82-2.25-.23-.15-2.26-1.46-2.22-1.86.07-.69,2.44-.38,2.52-1.23.11-1.15-1.09-1.13-2.25-1.12a5.49,5.49,0,0,1-1.53-.12c-2.92-.93-2.57-3-6.48-3.79-.6-.08-1.6-.15-1.53-.78-1.48,0-2.1-1.08-3.59-1.08a23.13,23.13,0,0,1-8.22-1.63v-.08l-.25,0-.34-.19.25.17a6.14,6.14,0,0,1-2-.63h-3.36c-.69-.24-1.54-1.16-3-1.47-.35-.08-1.35,0-1.4-.39-1.51.15-3.23,1.54-4.38,1.78a7.24,7.24,0,0,0-3.14,1c-.28.16-1.61,1.32-2.47,1.32s-2.27-1.23-2.21-1.55c-1.12,0-1.8-.3-1.73-.69.2-1.11.31-1.67.51-2.79-2.16-.31-3.53-1.54-5.61-1.54S485.5,352,484,352"/><path class="cls-2" d="M556.61,356.69c1.55.61,1.27,1.48,2.86,1.93-.3.77-.34,1.32,1.16,1.48.22.14.49,0,.74,0-.11-.16,0-.4,0-.55.07-1.09-1.31-.93-2.27-1.55a11.52,11.52,0,0,0-4.69-2.25c.33.63,1.21.55,2.17.94"/><path class="cls-2" d="M568.68,363.81c0,.25,0,.37,0,.62s.36.54.73.54.91-.39.92-.63A14.67,14.67,0,0,0,567,362.1c-.28.79.19,1.56,1.67,1.71"/><path class="cls-2" d="M593.18,374.1c-.13-.15,0-.3,0-.45,0-.63-1-.78-2-1.17-.12.46.76,1.62,2,1.62"/><path class="cls-2" d="M589.09,372.47c.13,0,.52-.14.64-.14-.89-.78-2.15-1.09-4.19-1.09,0,.93,2,1.23,3.55,1.23"/><path class="cls-2" d="M589.89,370.69c-.64-1.15-1.9-1.86-3.65-2.47a5.74,5.74,0,0,0,3.65,2.47"/><path class="cls-2" d="M578.79,366.59h-.25c0,.86,2.87,1.48,3.88,1.48a3.58,3.58,0,0,0,1-.16c-.74-.69-3.26-1.16-4.39-1.55a2.85,2.85,0,0,1-.26.23"/><path class="cls-2" d="M573.56,364.66h0l-.62-.23a4.77,4.77,0,0,0,.62.23"/><path class="cls-2" d="M572.92,364.73l1.87.78h1.14c-.63-.59-1.35-.52-2.37-.85,0,.07-.52.07-.64.07"/><path class="cls-2" d="M527.86,446.12c-.13,0-7.78-1.25-7.93,0-.19,1.63,4,7.35,8.32,7.35,2.93,0,7.25-4.1,7.41-5.8.09-.94-1-1.39-1.37-2.32a50.58,50.58,0,0,1-6.43.77"/><path class="cls-2" d="M533.92,443.25c-.06.62,0,1.09,1.31,1.31a2.51,2.51,0,0,0,.56-1.31,7.23,7.23,0,0,1-1.87,0"/><path class="cls-2" d="M488.93,433.18c1.16.7,3.31.55,5,0a8.34,8.34,0,0,0-2.26-.46,12.06,12.06,0,0,0-2.7.46"/><path class="cls-2" d="M474.68,375.66a8.84,8.84,0,0,0,3.7.76h1.28c.09-.46.14-.69.23-1.15l-.86,0a31.36,31.36,0,0,0-4.35.41"/><path class="cls-2" d="M517.85,376.66l-1,7c-.88,1.76-2.32,6.34-6.4,6.34-2.5,0-2.9-1.7-4.68-2.09-3.15-.77-5.06-1.17-8.47-1.93-.5-.08-.31-1.25-1-1.55s-2.59-.16-2.49-.78c.91-1.55,1.36-2.32,2.25-3.87,1.12-.47,3.05-.54,3.22-1.55.11-.62-1.56-1.4-2.32-1.4-1.42,0-2.05.62-3.72.62-4.64,0-7-1.08-11.17-2.16.09.85,1.31,1.08,2,1.78a11.36,11.36,0,0,1-2.42.54c-2.2,0-7.51.69-7.74,1.77s-2.29,1.64-2.52,2.72c-.15.7.12,1.24-.8,1.93a6.37,6.37,0,0,0-1.82-.61,5.33,5.33,0,0,0-3.05.85c0-1.39-.92-2.94-3.24-2.94-2.73,0-3.75,1.55-7.25,1.55-.71,1.78-3.38,2.09-3.92,4.26a7.45,7.45,0,0,1-2.6-.62c-.88.85-.5,2-2.09,2.55-.4-.54-1.1-.85-1.59-1.55a2.82,2.82,0,0,0-2.21,1.94c-.13.53-.2.79-.34,1.31-.69,2.64-12.15,4.83-17.08,5.27-2.58.24-7.44.4-9.31,1.32-1.71.85-5.41,2.78-8,2.94a1.32,1.32,0,0,0,.1-.78c-.59.16-1.57.32-1.77.94L405,404.92c-.61,1.94.74,2.87.38,4-.13.39.16.7-.32,1a2.39,2.39,0,0,1-.91-1,13.21,13.21,0,0,0-1.15,1c-1,1.16,1.56,1.56,1.87,2.71.81,3,.88,4.17,1.51,7.52.27,1.37,2,2.63,1.31,4.87-.54,1.79-3.92,2.32-4.28,3.49s5.94,2.7,8.33,2.7c6.34,0,9.17-2.55,14.09-2.55,1.68,0,1.84-.62,3.93,0,3.09,0,5.58-.39,8.56-.55,2.11-3.94,10.61-2.59,18-3.87,3.18-.55,4.44-1.77,9.44-1.77,4.58,0,12.64.77,14.59,2.32.95.85,3.36,4.65,4.33,4.65,0,0-.81,1.39.87,1.39,3,0,7.17-4,9.92-5.43-.07,1.16-1.42,5.19-5,5.58-.07.39.58.77,1.29.77,2.11,0,2.49-1.39,3.81-1.7,0-.24.37-.53.4-.77.51.31,1.3.61,1.15,1.55a3.14,3.14,0,0,1-1.26,1.7h1.7a16.78,16.78,0,0,0,2.9-.54,1.5,1.5,0,0,0,.09.39c0,1,1.7,1.93,1.53,3.09-.48,3.18,8.38,5.19,14,5.19,3.58,0,2.64-1.55,5.92-1.7.1.47,5.76,2.24,6.89,2.33,1.54-3.73,13.08-2.1,15-5.66l0,.15c.23-2.71,3.42-5.11,4.65-7,1.61-2.44,4.2-3.25,6.83-5.42.73-.6.33-.92,1.06-1.54.06-.87.09-1.3.14-2.17,1.29-.7,2.26-3.1,2.36-4.8.14-2.33-1-6.52-3-8.14l.15-.23c-2.47-1.47-7.49-2.79-7.25-5.88-1.74,0-3.9,0-4.34-1s-.59-2.56-2.1-3.49c-2.13-1.31-7.81-2-8.64-3.87s-1.84-2.95-2.74-5c-.53-1.23-.24-3.71-1.74-4.34-.49-.15-2.91-.62-4.18-.85-1.36-.62-.52-2.05-.91-3.09-.56-1.46-2.09-2.87-2.2-5-2.27.7-1.77,1.71-3.95,2.64"/><path class="cls-2" d="M631.75,447.9c0,.16-.14.31-.13.47a3.46,3.46,0,0,0-2.56.85,1.82,1.82,0,0,0-.11.77,12.06,12.06,0,0,1-2.66,1.85c-2.45.62-4.56,2.57-8.08,2.57a3.21,3.21,0,0,0-2.3,1c-1.44,1.15-5.81,2.24-5.76,4.26,0,.15.44.31.74.31,0,.38,5.78,1.54,6.68,1.54s2.66.39,3.27.39c1.63,0,4.23-1.15,5.54-1.85a57.34,57.34,0,0,0,4.27-5.43c1.17,0,4.67-.38,5.37-.38.25-.93-.5-1.23-.14-2.4,2.35,0,5-2.87,5.42-3.88a1.16,1.16,0,0,1-.94-1.16c-.45,0-.88-.07-1-.3a9.23,9.23,0,0,1-2.41.69c-.87,0-.76-.54-.8-1.08-.43,0-1-.24-1.05-.77-1.28.3-3.38,1.38-3.31,2.55"/><path class="cls-2" d="M640.75,434.12c-.13.23-.39.54-.37.77,0,.62,1.19.85,1.67,1.47v-.05a4,4,0,0,1,.69,1.52,2.81,2.81,0,0,1-1.5,3c-.7.39-2,.46-1.93,1.24.09,1.4,5.37.77,5.49,2.33.07.93-1.62,1.31-1.56,2.24,0,.62.94,1,2.25,1,3,0,3.77-1.56,5.11-2.72.26-.23,1.93-1,1.88-1.54,0-.23-.62-.55-.64-.77-.05-.63,1.36-.85,2.78-1,.13,0,.25-.23.39-.23l.64.4c1.32-1.17.58-2.8,2.48-3.88a2.15,2.15,0,0,0-1.19-.46c-2.29,0-2.06.77-4.77.77-3.42,0-5.37-1.16-5.53-3.18h-.85c-.71,0-1.25.31-1.21.77h-.86a8.64,8.64,0,0,1-2.6-2.47c0-.23.41-.31.54-.55-.86-.23-.91-.76-1.8-1.23-1.45-.76-3.86-.85-5.48-2.17,1,1.86,3.09,4.42,6.38,4.73"/><path class="cls-2" d="M648.18,390.21c0,.31,1.75.47,2.82.47s1,.14,1.8-.32c0-.37,0-.55-.09-.92a2.83,2.83,0,0,1-1.64-.7c-1.16.24-3,.46-2.89,1.47"/><path class="cls-2" d="M653.18,387.5a1.06,1.06,0,0,0,.86.69c1.31,0,1.63-.77,3.17-1,0-.28-.05-.42-.07-.69-.79,0-4,.07-4,1"/><path class="cls-2" d="M468.78,329.91c-.43.4-2.28.11-2.55,1a1.26,1.26,0,0,0-1.22.87l-.64,0c-.75,0-.25-1.07-1.64-1.09a2.75,2.75,0,0,0-1.91.72,3.18,3.18,0,0,1-2.18.72c-.41.67-.95,1.07-1.15,1.73-.06.21.3.48.24.68s-1.32,1.55-.45,1.55c1.2,0,1.62-2.2,2.89-2.86a3.55,3.55,0,0,0,.91.61,2.77,2.77,0,0,0,.42-.33,1.27,1.27,0,0,0,1,.34c-.05-.2.11-.4.17-.6l1.5,0c.06.19.2.46.25.67a1.08,1.08,0,0,0-.76.8c-.36,1.28.66,2.37,2.19,2.39a3.45,3.45,0,0,0,1.1-.05.46.46,0,0,0,.41.55,1.38,1.38,0,0,0,1.44-.94c.19-.74-1-1-.92-1.43s.68-.53,1.23-.94c.16.21.44.35.5.55l0-.16c.09.38.59,1.53,1,1.59.3-1.14,1.73-1.54,1.91-2.27s-.65-4.6-1.36-5.16a2.53,2.53,0,0,0-1.56-.62c-.15.2-.3,1.15-.75,1.62"/><path class="cls-2" d="M450.87,326.73c-1.62,1.46-5.52,2.24-7.23,4.24l.75,0c1.46-.53,3.77-1.38,4.68-2.93a2.31,2.31,0,0,0,2.05-.71c.53,0,.71-.21,1.19-.4-.35-.28-.84-.42-.64-1.09-.37.2-.48.53-.8.87"/><path class="cls-2" d="M456.3,310.23c-.24.8.09,1.36-.15,2.16a4.76,4.76,0,0,1-1.23,2c-1-.15-1,1.28-1.34,2.35-.12.4,1.53,1.23,1.95,1.23s.6-.26.88-.45H457l-.2.67c-.25.14-.73.34-.84.73s.56,1,1.28,1a2.79,2.79,0,0,0,.91-.19,2.84,2.84,0,0,1,.9-.19c1.48,0,1.15,1.49,2.63,1.52-.15-.55-.39-.83.27-1.29.45.61,2.82,1.25,3.23,2.07.05.2.06.54.38.54a.68.68,0,0,0,.53-.4c.06-.19.1-.33.15-.53-.73,0-1.3-.29-1.14-.83-.23.06-.77.12-.74,0,.09-.35.63-.4.85-.81-.2,0-.37-.14-.58-.14-.43,0-.67.47-1.08.45-.65,0-.53-1.55-1.79-1.57-.62,0-1.22.26-1.3.53l-.1.33a3,3,0,0,1-1.74-3.06c.41-1.4,2.33-1.52,2.76-3,.33-1.14-.73-2.17-.46-3,0-.13-.12-.35-.09-.48s-.11-.28-.1-.33c-.44.12-.92.66-1.53.65-.93,0-.38-1.23-1.51-1.24h0c-.82,0-1.21.69-1.41,1.34"/><path class="cls-2" d="M466.44,322.78c0,.55,2.26,1.06,2,2a.94.94,0,0,1-.63.39h-1.4c0,.16-.07.24-.11.4a1.68,1.68,0,0,0,1.37.9c-.05.16-.07.24-.11.4-.54.4-.47.95.27.95h1l.1-.4a1.42,1.42,0,0,1-.59-1.36h1.6a8.52,8.52,0,0,0,.66-.86c-.11,0-.68-.62-.68-.62a3.77,3.77,0,0,0,.28-1.07h-.64c.17-.2.13-.47.17-.67-.83,0-1.41-.3-2.25-.3h0a8.4,8.4,0,0,0-1,.25"/><path class="cls-2" d="M459.08,324.25a30.64,30.64,0,0,1-.44,3c1.07-.39,3.72-1,4-2.12.14-.51-1.67-.76-2.44-1a.69.69,0,0,0-.39-.23c-.22,0-.72.19-.76.33"/><path class="cls-2" d="M463,326.12c-.56.07-1.57,1.75-1.64,1.94-.31,0-1,.2-1.06.4-.13.47,1.44,1.77,1.87,1.78.2,0,.7-.2.73-.33.11-.41-.47-.29-.3-.89.23-.8,1.58-1.33,1.8-2.13.09-.34-.17-.81-1-.81a3.62,3.62,0,0,0-.43,0"/><path class="cls-2" d="M463.29,328.77h.52c.29-1,1.78-1.33,2.11-2.54h-1a7.93,7.93,0,0,1-1.66,2.55"/><path class="cls-2" d="M464.21,328.9c0,.15.33.35.54.35a2.13,2.13,0,0,0,2.09-1.32,1.64,1.64,0,0,1-1.37,0c-.45.4-1.16.6-1.26,1"/><path class="cls-2" d="M463,323.49a4.82,4.82,0,0,0,.54,0,7.66,7.66,0,0,1,.95,0c-.1.33.89,1,1,.68.23-.86-1.09-1.09-1.24-1.7h-.95l-.29,1"/><path class="cls-2" d="M457.34,323a1.6,1.6,0,0,0,1.14-1.35c-.09-.8-1.28-.69-2.4-1.24H455s1.68,2.59,2.31,2.6"/><path class="cls-2" d="M459,320.81a1.9,1.9,0,0,0,1.06,0,.88.88,0,0,0-.45-.08,2.43,2.43,0,0,0-.61.07"/><path class="cls-2" d="M459.88,297.44c-.32,1.16-.93,2.17,1.07,2.17,2.56,0,6.8-6.81,4.07-6.81-1.54,0-4.69,3-5.14,4.64"/><path class="cls-2" d="M420.36,306.74c-.56,0-.25.7-.41,1.16-.35,1,.26,1.54,2,1.54s5.9-2.39,6.26-3.48a1,1,0,0,0-.95-1.15c-1.47,0-6,1.93-6.88,1.93"/><path class="cls-2" d="M392,354.21c-.23.62,1.9.22,2.16.85,0,.23.24,1.08.48,1.08.5,0,.7.46,1.45.46H397a2,2,0,0,1,.16-.77c-1.74,0-1.95-1.46-2.14-2.63-.9.07-2.82.62-3,1"/><path class="cls-2" d="M400.4,355.75c-.13,0-.11.32-.14.39-.14.38-.08.93.65.93a2.09,2.09,0,0,0,1.71-.93c-.34-.07-.61-.39-1-.39Z"/><path class="cls-2" d="M370.3,352.34c-.05.13-.08.19-.13.31-.23.55.88,1.78,1.46,1.86.41-.76,0-1.22-.5-1.78.07-.16.1-.23.16-.39Z"/><path class="cls-2" d="M367.78,347.78h.11c-.07.46,1,1.69,1.5,1.69,1,0-.33-1.54-.95-1.84l-.66.15"/><path class="cls-2" d="M495.19,274c-.08.38.35.85.88.85.32,0,.8-.32,1.33-.32-.16-.22.1-.46.15-.69,0,.39,0,.86.63,1l-.64,1.08a11.51,11.51,0,0,0-1.32,1.25,1.28,1.28,0,0,0,1.22,1.23l.1-.46c-.05.23-.14.69.18.69,1.5,0,2.84-2.4,3.43-3.79.29.16.63,0,1,0-.16-.24.11-.54.16-.77l-.82-.62c-.32,0,0-.55,0-.78-1.26,0-1.77-.61-2.61-.61-.31,0-3.58,1.46-3.68,1.93"/><path class="cls-2" d="M505.93,271.42c0,.09-2.22,1.18-2.22,1.18-.07.37.1.53.68.84-.19.39-.13,1.16.41,1.16,1.37,0,1.83-1.23,2.9-1.93.3.07.64.54,1.47.54,1.06,0,2.82-2.71.5-2.71-1.46,0-2,1.32-3.74.92"/><path class="cls-2" d="M532.94,253.47c.11,0,.2.08.29.08-1.32.77-1.07-.24-1.27-.24-1.32,0-2.62,1.94-2.76,2.86-.05.39.35.39.27.93-.37,2.48-4.34,5.74-6.6,6.28-1.28.31-1.61,1.08-3.18,1.08-.19,0-.48-.23-.45-.39a1.55,1.55,0,0,1,.66-.86c-.31.09-2,1.94-2.08,1.94-.94,0-2,2.4-3.74,2.4h-6.46c-2.72,0-4,1.95-6.46,3-.44.15-1.42.31-1.47.54s.68.3,1.41.3a18.69,18.69,0,0,0,5.67-1.07,2.78,2.78,0,0,1,1.18-.12,3,3,0,0,0,1.17-.11c.32-.09.53-.62,1.17-.62,1.25,0,1.8.46,3,.69-.06.31-.48.85-.56,1.32,0,.22-.44.62-.11.62.74,0,.52.61,1.34.76.67-.76,2.14-2,2.87-2a4.83,4.83,0,0,0,1.06-.08c-.11,0-.89-.93-.84-1.24a.94.94,0,0,1,.74-.62c.94,0,.62,1.32,2.81,1.32a4.33,4.33,0,0,0,2.25-.93h1c0,.16.27.38.47.38.58-1.08,1.54-1.16,3.1-1.85-.18.54-.61.61-.29,1.23,1.3-.3,1.41-1.08,2.74-1.55a2.59,2.59,0,0,1-.32-1.47c.14-1,1.36-1.47,1.46-2.17.12-.85.14-3.25,1.2-3.48a1.35,1.35,0,0,1,.35,0,.9.9,0,0,0,.61-.14c0-.18,0-.27.06-.46.14-1,1.58-1.16,1.75-2.4s-1.2-1.62-1-2.71a2.78,2.78,0,0,0,0-1.54c-.07-.24-.45-.4-1.16-.4-.3,0-.21.71.1.71"/><path class="cls-2" d="M536.12,242.71c0,.3.44.45.4.77-.14,1-1.24,4-2.95,4a4.18,4.18,0,0,1-1,0,1.46,1.46,0,0,1,.19.16,3.44,3.44,0,0,1-.64-.39c0,.25-.06.37-.09.62-.28.54-2,1.08-2.09,1.93,0,.31.44.47.4.78-.11.7-.16,1.06-.26,1.77h.58c.91-.62,1.68-.31,2.59-1.16-.35-.3-1.86-.3-1.75-1.08.19-1.31,1.78-.54,3.08-.54,0-.24.48-.55.78-.62,1.6.85,2.58,1,4.08,1.78.92-.93,1.85-2.7,3.94-2.7a6.32,6.32,0,0,0,3.18-.7c-.39-.08-1.14-.54-1.09-1s.47-.54.71-.94c-.57-.3-1.32.16-2.1.16-3.87,0-4.76-2.48-7.22-3.87-.23.24-.67.47-.74,1"/><path class="cls-2" d="M546.66,245.57c-.23.23-.37.69-.08.69.89,0,2.21-1.15,2.65-1.63l-.31-.2a4.5,4.5,0,0,0-2.26,1.14"/><path class="cls-2" d="M548.92,244.43l.14,0-.29-.07Z"/><path class="cls-2" d="M554.59,241.54c-1.18,0-2.35,1.7-2.35,1.7s-.12.39,0,.39c1.39,0,1.54-1.55,3.81-1.55l0-.54a8.94,8.94,0,0,1-1.47,0"/><path class="cls-2" d="M559.46,239.76c-.12.23.14.62-.16.62s-.23.47,0,.47c.78,0,1.66-1.09,1.79-1.56-.2,0-1.37,0-1.6.47"/><path class="cls-2" d="M542,215.68c-.09.65-.13,1-.22,1.63-.05.38-.44.54-.51,1-1.42.23-2.27,2.32-2.5,3.95-.16,1.16,1.21,1.63,1.05,2.79l-.6,4.57c-.13.93-.66,1.23-.82,2.4-.12.93.45,1.07.3,2.16s-.67,2.09-.86,3.49c0,.38-.58,2.24-.3,2.24,1.18,0,1.41-1.71,2.58-1.71h1c.06.32.48.86.88.79a1.3,1.3,0,0,0,.31-.08c-.62-1.33-2.56-2.17-2.33-4,.26-2,.88-4.49,3.47-4.49a2.34,2.34,0,0,1,1.89,1c-.35-1.86-1.41-3.42-1.93-5.35-.13-.46-.69-1.32-.4-2.09.09-.74.14-1.11.23-1.86-.52-1.09.34-1.88.09-2.94s-.86-2-.66-3.56Z"/><path class="cls-2" d="M381.57,136c-.89,0-.73-.93-1.63-.93-1.42,0-2,.93-3,.93-2.77,0-7.36,3.71-9.24,3.71-1.14,0-2.27.55-3.4.55A1.82,1.82,0,0,0,363,141c-.32.46,0,.77-.43,1.39-1.5,2.17-6.29,3.32-7.21,4.64-.44.62.53.78,0,1.71-1.45.31-4.32.85-5.26,2.17-.32.46-.49.69-.81,1.16-1,1.39-3.24,1.24-4.57,3.1a1.05,1.05,0,0,0,.32,1.54s2.2-.07,2.38,0c1,.4-.51,1.63-.71,2.71-.11.39,1.44,0,2,0,.24,0,.07.48.18.55h6.25a1.19,1.19,0,0,0,0-.38c-.73-1.54-2.84-2.23-.9-5,3.41-5,12.29-10.14,16.89-11.23,1.63-.39,3.14-2.1,5-2.1.91,0,2.22-1.55,2.82-1.78,3.28-1.24,4.77-.62,8.22-1.93,2.46-.93,8.49-1.39,10.08-4,.51-.85-.89-1.94-1.78-1.94-3.68,0-9.94,4.42-13.9,4.42"/><path class="cls-2" d="M355.22,159.85v0m-.11-.22a1.74,1.74,0,0,1,.1.19,1.9,1.9,0,0,0-.1-.28Z"/><path class="cls-2" d="M464.32,133.52c-1.93,1.17-13.3,5.19-10.9,1.55-7.51,1.4-15,2.59-21.58,6.59-1.68,1-3.61,4.26-5.38,4.26-2.54,0-11.58-.93-13.92,3.48-.49.93-.12,1.85-.47,3.1-2.29,1.08-2.34,0-7.83,0-8,6.15-3.71-.94-4-2.32-1.79,2.47-4,3.56-6.72,4.64-.63,2.17,1.5,4.42-2.42,7-2.7,1.75-1,7.52-3.63,7.52-3.45,0,2.44-11.7,3.84-14.1,1.53-2.64,6.49-3.71.6-5-3-.66-12.7,4.8-14.51,7.74-2.2,3.56-1.95,5.89-1.12,7.74.43,6.74-5.81-.78-9.18-1.77-9.34-2.75-8.07.85-8.45,1.39-4.23,5.95-3.79,1.16-5.25,1.16-2.53,0-10,3.25-12.5,1.55-5.64-2.54-15.94,5-21.52,5.81-.85.12-1.92-.69-.91-1.55,3.64-3.12,7-9.9-4.44.38-.74.66.53.93-.52,2.32-1.33,1.74-3,1.6-4.8,1.46a10,10,0,0,0-3.08.09c-2.89.7-7.64,8.1-14.34,4.27l-2.5,3.09c-4.55-.39-.09-5.11.09-7.35,3.6,0,5.65-.11,8.46.74,3.76,1.12,17.13-4.26,6.52-8.48-3-1.21-8.34-5.43-11-5.43-.24,0-.06-.3-2.11-.07-.25,0-1.75-.23-2.4-.32.39-.46-.11-.53-.38-1.15,2.39-.62,2.49,0,4.8-1.86-.37-.31-1.33-1.24-1.73-1.24a4.26,4.26,0,0,0-2.2,1.16c-.81-.08-.05-.77.74-1.78a40.78,40.78,0,0,0-4.92,2.17,4.72,4.72,0,0,0,.82-1.4c-2,.7-4,2.48-5.49,2.33,1.28-1.08,2.92-1.4,3.87-2.48s-3.85.92-5.05.92c-.72,0-.65-.61-.65-1.15-.65.46-2.36.77-2.71,1.15-.49.55-.07.7.36.94-2.14.77-3.08.31-5.82,2.17l1.2-1.32c-1.76.08-3.63,1.86-4.89,2.09l.85-.92a12.61,12.61,0,0,0-4.32.92c0,.32,0,.23.06.62a3.63,3.63,0,0,1-1.76.15,7.1,7.1,0,0,0-3,1.25,1.63,1.63,0,0,1,1.16.15A30,30,0,0,1,256,167.6c-1.05,0-.66-.77-2-.77.75-.54,1-.93,1.07-1.39a14,14,0,0,0-1.68,1c-.24,0-.19-.23-.44-.23a4.22,4.22,0,0,0-2.39,1.24,3.62,3.62,0,0,0,1,.23,14.52,14.52,0,0,0-2.67,1.09c2,0,3.75-1,6.15-1.4a33.22,33.22,0,0,1-9,4.88,25.89,25.89,0,0,0-7,3.25c-.07.07-2.55,1.78-2.55,1.78-.67,0-2.82,2.4-4.5,3.1-4.34,1.86-8.43,4.56-13.05,5.42.62.16.81.31,1.53.54-2.79-.31-5,1.56-6.91,1.94a21.36,21.36,0,0,0-6.62,2.71c-1.22.69-2.54.62-3.71,1.78-2.18,2.17-4,4.11-4,5.5a23.76,23.76,0,0,0-3.44,2,7.14,7.14,0,0,1,2.7-.38l-1.16,1.15a7.58,7.58,0,0,0-2.7,1.17c-.31.3,1.33,2.17,1.87,2.17,3.78,0,9.56-2.94,13.69-5.27-.12.73-.53,1.37,0,1.83a8.69,8.69,0,0,0-1.53,1.11c-1.35,1.39-.3,1.72-1,2.86-1,1.7-2.25,2.79-2,4.11-.22.23-.7.54-.93.78s-2.22,3.63-1.48,3.63c2.3,0,5.22-2.48,6.78-2.48h2.46c1.66-1.47,4-1.62,6.23-3.71-.48-.09-1-.4-.14-1.31,1.53-1.64,4.35-3.88,6.14-3.88.89,0,5.37-1.93,6.44-3.1,1.36-1.47.26-2.86-1.11-3.1.51-.54.76-1.08.61-1.38l1.45-1.56c1.82-.54,2.32-2,4-3.1,2.16-1.38,4-1.71,6.18-2.47,2.67-.94,8-2.48,9.64-4.26.69-.48.78-.86,1.62-1.79a10.74,10.74,0,0,1,7.86-3.09c2.11,0,4.53.38,2.83,2.32-1.16,1.31-3.54,1.7-5.28,2.32-3.23,1.15-9,5.42-12.59,5.42a11.64,11.64,0,0,1-1.41,1.55c-.77.85-1.61,2.63-1,2.94a12.88,12.88,0,0,0-2.77,1.71c-1.48,1.62-.5,2.7,1.35,2.7-.77.86-.11,1,1,1a40.49,40.49,0,0,0,6.34-1.16c1.47.23,5.75,0,8-1.55,0,.85.51,1.24-.13,2.71a29.8,29.8,0,0,1-6.36,1.71c-1.52,0-2-.55-4-.55s-7.85,1.57-7.47,2.68c1.26,3.65-2.35,5.07-3.45,5.07-1.81,0-.33-1.94-1.88-1.94s-6.85,3.56-8.54,5.42c-2.74,3-5.31,2.61-8,5.32-1.16.09-2.37.18-3.5.18a9.8,9.8,0,0,1,1.16-.85,8.2,8.2,0,0,0-2.85-.32c-1.12,0-3.68,1.16-4.8,1.47-1.9.55-2.89.31-5.06.94a7,7,0,0,1-2.24.69s-.69-.93-.54-1.08.9-.47,1.37-.86c-1.92-.22-5.39,1.55-7.91,1.55-.27,0,.07-.54.26-.93-.83,0-.9-.31-1.93-.31a6.09,6.09,0,0,0,.84-.85c-.48-.08-.41-.62.35-1.39a15.5,15.5,0,0,1,4.82-2.86c.51-.24,1.49-.4,1.86-.78l.6-.62c-.73,0-1.66-.07-.9-.85a12.86,12.86,0,0,1,2.51-2l.91-.93c-3.62,1.39-7.4,1.62-10.62,4.87-1.84,1.86-1,2.48-2.67,4.57a19,19,0,0,1-1.27,1.94,7.79,7.79,0,0,1-3.35,1.31c-.84,0-1.21-.46-2.41.09-.34.15-1.23.77-1.28.53-.88.23-.09,0-1.3,0-2.15,0-4.71,1.24-7.12,2.32a9.28,9.28,0,0,0-1.8.86,10,10,0,0,1-3,2.48c-.68.31-5.74,1.54-6.46,1.69a8.39,8.39,0,0,1-1.5.16c-2.49,1.86-5,3.56-7.89,3.56a5.73,5.73,0,0,1-2.84,1.16c-1.15,0-1.71-.38-1.82-1h-1l-.65.62c-.15.23-1.66,1.39-1.15,1.55l-.56.54a21,21,0,0,1-2.63.39c-.78,0-2-.32-1.79-.78-1.21.23-4.41.7-5.15,1.39-.09.08-.33.31-.24.31-1.24,1.17,2.37,1.79,3.51,2.17.41.08.1.47.6.55-1.31,1.24-2.18,2.63-.22,2.63-.66.62.09.47-.64,1.16a10.87,10.87,0,0,1-1.6,1.16l.31-.12c-.49.47-1.81,1.82-2.14,2.14-1.54,1.47-3.3,1.93-4.94,3.48-.3,0-2.2.38-2.9.38-1,0-1-.53-2.47-.3h-4.79c-.41-.08-1.13-.16-1.19-.47h-4.48c-.77.16-.77-.31-1.17-.31a31.41,31.41,0,0,0-6.27,2.09c-.78.7-.86,1.78-2.15,3-2.2,2-5.32,4-7.45,6-.59.53-2,.77-3.07,1.77-.69.63-.38,1.09.45,1.09l-3.4,3.09c-.27.24-.48.62.14.62,1.56,0,3.28-.53,5-.53,2.38,0-.61,2.86,1,2.86,2.29,0,5.3-1.54,7.79-1.54a16.81,16.81,0,0,1,3.39-.17l.07-.07c1.59.47,3.85-1.48,5.56-1.93a32.23,32.23,0,0,0,7.52-3.25c-.35-.17-.62-.4,0-1,1.77-1.7,8-4.87,10.16-5.19a17.22,17.22,0,0,0,7.5-2.48l1.13-1.69a8.39,8.39,0,0,1,5.08-2c2,0,2.53.85,4.73.85s4.89-1.4,7.47-2.08c1.2-.32,2.3-1.32,4.08-1.32,3.77,0,1.27,3.17,1.33,5-.32.54.89.84,1.08,1.39.43,1.31.46,2,3.09,2.55-.44.47.77.8,1.17.8-.34.46.36,2.31.65,2.31-.44.69.08,1-1,2.16-.87.93-2.47,2.09-3.71,2.09-.29.31-.09.54.63.54,1.43,0,2.76-1.63,4.33-2.32,0,0,1.34,0,1.69-.39.94-1-.68-1.23.27-2.24a5,5,0,0,1,3.39-1.24c1.64,0,1.3,1,2.19,1.16,1.8-1.63-.07-2.27-1.36-3-.4-.23-2.46-.62-1.16-1.56a2.45,2.45,0,0,0,.77-.61c-1.51,0-2.91.4-3.88-.16-.51-.3,0-1.54.6-2.63.37-.69.82-2-.3-2.4-.89-.3-1.34-.77-.22-1.94a14.45,14.45,0,0,1,1.75-1.39c-.21,0-.2-.31-.06-.46.82-.85,3-.85,4.59-1.4.14.48-2,2.1-.71,2.1h3c-1.68,1.78-1.7,4.41.5,4.41h1.4c-1,1.08.52,1.16,1.42,1.71a2.22,2.22,0,0,1,.62,3.25l-1.85,2c-1.49,1.61-.52,2.32-.13,3.24a2.59,2.59,0,0,1-.11,2.48c-.14.16-.57.85-.16.85h1.75c-.65.39-1.89.62-2.38,1.17-1.19,1.31-.87,2.55.8,2.55h1.44c-.69-.39,1.18-1.32,1.59-1.78a2,2,0,0,0,.57-1.31l.56-.63a2.05,2.05,0,0,0,1.63,1.17h.2c.69-.54,1.45-.24,2.17-.47a.79.79,0,0,1,.22-.7c-.83,0-1.89-1.93-1.67-2.16s.73-.47,1.24-.93l-.4-1.71a3.52,3.52,0,0,1,1.88-.85c.92,0,.08,1.16,1.61,1.16a5.78,5.78,0,0,0,1.51-1.7c1.6-.31,2.62-1,4.24-1,1.82,0,1.38,1.54,2.9,1.54,1.31,0,2.51-1,4.22-1.47a4.51,4.51,0,0,1,1.47-.14,4.86,4.86,0,0,0,1.26-.09,4.09,4.09,0,0,0,1.59-.32c0-.69-1.81-1.77-.47-3.32,1-1.09,4.08-2.63,5.75-3.41l1.73-2a4.65,4.65,0,0,0,1.57-1.1,5.39,5.39,0,0,1,3.17-1.3c.22-.39.65-.77.88-1.17,2.56-.46,4.47-2.47,6.62-2.47,1.76,0,1.44,5.81,2.82,5.81a38.32,38.32,0,0,0,8.89-2.41c-.19,0-2.51-.31-2.51-.31-.38,0-1.48-.22-.71-1.16.5-.61,9.35-2.7,12.6-3.48a26.44,26.44,0,0,1-2.81,1.32c-.18.46.72,2.56-5.94,3.71-1.23,4.57,10.85,3.8,6.1,9.91l.44,0,.14,0c-2.24.58-4.38,1.79-6.46,1.79h-5.77c-1.06-.08-4.56-.62-3.81-1.54-2.32,0-1.26-1.17-4-1.17a23,23,0,0,0-6.41.69c-1.57.54-4.23,1.55-5.45,1.55h-3.12c-.51,0-2.17-.31-2.77.39-.46.54.35.31,0,.93-2.41.69-9.33.24-11.42,2.63-.42.47.68.39,1.39.39-.54.39-.34.39-.81.93-1.28,1.47-2.27,1.32-4,2.09.95.54,2.15.46,2.2,1.47-1.7.78.27,1.95.5,2.4a4.44,4.44,0,0,1-1.22.46h1.14c2.57-.69,1.82,1.4,3.79,1.4s3-1.78,5.14-1.78,1.39,1.93,3.57,1.93c3,0,4.38-1,6.79-1.93.16.31.53.62,1.58.62a12.61,12.61,0,0,0,2.52-.7c-.25.32-.37.47-.63.78a3.26,3.26,0,0,0-1.35.77c-.75.93-1.12,2-2.19,3.33-1.45,1.78-3.86,2.16-5.76,3.71s-2.92,2.41-5.07,4.11c-.36.31-1.11.31-1.55.85-.11.41-.16.61-.26,1a2.74,2.74,0,0,1,.09-.55c-1.59.23-1.91.61-3.5.61-2.36,0-2.7-1-4.72-1-3.31,0-5.36,1.16-8.78,1.16a31.15,31.15,0,0,1-10.13-2.09c-1.28-.47-4.29.15-4.41-.78,0-.46-1-.69,0-1.77h-2.32l-.18-.16c-4,.77-6.54.77-8.8,3.25L160,279.64a6.81,6.81,0,0,1-3.21,1.16c-7.93,0-4.56-6.19-11.43-6.19h-3c-2,0-3.1-1.71-1.22-3.64,1.13-1.17,3.09-1.78,4.22-2.94.68-.7-.38-1,.3-1.71,1-1,2.28-.84,3.52-2a19.65,19.65,0,0,1-2,.46c-1.65,0,.22-1.38-1.74-1.38s-3.2,1.15-5.27,1.15c-1.15,0-1.24-.54-2.58-.54-1.55,0-4.37,1.16-5.51,1.16-.82,0-1.4-.77-2.85-.77-4.66,0-14.56,2.16-20.16,3.64-1.74.46-3.13,1.39-5.33,1.39-3.56,0-5.71-.54-6.82-1.94-1.7.62-2.67,1.33-4.34,2.09h.22c-5.21,2.4-11.42,4.81-17,7.36-4.25,1.94-4,3.17-8.47,6a42.75,42.75,0,0,1-8.73,3.48c-2.81.78-5.46.62-8.63,2.09a201,201,0,0,0-18.35,9.68c-2,1.23-5.6,2.17-7.39,3.73-3.54,3.08-3.77,5.26-7.67,8.67-2.21,1.94-9.29,6.11-12.81,7-.43,1.07.05,1.46-1.2,2.55-.8.69-.92,1.31-2.26,2.48H0c.05.47.23.62.28,1.08C-.07,324,2,327.65,2.38,328c1.2,1.55-.2,3.41-.44,5.65-.28,2.47,3.75,5.12,5.35,6.74a6,6,0,0,0,2.94.61c4.71,0,8.44-1.54,13.13-1.54,2.4,0,4.18,1.16,6,1.16s3.48-1,5.68-1.4c5.54-.94,11.82-2.7,17.8-2.7,4.91,0,1.23,4.48,4.85,4.48h5.08c4.09,0,4.75,1.55,4.42,3.25-1.83.63-4.11,2.94-5,3.88-.29.3-.94.46-1.13,1.16a23.55,23.55,0,0,0-5.87,3.1c-3.59,3.64.89,6.37,1.62,8.91.37,1.28-1.86,3.09-2.34,4.64a16.77,16.77,0,0,1-3,6.42c-1.19,1.7-.69,2.48-2.54,4.41-3.92,4.11-13.37,5.43-18.62,10.85-4.88,5-3.69,8-3.5,11.61.06,1.07,1.28,1.47.25,2.56-.8.83-1.2,1.25-2,2.09-6.48,6.81-4.37,11.52-4,16.11.06.66,1.77,3,.62,4.25a9.61,9.61,0,0,1-3.75,2.1c.53.62.36,2.32-1.07,3.87a9.38,9.38,0,0,1,1.77-.4c.07.86.69,1.57,3.09,1.57,5.35,0,11-2.33,16.87-2.33,1.55,0,1.72.77,3.26.77,1.27,0,2.79-.46,4.68-.53,1.66-1.4,4.64-.78,7.55-1.4,7.08-1.53,10.5-3.73,16.07-6.19,3.52-1.55,5.35-3.33,9.8-5,2.42-.93,7.69-2.65,9.49-4.81.58-.7.21-1.24-.68-1.62a30.58,30.58,0,0,1,9.81-3.65c1.13-.23,3.19.07,4.51-.54s3.74-3.25,4.75-4.49c1.9-2.32-.9-3.48.51-5.19.7-.85,3.91-2.16,5.88-2.32,8.1-5.51,20.92-3.4,27.16-10.45.5-.56.61-1.09.18-1.55,1.7-2.17,3.24-3.64,4.21-4.88l1.52-1.94a7.38,7.38,0,0,0,1.83-1.16c1.15-1.47-2.56-2.78-.47-5.42,1.84-2.32,1.7-3.4,3.6-5.8,1.73-2.18,5.43-2.79,7.8-4.65,8.41-6.6,19.33-8.61,29.3-12.16,6.18-2.2,9.84-5.08,15.69-8.13,6.09-3.17,13.44-7.48,17.56-12.78.33-.43,0-.7,0-1.16-4.7.7-9.81,1.9-14.58,2.33a9.17,9.17,0,0,1-2-.06,8,8,0,0,0-2.69.06c-1.75.3-2.63,1.31-4.53,1.31s-1.63-2.48-2.55-3.25c1.88-.93.91-1.12,1.93-2.44-3.83,0-2.34-3.25-3.46-4.15s-2.51-1.09-3.36-2.32,1.88-3.41,1.31-5.26c-.47-1.54-2.74-1.55-2.19-3.64,1.33-1.64,2-2.46,3.31-4.11-.93-.92-1.49-4.33.39-6,0-5.21.1-7.81.35-13l1.11-1.32c.72,1.32-.33,4.8,1.77,5,1-.76,3.77-2.74,5.14-3.86-1,.95-2.15,1.94-2.58,2.46-.19.23.3,1.48.32,1.85.09,1.3.25,2.5.44,3.88a3.1,3.1,0,0,1,0,1.86c-.14.46-1.31,1.63-1,2.09.14.23,1.7.08,1.89.39a5.28,5.28,0,0,0,.64,1c-.73,1.47.41,1.86-1,3.64-2.33,2.94-2.66,4.53.8,5.15-1.47,1.86-.4,4.53.24,5.46s2,1.55.09,3.25c-.77.7-2.79,2.17-1.58,2.24a4.46,4.46,0,0,0-1,4c.18.77-.73.77-.52.87a22.44,22.44,0,0,0,2.83,1.06l.95-.29c2.45,0,3.24-.63,5.91-1.56h3.6c1.86-.47,8.09-2.64,9.64-2.88A101.56,101.56,0,0,0,232.54,316a.63.63,0,0,1,.05-.69c1.21-1.71,8.78-2.57,12.14-2.95.65-.93,3.71-2.24,4.73-2.24,1.71,0,3.11-2.24,4.83-2.24,1.35,0,2.12-1.32,3.21-2.26a5.89,5.89,0,0,1,4.09-1.23c1.24-1.86,4.9-2.48,6.08-4.26.46-.7-1.2-.54-1.3-1.24l-.05.07c-.56-.31.21-1.62-.86-1.85-2.75-.7-4.59-1.09-4.6-3.34.79-1.14,1.18-1.71,2-2.86-5.37,2.09-8.14,5.27-15.55,5.27-1.67,0-4.14-.54-3.36-1.63.67-.93,1.87-1.55,2.54-2.48a3.43,3.43,0,0,0,.5-.85c-1.21.16-1.71,1.16-3.19,1.39.39-.69-.09-.93.52-1.77-2.23-.4-2.85-3.72-2.15-5.57a7.32,7.32,0,0,1,1.09-1.79c.8-1.08,2.47-2.47,4-2.47,3,0,3.64,2.41,3.61,4.1,0,.31-.78.94-.47,1.39.58.85,2.66.4,3.29,1.32s.72,1.78,2.19,2.17h5.47a7.19,7.19,0,0,1,3.09-1.16c2.28,0,.7,2.34,1.27,3.09a22.16,22.16,0,0,0,3.38.7c3,0,7.19.93,9.28.93.11,0,.51.08.55,0l4-.16a8.61,8.61,0,0,1,1.32-.54l2.51.54c1.12,0,1.83-.61,3.15-.61a15.15,15.15,0,0,1,3.25.07c1.12.31.67,2.13,1,3.1.34,1.15,2.68,2.71,4.89,2.71a12.31,12.31,0,0,1,2.47.16c-.63.31-1.16,1-2.14,1.15A4.52,4.52,0,0,1,298,300a4.14,4.14,0,0,0-1.74.23c1,1.17.88,3.57,4.37,3.57,2.91,0,4.57-2.63,6.6-3.64h.88c-.17.3-1.15.85-1.28,1.08-.59,1,0,1.93-.73,3.18-.56,1-1.18,1.17-1.82,2.2l-.06-.05c-.13.22-.33.87-.46,1.1-.85,1.47-.48,3-.66,4.48-.2,1.69.44,4.28.34,5.43a4.64,4.64,0,0,0,0,2.48c.4.92-.76,1.94-.52,3.17.12.62,1.29,1.43,1.19,2.48-.13,1.57.31,3.19.25,5,0,.22.05.77.64.77-.17.54.37.85,1.35.78s1.59-.94,2.39-1.55c1-.77,1.1-.48,2.76-.94,1.11-.31,1.85-2.32,3.67-2.63.39-.07,1.21-.07,1.33-.31l.63-.08c.19-.8.29-1.21.49-2,.79-1.46,2.85-2.7,3.88-4.63.66-1.25.25-2,1-3.41.87-1.63,3.41-1.86,5.72-2.33a20.3,20.3,0,0,0,3.87-1.71c2.92-1.47,5.77-3,8.83-4.56,2.44-1.23,5.91-1.62,8.62-3,1.36-.69,1.67-1.55,2.63-2.64.69-.68,3.07-.77,4.42-1.93.7.39.52.77,2.31.77,2.91,0,6.25-.46,7.33-2.79,1.56.24,3.24.7,3.19,1.79,0,.92-.74,2.18-.3,3.1a7.36,7.36,0,0,0,2.61,2.47,10.64,10.64,0,0,1,1.46,4.11c-.06.38.41.62.24,1-.37.86-1.15,1.32-1.59,2.33s-.74,1.93,1,1.93c3.22,0,5-2.25,7.5-3.56.49.46,0,.78.49,1.24.16.16,1.16,0,1.33.39.67,1.16-2.27,3.48-.77,3.48-1,2.49,1.15,4.49-.26,7.9-.35.85-2,2.62-1.22,2.94h-.59a13.54,13.54,0,0,0-1.8,2.94c-.06.16-.43.47-.19.47.88.46.36,0,1.53,0,1.91,0,1.62,2.8,2,3.87.61,1.75.14,3.46.36,5.65.25,2.51,2.8,4.88,6.28,5.66.67.15.58.69,1.8.69.38,0,.61-.31,1-.31s.62,0,1.61-.07a11.27,11.27,0,0,1-.23-2.25c-.12-.91-1.78-1.4-1.25-2.79.27-.69.75-.69,1.05-1.47,1.47-3.87-5.41-4.36-7.79-6.43-.62-.54-.17-1.94-.42-2.48h.22c.91-2.25-3.48-1.32-2.5-3.72.86-2.09,4.51-2.7,5.45-5,.26-.62-.15-.77.13-1.47.15-.38.11-.85,1-.85,1.28,0,2.61.15,2.62,1,0,0-.05,1,.19,1,1.69.39,3.31.47,4.51,1.54s-.69,2.1,1.9,2.1c-.44,1.17,1.77,1.54,3.52,1.54,0,.4,0,1,.39,1.17-.53.16-.64.46-.88,1.08s-.1,1.56.38,1.56,3.26-1.16,3.54-1.94c.12-.33.18-.5.3-.81-.09.24-.23.66.12.66,1.41,0,1.62-1.25,3.21-1.72,3.41-1,4.07-1.85,8-2.47.48-1.39,2.12-2.09,2.74-3.87.88-2.56.18-6-2.12-7.2s-2.85-3.29-4.8-5c-.34-.3-.86-.46-.6-1.15,1.22-3.33,6.94-3.88,10-6.28,1.69.62,3.19.16,5.08.86-.23.39-1.11,1.93-.1,1.93,1.23,0,.91-1,2-1.62.95-.54,3.27-.78,4.27-1.09,2.34-.71,4.38-.38,6-1.31a12.5,12.5,0,0,1,1.81-1.48c1.11,0,1.47.63,2.58.63,5.13,0,7-2.17,10.46-3.42a3.09,3.09,0,0,0,2.06-1.39c2.64,0,4.21-2.88,5.61-4.33.91-.94,4.7-4,6.39-4.26.46-1.7,2.28-2.48,2.87-4.72.88-3.34.08-4.58-1.19-6.66-.22-.38,0-1.32-.81-1.71l.14-.07h-.22s.23-1.25.29-1.47c-.82-.08-2.59-.86-2.29-1.94s2.06-1,2.74-1.94c1.51-2.08,6-2.08,8.43-3.64-.31-.44-.95-.42-1.67-.4a3.71,3.71,0,0,1-2-.3c-.63-.3-.87-.92-2-.92-.82,0-1.29,1.7-1.91,1.7a5.92,5.92,0,0,1-2.63-.16c-1.06-.59-.45-1.39-1.47-2.09-.34-.23-2-.54-1.78-1.31.47-1.63,3.29-1.09,4.93-1.86a28.57,28.57,0,0,0,5.18-2.86,2.72,2.72,0,0,1,1.89-1c.81,0,1.66,1,1.54,1.46-.33,1.25-2.41,1.79-2.78,3.19,2.85,0,5.79-2.33,9.06-2.33,1.22,0,1.52.85,3.06.85-.7.78-.19.78-.42,1.71-.18.77-1.3.69-1.52,1.62-.1.39,0,1.31.7,1.31a8.44,8.44,0,0,1,1.54-.37c1.24,0,2.63.62,2.42,1.54-.13.54-1.06,1-1.89,1-.08.31-.12.47-.19.78a1.31,1.31,0,0,0,.91.53c-.11.47.32.86.21,1.32-.05.23-1.22,1.23-1.35,1.79-.07.3-.16.69.35.76-.2.4-.78.63-.87,1h1.58a4.67,4.67,0,0,1,2.24-.71c.15-.69,2.79-.77,3.46-.92,1.53-.31,2.34-1.16,2.73-2.94.65-3-.51-4.81-2.38-6.51-.77-.7-1.64-1.39-1.13-2.71a6.29,6.29,0,0,0,3.31-1.16c.83-.54,2.83-1.32,3.36-1.94a17,17,0,0,1,5.53-4.8h0a40.7,40.7,0,0,0,6.86.78c5.71,0,12.65-9.32,17-12.43a17.24,17.24,0,0,0,5.14-5.77c1-2.24.1-3.69,1.88-5.84a9.58,9.58,0,0,0,2.25-4.26c.29-2.09-3.15-6.17-5.17-5-6,3.45-8-1.85-7.94-2.31.37-2.18,5.72-4.58,7.87-6.2,3.19-2.4,7.47-6.46,11.41-7.36,3.46-.79,14.15-1.54,17.08-1.54,3.63,0,5.21,1.54,7.43,1.54h4.91c1.72-5.1,4.48-8.13,10.51-8.13a22.62,22.62,0,0,1,5.24,0c-1.51,1-2,7.72,7.41-2.7,1-.17,5.58,1.51-1.31,5.42-2.4,1.35-4.57.7-6.19,2.7-1.89,2.33-3.69,5.29-6.42,6.59-2.28,1.08-5.54,2.86-5.7,6.19-.13,2.86.56,12.23,3.14,13.94,2-2.33,3.42-6.58,7.25-7.36-.43-2.17,3.74-2.63,3.76-4.25,0-2.56,3.23-3.26,3.23-4.65,0-.93-.86-1.88,0-3.48,5.37-9.85,10.36-8.49,13.64-7.14a8.38,8.38,0,0,0,2.8.94c7.46-.35,12.51-8.28,19.6-8.9,11.92-1,2.17-4.57,2-5.81-.32-3.34,4.65-2.8,5.45-4.65.34-.77-.7-2.71,1-2.71,5.27,0,10.56,6.59,14.4,6.59,1.71,0,1.6-2.88,2.36-3.88,1.19-1.54,2.57-1.39,4.71-2.09-3.66-3.72-13.83-5.76-18.67-8.36a60.94,60.94,0,0,0-25-7.35c-2.4-.15-4.33.51-3.94,1.54,1.89,5-.37,3.32-2.55,1.66-1.11-.84-2.2-1.69-2.71-1.66L589,162.57c-1-4-3.63-5.43-9-5.43-2.94,0-7.46,1.08-9.1-.38-1.48-1.32-1.45-3.17-3.65-3.88a49.73,49.73,0,0,0-15.74-2.7c-6.07,0-7.38,3.17-8.32,6.19H530.48c-2.23,0-2.19-1.78-4.77-1.94-.46,1.09-1.41,3.49-2.68,3.49-3.35,0-3.89-4-3.41-6.2.12-.54,7.11-4.45-8.35-5.8-1.94-.17-3.25.69-3.87,3.09h-8.53c-2.36-.69-15.26-2.25-16-5-12.8,8.29-8.9,3.1-8.9,3.1,3.05-1.64,27.43-11.27,11.24-13.94h-7.78c.05-2.17-.79-4.26-3.93-4.26-3.81,0-6.53,3-9.17,4.64"/><path class="cls-2" d="M631.06,157.53a.87.87,0,0,0,.87.77c.87,0,7.12-.39,7-1.4S635.7,155,634.51,155s-3.57,1.4-3.45,2.56"/><path class="cls-2" d="M607.08,161.4a2.91,2.91,0,0,0,2.48,1.7.81.81,0,0,0,.78-.77c0-.47-.51-.62-.6-.93Z"/><path class="cls-2" d="M536.52,137.94c-.08.46.12.62.49.62.55,0,.75-.57.91-1l0,0v0l0-.13h-.15l-.49-.62a2.36,2.36,0,0,0-.81,1.16"/><path class="cls-2" d="M484.2,143.59c-.23.69.54.93,1.38.93a4,4,0,0,0,1.75-.47,1.14,1.14,0,0,0,.31-.46c.29-.93-.32-1.16-1.38-1.16a2.19,2.19,0,0,0-2.06,1.16"/><path class="cls-2" d="M487.33,144.05a5.9,5.9,0,0,1-.61.47l.79-.54Z"/><path class="cls-2" d="M473.27,120c-2.84,0-4.6,2.87-7,4.65-.62.47-1.49.47-2,1.7-.31.78-.26,1.16.62,1.16l4.31-1.16s2.4-.39,2.69-.39c1.21.24,5.09-.07,5.78-1.93.4-1.09-1.78-3.1-2.77-3.1-.5,0-1,.62-1.59.77.82-.61.45-.61.87-1.7Z"/><path class="cls-2" d="M451.05,117c-.32.7.1,1.94.52,1.94.85,0,3.26-.16,4-1.55a21.49,21.49,0,0,0-2.29-1.16c-.42,0-1.89,0-2.25.77"/><path class="cls-2" d="M453.52,115a6.55,6.55,0,0,0,4.39,1.63c.42,0,2.18.14,2.88.14-2.58.78-3.66,1.63-6.38,2.48.78.62,1.68,2.79,2.54,2.79,2.57,0,4.27,1.4,7.44,1.4a2.26,2.26,0,0,0,1.9-1.16c.22-.54-.25-.78-.69-.94.49-.15,1.53-.23,1.84-1s.24-.93,1.19-1.55c-.51-1-.29-1.54-1.7-1.54h-1.41c-.84,0-.94-.78-1.79-.78-.56,0-.67-.23-1.47,0a4.54,4.54,0,0,0,1.93-1.4,12.25,12.25,0,0,0,.66-1.55c.24.08,0,.23.87-.07-.73-.93-.94-3-2.87-3-3.31,0-6,3.64-9.33,4.57"/><path class="cls-2" d="M454.89,131a11.75,11.75,0,0,1-1.44.77c-.09.39,0,.78.41.78.89,0,1.52-.47,2.14-1.55Z"/><path class="cls-2" d="M452.19,110.84c-.06,1,1.37.77,2.48.61,0-.24,0-.37.07-.61Z"/><path class="cls-2" d="M480.82,125.9a5.73,5.73,0,0,0-1.56.11,1,1,0,0,0,1.12.93c.51,0,1.09-.61,1.36-1.16a1.72,1.72,0,0,1-.92.12"/><path class="cls-2" d="M370.21,115.4l-.23.32.95-.63a4.44,4.44,0,0,1-.72.31"/><path class="cls-2" d="M369.31,113.77c-1.33,0-1.57-1-3.3-1-1.45,0-4.89.23-6.47,1.47a6.44,6.44,0,0,0,1.31.31c1,0,3.13-1,3.89-1s.63.47,1.08.7c-.58.31-1,.47-1.56.7a3.17,3.17,0,0,0,1.14.15,11,11,0,0,0-1.93.63c-.31.69.22.92,1.27.92h-.06c0,.31-.1.7.2.78.58.07,1.75-1.32,2.66-1.7a2.38,2.38,0,0,1,1.49-.22,2.11,2.11,0,0,0,1.18-.1l.34-.46a1.18,1.18,0,0,0,.7,0c1.34-.7,1.75,0,2.89-1.4-.31-.15-.7-.77-1.53-.77-1,0-2.26,1-3.3,1"/><path class="cls-2" d="M397.62,112c-.5.77-.41,1.16.44,1.16a20.24,20.24,0,0,0,4.31-1c.23-1,.35-1.49.59-2.47-1,0-4.65,1.24-5.34,2.32"/><path class="cls-2" d="M392.56,112a8.49,8.49,0,0,0-.66,1,5,5,0,0,0-2.78,2.09c-.25.39,3.28.24,3.85,0,.1-.37.15-.55.26-.92.62,0,1.12.31,2-.39a11.53,11.53,0,0,0,.75-1.16,7.09,7.09,0,0,1-2.22,0,2.35,2.35,0,0,0,1.1-.62Z"/><path class="cls-2" d="M381.17,116.49c-.21.31,0,.54.32.54a1.63,1.63,0,0,0,1.59-.77c.42,0,.46.77.88.77,1,0,1.7-1.16,3.1-1.16,0-.54-.43-.93-1.34-.93-.7,0-3.81.47-4.55,1.55"/><path class="cls-2" d="M389.76,109.28c-2,0-3.12,1.56-5.19,1.56l-.7,1c1-.47.52-.16,1.07.15H382c-.57.3-.82.46-1.5.85a9.88,9.88,0,0,0,2.47,1.47c.83,0,2.58-.93,3.41-.93a4.13,4.13,0,0,0,2.3-.31,6.4,6.4,0,0,0-3.17-1.16c1.22-.77,2.92-1.24,4.54-2a3.89,3.89,0,0,1,1.29-1c.16-.24.56-.94.42-.94a3.29,3.29,0,0,0-2,1.32"/><path class="cls-2" d="M299.09,118.42a13.85,13.85,0,0,0-2.36,3.41c-1.13-.7,1.93-3.41,0-3.41a4.33,4.33,0,0,0-2.45,1.32,1.63,1.63,0,0,0-.51.8c-.14-.35-.67-.42-.77-1,.58-.4,1.09-.62,1.89-1.09a12.22,12.22,0,0,0-3.24-.31,19.29,19.29,0,0,0-4.28,1.86c0,.54-.53,1.86,0,1.86.22,0,.14.23.27.31-1.48,1.24-1,1.86-.45,2.55a2.68,2.68,0,0,0-.73.17c-.39.77,0,1.23,1.13,1.23,1.52,0,3.14-1.71,4.15-2.09h.59c.07.23.27.69.42.69h1.87a37.83,37.83,0,0,1-5.52,1.94c-.44.08-2.1.08-2.77.77-1.78,1.86.93,1,1.81,1,.51,0,2.77.08,2.92.39a9.29,9.29,0,0,0-3,.62,11.11,11.11,0,0,0-2.63-.08c-2.51,2.64.52,3.64,1.14,4.88,2.06-1.08,3.93-3.25,6.11-4.26.65-.31,1.1-.16,1.68-.62,2.57-2,6.53-5.42,9-5.42,0,0-.34,1,.67,1.17a7.21,7.21,0,0,0-1.14.14c-.28.62-.89,2-.53,2.17-1.19,1.16-1.64.78-3.06,2.17.88.08,2.49,0,3.23.15a4.58,4.58,0,0,0-1.33,1.4c2.4-.62,4.37-1.93,7-2.63.23-1-2.42-.39-.28-2.79h-2.31a3,3,0,0,0,1-1.16,2.55,2.55,0,0,1-1.29,0,2.93,2.93,0,0,0,.79-.08c.11-.93-1.56-3.25-2.78-3.25-.21,0-.42-.08-.63-.08.71-.62,2-1.86.85-1.86-.56,0-1.35.7-2.2,1,.51-.53,1.14-1,1.65-1.54.71-.77-.47-1.54-1.38-1.54a2.72,2.72,0,0,0-2.5,1.15"/><path class="cls-2" d="M316.92,114.71c-.63.31-2.52,1.78-3.36,1.78a2.66,2.66,0,0,1-1.4-1.55h-2l-.37.77h-1.19l-.35.39c-.64.23-1.06.07-1.19-.23h-1.06a2.07,2.07,0,0,0-.66,1.86c-1.79,1.78.49.85,1.69.85.14,0,2.82.23,3.11.23-.5.16-1.28.16-2.12.38a12.36,12.36,0,0,0-1.49.08c-.49.62-.65,1-.22,1.24h4.06c-.34.93,0,1.4,1.24,1.4,2.07,0,8-2.72,10.81-4a1.4,1.4,0,0,0-1.34-2.09h-2.31c-1.06,0-2.17.77-2.8.77a19.51,19.51,0,0,1,1.73-1.93Z"/><path class="cls-2" d="M283.89,126.16c1.1-1.65.48-2,.76-3.22-1.78.73-1.79,2.86-.76,3.22"/><path class="cls-2" d="M284.66,122.94v.13l.22-.23a1.07,1.07,0,0,0-.22.1"/><polygon class="cls-2" points="284.65 122.94 284.66 122.94 284.67 122.83 284.65 122.94"/><path class="cls-2" d="M149.27,213.74a11.59,11.59,0,0,0-4.37,1.47,1.59,1.59,0,0,0-.54,1,13.83,13.83,0,0,1-3.63.85c-.27,0-.85-.15-2,.85-.85.78-.52,1.24,0,1.63-2.42,1.86-4.94,2-7.08,3.94-1,.94-.74,1.78.4,1.78a7.13,7.13,0,0,0,2.13-.3c1.18-.38,3.75-1.71,5.27-1.71a6.45,6.45,0,0,0,2.87-.38c1.41-.62,1.77-1.56,2.44-2.17l2.84-2.63c.67-.62,2.26-.54,2.93-1.17,1.43-1.32,2.41-3.17.29-3.17Z"/><path class="cls-2" d="M160,204.76c-.34.31-.75.93-.48.93a7,7,0,0,0,3.64-1.77,7.11,7.11,0,0,0-3.16.84"/><path class="cls-2" d="M168.27,203a6.24,6.24,0,0,0-2.52,1c-.42.4-1.11.7-1.77,1.32a3.69,3.69,0,0,0-2.27.93.34.34,0,0,0-.05.47,2.3,2.3,0,0,1-.86.45c-.17,0-.39-.22.11-.68h-1.44c-1.09,1-.62,1.23.49,1.47l-.67.61a14.91,14.91,0,0,0-1.72,1c-.34.31.23.54.69.62l-.74.69a2.46,2.46,0,0,0-1,.55l-1.34,1.24H156c.15-.31.12-.54,1.25-1.17.11.16.41.39,1.15.39-.94.62-.84.78-1.58,1.48s-2,1-2.67,1.62,0,.62.82.62,1.61-.38,2.53-.38c.28,0,.48.07.76.07a7.54,7.54,0,0,0-1.8,1.08c-.83.78.29.94,1.33.85l-1.24,1.17a14.17,14.17,0,0,1-5.77,1.46c-.91.86-.57,1.25-1.65,2.26s-4,1.24-5.21,2.4c-.17.15-.14.38.05.38.48,0,.8-.38,1.37-.38,1,0,.42.93,1.65.93a6.05,6.05,0,0,0,2.53-.78c-.16.15-.22.39-.38.55-1.15,1.08-2.65.7-4.3,1-.37.08-5.88,2.56-6.41,2.87l-.5.46h.67a5.2,5.2,0,0,1,2-.61h1.33a5.12,5.12,0,0,1,2.93-1.32c.67,0,.56.46,1.23.46,1.42,0,4.73-.69,5.68-.69h3.81a10,10,0,0,0,3.87-1.17l.55-.53a4.42,4.42,0,0,1-1.57-.32c1.8-1,4.79-1.7,6.23-3.09.79-.77.66-1.47-.45-1.47a2.61,2.61,0,0,0-1.55.3l.79-.3a13.46,13.46,0,0,1-1.68.54l.56-.54a2.38,2.38,0,0,0,1-.55c.63-.61,0-1,.67-1.63,1.93-1.85.09-2.4-.09-3.64-.14-.92,2.09-2.78.85-3.25a3,3,0,0,0-.9,0,2.58,2.58,0,0,1-1.14-.06,3.53,3.53,0,0,1,1.4-.61c1.73-1.64,5.51-2.56,7.45-4.73h-5.34a1.19,1.19,0,0,1,.4-.62c1.41-1.08,3.23-.93,4.38-2,.16-.16.2-.71-.15-.71Z"/><path class="cls-2" d="M153.68,216.68a3.8,3.8,0,0,0-1.65.94h1c.41-.39.84-.7,1.09-.94Z"/><path class="cls-2" d="M154.92,175.8c-.67,0-1.86.85-2.52.85l-.73.62c-.24-.23-.48-.38-1.5-.15-.85.85,1.25,1.7,2.26,1.7-.28.23-.46.46-.39.62a30.52,30.52,0,0,1-5.23.7c-.05.45.76.37,1.62.29a5,5,0,0,1,1.66,0c-1.18.85-2,1.31-3.18,2.32a6.18,6.18,0,0,0-1.22.38c1.88,0,1.27,1.09,2.1,1.4a12.12,12.12,0,0,0,6.09,1.4c2.92,0,6.07-1.34,8.82-1.94a34.43,34.43,0,0,0,7-2.79l.34-.16c2.44-2.16-1.29-1.62,1.25-3.86a5.05,5.05,0,0,1,1.31-.7c-.75,0-1.71.39-2.46.39s-1.42-.08-.35-1c-.6.23-.51.16-.92,0a9.47,9.47,0,0,0-1.66,1.16c0-.7-2,.23-3.12.23-.76,0-1.16-.23-2.42-.23a9.17,9.17,0,0,0-.9.77c-.16-.15-.06-.39-.55-.54l-2.56.47c-.51,0-.3-.39-.27-.7a3,3,0,0,0-1.19,1,15.56,15.56,0,0,1-2.06.46c-.59,0-.16-1,.57-1.55.46-.46.41-.69.88-1.16Z"/><path class="cls-2" d="M540.47,138.16a3.1,3.1,0,0,0,3.21,3.5c.76,0,1.24-.7,1.84-1.17a1.32,1.32,0,0,0,1.25.77c.76,0,1.3-.62,1.76-.62.61,0,1-.54,1.59-.54s.72.78,1.26.78c.9,0,1.39-.78,2-.78h2c.08-.62,1.23-1.47,1.65-2.55-1.51-.46-5.71-2.09-7-2.09-.89,0-1.4.93-1.56,2.09-2,0-1.82-2.48-4.12-2.48a4.14,4.14,0,0,0-3.86,3.09"/><path class="cls-2" d="M158.67,262.45c-1.44,0-1.4-1-4.3-.24l-.53.55c-.06.38.84.3,1.07.38,1.28.39,1.37,1.71,2.84,2-.22.23.22.31.53.31a2.2,2.2,0,0,0,1.14-.54c.58-.62.14-.7.66-1.24a7.07,7.07,0,0,1,1.32-.85l1.27-.9a3.41,3.41,0,0,0-.55-.05c-1.14,0-2.29.56-3.45.56"/><path class="cls-2" d="M155.77,250.14c-.2,0-.66.15-.86.15-.1.61-2,2.87-1.16,3,.76-.46,2.73-2.17,3.95-3.09-.23-.08.05-.47.43-.86-.57.08-1.66.78-2.36.78"/><path class="cls-2" d="M149.69,254.87c-.5.6,0,1-.6,1.62s-1.41.93-2.13,1.55-1.61,1.62-.58,1.62a10.48,10.48,0,0,0,4.81-2.18c1.22-1.23,2.16-1.93,2.48-3.16-.31,0-.16-.46-.86-.46-.91,0-1.77.77-3.12,1"/><path class="cls-2" d="M130.27,257.89c0,.07.21.69.62.69a2.29,2.29,0,0,0,1.21-.39c.24-.23.2-.7.36-.85a12.73,12.73,0,0,0-2.19.55"/><path class="cls-2" d="M195.51,212.81l-.75.77c-.77.79,0,1,1.13,1l-.6.61c.47-.39.5-.23,1.1-.84.76-.79,0-.63.87-1.56Z"/><path class="cls-2" d="M198.28,212.9c-.45.46,0,1.07.74,1.23a4.89,4.89,0,0,1-2.28,1c.06-.13.08-.19.13-.31a5.52,5.52,0,0,0-.85.39.83.83,0,0,0,.86.46c2,0,3.91-2.71,5.85-3.1.8-1.31,1.38-2-.45-2-.63,0-3.69,2-4,2.33"/><path class="cls-2" d="M222.19,206.85c-.36.39-.93.7-.94,1a11.71,11.71,0,0,0,3.15-1.93,10.42,10.42,0,0,1,1.65-1,6.9,6.9,0,0,0-3.86,1.94"/><path class="cls-2" d="M237.41,201.81c-.35.4-.21.63-.21.94-.8.08-1.76.54-2.53.61-.43.47-1,1.18-.16,1.18a7.13,7.13,0,0,0,2.22-.78l.84-.93a6.71,6.71,0,0,0,1.62-1c-.21-.15-.26-.3-.29-.77a5.51,5.51,0,0,0-1.49.77"/><path class="cls-2" d="M181.85,269a8.51,8.51,0,0,0,3.42.62,4.92,4.92,0,0,0,2.76-.15,16.46,16.46,0,0,0-4.3-.58,15.37,15.37,0,0,0-1.88.11"/><path class="cls-2" d="M206.53,269.57a.24.24,0,0,0,.19.39c-.19.23.09.39.41.39a11.07,11.07,0,0,0,4-.85c.29-.25.45-.7.84-.78.82-.23,1.08.08,1.93-.69a61.94,61.94,0,0,0-7.34,1.54"/><path class="cls-2" d="M231,323c-.14.38.55.54.9.54a6.35,6.35,0,0,0,2.74-.92A16.68,16.68,0,0,0,231,323"/><path class="cls-2" d="M330.9,164.65a13.4,13.4,0,0,0-2.36,1.78c-.58.78-.22.93.78.93a14,14,0,0,0,4.37-1.31c.29-.41.44-.61.74-1-1-.15-.87-1.16-2-1.16-.41,0-1.13.77-1.53.77"/><path class="cls-2" d="M356.34,161.4c-.62.93.48,1.94,1.54,1.94,0,0,.95.15,1.31-.4.72-1.09-.48-2.18-1.62-2.18a1.45,1.45,0,0,0-1.23.64"/><path class="cls-2" d="M390.09,149c-.14.23-.68.78-.46.78a11.82,11.82,0,0,0,3.6-.86c-.4-.62-.12-1.48-1.05-1.48a3.3,3.3,0,0,0-2.09,1.56"/><path class="cls-2" d="M545.64,147.46l.44-.39c1.39.55,3.19.39,4.48,1.16h2.32c.14-1.78-1.23-3.09-3.22-3.09-1.77,0-2.92,1.09-4,2.32"/><path class="cls-2" d="M561.23,138.55c-.2,1.94,3.28,2.87,5.25,2.87,1.22,0,3.44-.31,3.5-1.16a.7.7,0,0,0-.69-.78c-.29,0-8.12-1-8.74-1.54l.68.61"/><path class="cls-2" d="M546,144.13c-.1.7-.08,1,.77,1a1.31,1.31,0,0,0,1.29-1c.08-.56-.43-.87-1-.87a1,1,0,0,0-1.1.87"/><path class="cls-2" d="M961.27,302.4h1a7.2,7.2,0,0,1,4.88-1.86,3.58,3.58,0,0,1,1.74.24c-.16.23,0,.54.87.86H973c1.57,0,3.23,1.15,4.8,1.15a6.49,6.49,0,0,1,2.42.08c.56.15.87.69,1.77.69,1.23,1.17,3,1.09,5.09,1.63.19.38,0,.7-.59.7l.37.46c2.14,0,4.37.54,7,.54,1.36,0,3.5,0,3.55-.93-1-.23-2.4-1.31-3.82-1.55l-1.75-.07c-.23-.15-.3-.39-.43-.55a23.07,23.07,0,0,1-8.48-1.93,8.72,8.72,0,0,0-2.61-.93c-3.68,0-7.51-1.94-12.4-1.94s-6.37,1.32-6.63,3.41"/><path class="cls-2" d="M966.53,301.94l.4.54c-.34,0-.9.15-.49.7.11.15,1.45,0,1.56,0,0-.39-.46-.78-.86-1.17l-.38-.07Z"/><path class="cls-2" d="M988.62,310.23a4.09,4.09,0,0,0,2.72,1.15,22.32,22.32,0,0,0,3.4-.46,3.07,3.07,0,0,0-1.57-.69l.35.15a24.79,24.79,0,0,0-4.12-.62c-.46,0-1,.16-.78.47"/><path class="cls-2" d="M1024.34,310.07c.65.78,2.2.85,3.57.85.68,0,1.48,0,1.42-.46a15.69,15.69,0,0,0-4.14-.86c-.35,0-1.19.07-.85.47"/><path class="cls-2" d="M1001.75,306.9a3.49,3.49,0,0,0,2.16.85,5.23,5.23,0,0,0,2.11,1.62c-1,.47-2.44.07-5,.07-.05.09-.09.31-.32.31A4.63,4.63,0,0,0,1003,311c-.18-.22-.19-.38-.39-.62.77.24.58,0,1.37,0,1.37,0,3.91-.23,5.32.24.76.23,1.15,1,2.18,1,1.25,0,0-1.39,1.48-1.39.57,0,.78.39,1.46.39s1-.31,1.54-.62h4.2a37.28,37.28,0,0,0-4.48-1.71l.82.32c-2.61-.7-4.39-2-8-2-1.24,0-1.67.31-3.13.31-1,0-2.14-.54-3.16-.54-.34,0-.66.31-.47.55"/><path class="cls-2" d="M1058.73,327.49c-.71,0-.73.78,0,1.55.2.23.71,0,1.06,0,.71,0,.57-.69.52-1l-.48-.54Z"/><path class="cls-2" d="M1118.6,350.87c-1.48,0-1.73.78-.61,1.94.66.7,5.21,2.09,7,2.09,1.5,0,1.63-1.78,1-2.48a3.4,3.4,0,0,0-1.54-.69c-.61,0-.9.85-2.12-.15a12.76,12.76,0,0,1-3.25-.71c.07.07-.37,0-.49,0"/><path class="cls-2" d="M1116,452.85l.81,1a5,5,0,0,0,2.48,1.08h1.31l-1.87-2.33c0-.23.27-.39-.11-.85a3.46,3.46,0,0,0-2.74-1.24c-.88,0,.12,2.32.12,2.32"/><path class="cls-2" d="M830.28,157.29c-.8.23-2.23,0-1.46,1.16.51.78,1.4,1.16,1.91,1.94s-.58.7.13,1.78c1.67,2.56,6.15,1,7.91,3.64a16.89,16.89,0,0,1,.9,2.32c.37-.3.75-.46,1.2-.77,3.21,3.18-3.25,1.62-.75,5.42-2.26.68-1.81-1.86-3-2.71a12,12,0,0,0-4.31-.93c-1.47,0-1.5.85-.45,2.48-1.51-.16-2.32,0-7,0-4.47,0-10.56-1.47-13.51-4.64-1.24.38-6.1.45-5.12,2.16a1.7,1.7,0,0,0,1.53.84,6.61,6.61,0,0,0,3.75-1.22c1.84,2.54-3.59.46-2.06,3.09.31.54,2.27,2.32,1.85,2.32-1.66,0-3.12-1.93-4.87-2.55l-1.56-.55H800c-1.65,0-2.38.62-4.16.7-3.19.13-3.8-1-3.93-1.22-.37-.69,2.31-.4,2.55-.87-3.92-3-3.23-2.51-7.72-2.17-4.78.37-9.2-3.48-14.13-3.48-1.54,0-1.7,1-3,1-.9,0-2.5-1.48-2.95-2.1-1.38.32-.58,2-2.21,2s-5.32-3.48-5.8-3.48c-1.61,0,0,2.23-1.73,2.23a2.81,2.81,0,0,1-1.94-1.07,23.27,23.27,0,0,0-5,1.54c-.83.16-2.33,1.64-3.3,1-2.92-1.89-1.55.52-2.31.54-5.19.16-.81,2-1.54,2a24.11,24.11,0,0,1-10-2.32,6.53,6.53,0,0,1-1.52-1c-.44.32-.1.17-1,0q6.24,16.77,12.49,33.53h0q-6.23-16.73-12.47-33.45c-2.25-.61-3.32-1.55-5.66-1.55-1.45,0-2.15.54-3.61.54-2.5,0-7.65-.38-9.75-1.93h-6.2a25.92,25.92,0,0,1-2.87-1.55h-4c-.79-.23-1.1-.46-2.06-.77a1.52,1.52,0,0,1-1.72,1,4.57,4.57,0,0,1,.44-1c-1.12-.31-1.75-1.17-2.79-1.17-1.35,0-1.71,1.72-2.86,2.17a3.06,3.06,0,0,1-1.52.11,3.33,3.33,0,0,0-1.4,0,16,16,0,0,0-8.6,7.35h-4.5c0,.24-.77,2.17-.77,2.17.11.55,3.63,1.16,4.73,1.71.93.46,2.45,2.79,3.18,3.09,2.67,1.09,4.47,1.24,5.9,3.72a8,8,0,0,1-2.35,0c-1.77,0-3,.7-3.53-1.78H679c-1.73,1.24-5,2.24-6.85,3.4a3.19,3.19,0,0,0,2.8,1.25,2,2,0,0,0-.1.77c.15.7,1.23,1,1.56,2.16H681c1.23-.23,2,.55,3.73.55s2-1.32,3.36-1.32a6.55,6.55,0,0,1,1.27,0c.12.47.18.7.29,1.17-.67-.32-.52-.4-1.26.07.14.23,1.77,1.32,1.91,1.86.24,1-5.14,3.1-5.92,3.1-1.82,0-6.09,1.94-5.6,4.25.27,1.25,3.16,1.63,4.24,3.34-.43,0-.83.23-1.27.23.77.7,5.6,3.56,6.76,3.56.35,0,.76-1.31,1.47-1.31s.94.93,1,1.16l.37,1.55c.15.61.82,1.94,1.36,1.94.36,0,.66-.62,1.21-.62H695a2.73,2.73,0,0,1-.2-1.17,18.36,18.36,0,0,0,4.86,2.17,4.78,4.78,0,0,1,.27-1.4,9.09,9.09,0,0,0,2.59.62c1.35,0,1.83-.54,3-1h1.35c-1.83,1.16-1.22,3.48-3,4.64s-5.07,2.59-6.2,4.26c-.79,1.16-2.75.39-4.13,1.17-.9.46-1.38,2-2.35,2.55-1.39.76-3.3.15-4.09,1.63,4.11.92,5.23-2.33,8.44-2.79,2.6-.31,5.7-1.16,6.77-2.32s4-2,5-3.49c.51-.77.67-1.54,1.73-1.93,1.87-.69,3.69-1.32,3.17-3.1-.14-.46-.2-.7-.34-1.16-.74-2.55,3.83-6.82,6-6.82h1.06c.07.24.08.55.15.77-2.34.7-3.27,2-2.76,3.73.12.39-.23.39.37.93-.15.07-.66.15-.52.62.09.31.7.55,1.06.55,2.06,0,6.89-2.8,7.54-4.34a3.75,3.75,0,0,1-1.24-1.09c.67-.4,2.3-.78,3.23-1.16,2.4,2.71,6.42,3,9.65,3.87h4.9c3.14,1.31,6.16,1.23,9,2.72,1.34.68,3.49,2.93,5.38,2.93.72,0,.77-.77.8-1.38a5.48,5.48,0,0,0,3.17,1.14c.14-.53,1.23.17,1.84.55-.11.39-.62.7-.23,1.63a3.37,3.37,0,0,0,1.84,1.16c1.18,0,.34-.93,2-1l.42,1c.26.62-1.07.69-.81,1.31a2.18,2.18,0,0,0,2.12,1.17c1.65,0,2.75,0,3.24,1.16l.5,1.16c.36.85,3.3,2.32,4.88,2.32.46,0,.43-.08.89-.08-.24-.54,1-.69.61-1.54-.66-1.48-3.27-2.54-3.27-2.54s2.61,1.06,3.27,2.54c.38.85-.85,1-.61,1.54s.83.63,1,1.08c.44,1,1,3.1,2.43,3.42a6.24,6.24,0,0,1,2.33.61c1.16.7.58,1.72,2,2.33a29.8,29.8,0,0,1,3.21,1.47c1.47,1.78,2.63,3.87,5.87,3.87,1.2,1.56,4.07.54,5.78,2.56.67.77,3.14.93,4.48,1.7a9.09,9.09,0,0,0,1.29.47h0c.76.77,1.75,1,2.12,1.78a2.5,2.5,0,0,1-.34,2.09,5.33,5.33,0,0,0-3.45-1.31c-.39,0-1.42.07-1.2.53.81,1.7,3.58,2.4,4.4,4.1,1.16,2.41.66,6.8,2.49,8.68s2.19,4.81,4.13,6.51c-.47.3-1.14.8-.32,1.47,2.84,2.3,6.77,5.73,9.05,6,1,3.17,4.43,4.1,7.21,6.81.63.61.75,1.48,1.7,1.71,4.31,1.05,10.54,2.71,13.35,5h-.21l.28.54c1.68,1.79,2.89,2.25,4.59,3.64,1.13.93,2.21,3.09,3.8,3.68a41,41,0,0,1,7.52,4.16c1.48,1-1.25.68-1.79.68,1.72,1.16,4,.93,6.12,2,1.52.77,2.87,1.62,4.55,2.47.45.81.68,1.21,1.12,2a5,5,0,0,0,1.51.69c1.51.54,3.62,2.38,5.61,2.38a14.81,14.81,0,0,0,2.77,1.65c.33,0,.33-.77.11-1.16-.36-.62-2.43-1.93-3-1.32-2.52-.93-4.32-2.94-6.24-4.8-1.68-1.63-4.36-2.48-6.1-4.26a12.72,12.72,0,0,0-4-3.17c-1.5-.78-2.92-.79-4.31-1.94-1.57-1.32-3.18-2.32-4-3.94-.13-.24-.48-.71-.33-1,1.93,1,3.61.91,5.76,1.55,1,.3,1.75,2,3.11,2.71s1.75,2,3.11,2.71c1.66.85,3.23,1.7,5.21,2.7.2-.22.13-.15,1.19,0,1.06,1.86,4.58,2,6.32,3.41,1,.83.72,1.63,1.94,2.25,1.55.77,3.5,1.08,5.06,1.85,3.43,1.7,8.54,3.95,11.56,6.74.55.54,1.59.77,2.2,1.79.51.84-.34,1.31.17,2.16a3.61,3.61,0,0,0,2.63,1.55c.94,1,4.79,1.54,6.74,2.48a8.5,8.5,0,0,0,1.58.54c1.76.46,2.47.31,4.24.77,1.93.55,2.86,1.48,4.65,1.78a5.39,5.39,0,0,0,1.54,0,5.38,5.38,0,0,1,1.89.12c1.39.39,6.49,2.25,7.87,2.25a8.44,8.44,0,0,1,2.74.16,11.87,11.87,0,0,0,2.77.7c2,0,1.27-1.56,3.35-1.56a9.45,9.45,0,0,1,2.94.62h.69c3.79,1,5.46,2.78,9.85,4,2.86.76,4.22.39,6.91,1.07,1.82.47,3.59,1.32,5.81,1.32.81,0,1.13-.39,1.94-.39h.69c2,1.86,4.51,2.56,7.29,3.8a8.59,8.59,0,0,1,2.48,1.32c1.4,1.16,1,2.24,3.38,3h1.19c-.36-.16-.58-.47-.52-.7a55.59,55.59,0,0,1,6,2.08,6.25,6.25,0,0,0,3.35,1.64,2,2,0,0,0,.93.46c.83,0,2.4-.46,3.64.08,1.41.62,3.72,2.09,5.63,2.09,1,0,1.26-.39.9-1.17a3.74,3.74,0,0,1-1.49-.69c-.34-.46,1.8-2,2.64-2,1.3,0,2.43,1,4,1.4,0,.31-.36.46-.12.77s1.45.45,1.81.61a.37.37,0,0,0,.22-.08.84.84,0,0,0,.19.48c1.08,1.39,3,1.16,4.33,2.8.6.77.23,1.06,1,2,.48.62,1.58,1.09,2,1.7.12.16.18.24.31.39s0,.37,0,.62a4.62,4.62,0,0,0,1.82.78c.91,2.09-2.69,1.56-2.71,3.24,0,1.24.73,3.34-2.58,3.34,3.12,3.41-.23,3.1,1.12,4.87.81,1.08,2.23,2.63,4,2.63.87,0,.46-.38,1.92.08.46,1.25-1.55,1.55-1.8,2.71a2.24,2.24,0,0,0,.39,2.34c1,1.39,4,2.94,6,3.78.74.32,1.63.16,2.37.62a16.51,16.51,0,0,0,3.18,2.17c.55.23,1.34.08,2.07.54a72.39,72.39,0,0,1,6.08,4.26c2.2,1.7,5.88,3.09,8.38,5,1.36,1.08,3.78,1.7,4.75,2.94.73.92.9,1.78,2.42,2.39a42.49,42.49,0,0,0,10.36,3.18,21.23,21.23,0,0,1,5.45,1.56c2.14.85,3.48.68,5.87,1.23a26,26,0,0,1,8.74,3.72c1.1.85,5.54,5.42,6.19,6.19,1,1.24,1.54,3.33,2.44,4.42l2.81,3.4a18.05,18.05,0,0,0,1.28,2.71l.58.7c2.17,2.63.6,4.57,3,7.51,1,1.24.38,2.33,2.35,3.72l4.89,5.8c.69,1.87,1.76,3.18,2.22,5,.12.31-.67.24-.83.54-.28.52.35,1.66.19,2.17a4.56,4.56,0,0,0,.49,4.65c.44.55,2.33,2.71,2.9,2.71a4.24,4.24,0,0,1,1.54.85c.19.24,0,.47-1.06.47.69,1.39.19,2,1.37,3.48.68.85,3,2.64,4.15,2.64,1,0,.65-.62,1.48-.86a8.05,8.05,0,0,1,1.3,0l1,1.17c1.81,4.58,2.69,6.88,4.43,11.46-2.22,0-2.31-1.4-5-1.4-.73,0-1,.39-.65.85h-.14l.62.79c1,.84,3.75,2.09,4.24,2.7,1,1.24-2,1.79-.9,3.17s5.45,4,6.81,5.73l.86,1.09c1.3,1.62,5.14,1.32,6.64,3.18.37.46.14.93,0,1.31a13.25,13.25,0,0,0,1.53.39c.4.69-2.39.62-1.84,1.31a12,12,0,0,0,2,.78c2.77,1,4.88,2.09,9.17,2.09a3.79,3.79,0,0,0,2.5,1h2.91c1.14,1.39,4.53,1.4,7.14,1.78,2.77.39,3.28,2.48,6.84,2.48h4.31c.46,0,.81-.32,1.27-.32h1.7c1.39,0,4-1.47,6.29-1.47.92,0,2,.23,2.26-.22-5-1-9.75-1.72-14.57-3.42-2.82-1-5.66-4.56-9-5.34a7.69,7.69,0,0,1-3.76-1.78c-1.23-1.47-1.36-2.56-.34-3.48.77-.7,3.62-.27,3.71-1.32s-1.26-2-.58-2.63c1.18-1.08,4.7-1.31,2.85-3.48-2.06-2.4-7.81-1.33-10.36-4.35-1.12-1.32,0-2.4,2.12-2.71,1-.07,3.55-.15,3.11-1-.78-1.94-2-3.33-.55-4.72a4,4,0,0,1-2.6-1.17c1.45,0,2.64.7,4.38.7.3,0,1-.54.59-1s-1.13-.46-2-.77c-.39.07-.86.54-1.59.54-1.3,0-4.77-2-5.71-3.1-.34-.39-.36-.92.65-.92,2.89,0,4.41,1.08,7.46,1.08,1,0,2.85-.55,2.51-.93l-.68-.78c.06-1.08-3.4-3.41-2.43-4.4.37-.39,2.25-.3,4.18-.21a21.86,21.86,0,0,0,3.94,0c2.89-.63,6.26-.25,7.49-1.56a5.1,5.1,0,0,0,1.58-2.36c.15-.6-.33-1.12-1.19-2.06s-3-.85-4.24-1.7a16.75,16.75,0,0,0-3.88-2.4c-.63-.23-3.09-.61-3.72-1.31-.22-.24.35-.39.77-.39,2.11,0,4.79.93,6.76.93,1,0,4.92.85,7.18.85,6.5,0,4-3.88,4.59-6.2.49-2,3-2.24,3.57-4.33.15-1-.5-1.54-.5-2.55l.07.08c-.18-1.64-.06-2.95,2-3.73l-3.5-3.63c-1.42-1.47-2.74-2.57-2-3.57.48-.61,2.23-.64,2.35-1.63.27-2.11,4.77-1.11,6.17-2.94.18-.22-.06-.61.51-.86,1.48-.53,3.58-.45,6.14-.45,2.28,0,4-1.1,3.86-2,0-.3-1.11-1.24-1-1.7a19.21,19.21,0,0,0,.49-4.11,11.87,11.87,0,0,0-2-2.63c-.63-.61-.23-1.39-.11-1.78-.1-.23.11-.54-.29-.92-1-1-1.47-2.31-2.9-3.7-1.91-1.85-6.39-4.36-5.65-5.52.5-.77,1.77-.93,1.86-2.09.06-.69.42-.89.46-1.58.21-3.13,3.76-4.69-2.27-10.42a13.31,13.31,0,0,0-7.06-3.72,10.2,10.2,0,0,0-2.41-.08,10.53,10.53,0,0,1-2.39-.07,58.37,58.37,0,0,1-10.84-3.71c-1.77-.39-4.45-.94-7.13-1.25l-4.32.4c-2.49,0-4.23-1.25-6.84-1.25-1.12,0-1.08.54-1.9.85h-.88a11.28,11.28,0,0,0-2.15-1.93c-.86-.63-1.82-.47-3.19-.86-2.21-.62-8.1-2.08-10.31-2.08-2,0-1.89,1.63-1.93,2.86,0,.38,0,.93-.48.93a3.41,3.41,0,0,1-1.43-.85h-3a9.72,9.72,0,0,0-3.81-1.79,4,4,0,0,1-2.53-.85c-2.2-2.32.63-3.1,1.1-4.65-.74-.77-2.32-.77-3.67-1.54a51.7,51.7,0,0,1-6.24-4.26c-2.36-.32-7.29-2.87-9.22-2.87h-.72l-.14-.15a30.44,30.44,0,0,1-4.76-.85h-3.13c-3.61-.4-8.43-.15-11.23-2.32a5.45,5.45,0,0,1-2.23-.48c-3.16-1.91-4-1.69-7.6-3.16h-3.33c-1.37-1-2-2.18-3.85-2.48-2.12-.39-4.8-.62-6.57-1.71l-.54-.62a2.27,2.27,0,0,0,1.62-.15s-2.33-.24-3.5-.24c-.22.16-2.69.16-2.6.39.09.94-1.08.94-2.71,1.09-.95,0-2.5-.15-3.1-.85h-6.36a4.45,4.45,0,0,1-2.58-1.39c-2-.24-5-.68-6.46-1.92l-2.06,0c.76.93,2.2.54,3.43,1.47h-2.81c-.67.47-2.67.32-1.72,1.47.76.93,2.62,1.48,3.39,2.4.25.32.38,1.26-.1,1.26-1.3,0-3.18-1.49-3.87-2.35a22.45,22.45,0,0,1-1.52-3.16c.46,0,.91-.32.4-.93a4.4,4.4,0,0,0-1.82-.93c-1.51,0-.92,1.15-2.18,1.46-2.43.61-4.08,1-6.39,1.55-1.27.32-2.17.54-1.77,1.79.26.62.94,1.62.47,1.93s-1.47.54-.87,1.32c-.23,0-.52.23-.4.38s.21.28.36.46c-.7.16-.35.16-1.43,0,0,.19-.23.35-.46.53a2.18,2.18,0,0,0,.32-.6c-2.62-.93-5.29-2.48-8.59-2.48-2.84,0-3.2,1.55-6.29,1.55-2,0-3.13-1.46-4.71-1.86-2.33-.6-5.34-1.31-6.6-3l-3.5-4.72c.12-.78-1.19-2.71-1.71-3.41-.35-.46-.52-.7-.86-1.16-2.29-.3-4-1.63-6.73-1.63-4,0-6.81.46-10.6.46a2.61,2.61,0,0,1-2-.84l-.28-.39c.37-.46,1.52-.78,1-1.55l-2.63-3.71h.9l.39.54a2.55,2.55,0,0,0-.46-2.56c-1-1.47-.13-2.87-.91-3.95l-.5-.7a26.87,26.87,0,0,1-2.69-.15,10,10,0,0,0-2.41-.23c-3,0-6.19.77-4.64,3,.82,1.17-.42,2.17-.22,3.11.1.31.17,1.23-.74,1.23a13.67,13.67,0,0,0-2.49-.47c-2.27,0-3.35,1.09-5.51,1.09-.92,0-1.39-.7-2.55-.92-3.35-.64-4.25-1.94-7.2-3.34a34.08,34.08,0,0,1-4.19-2.25c-.89-.67-.63-1.15-1.53-1.85-.43-.31-1.73-.93-1.9-1.55l-2.82-4.34c-.42-1.16,0-1.7-.92-3.1a6.56,6.56,0,0,0-1.24-1.23l-.19-.19.31,0c-.15-.23-.9-.54-1-.77-1.52-2.33-1.47-4.43.52-5a3.48,3.48,0,0,1,1.26-.1c.59,0,1.15.06,1.41-.3.69-.92.9-2.86,4-2.86,1.19,0,2.36.77,3.54.77.65,0,.55-.61,1.2-.61,2.15,0,6.57,2.63,8.84,1.55-1.73-.62-1.25-1.32-2-2.48-.48.23-.27.23-1.5,0,1.5-.46,3.87-.31,5.36-.62a2.28,2.28,0,0,0,1.2.62c.86,0,.74-.62,2.24-.62,2.58,0,5.05,1.78,7,1.78,1,0,.66-1,1.63-1,4.73,0,6.94,4.73,10.54,7.21a60.7,60.7,0,0,0,5.42,2.86c1.18.69,2,1.93,3.66,1.93,1.87,0,1.31-1.47.07-3.09-1.07-1.4-2.64-2.18-3.67-3.1l-.3-.39c-1.88-2.48-5.49-3.26-7.41-5.81-4.24-5.63,1-7.1,4.37-9.14l-.41-.15c.27-.47,0-.71,1-1,.72-.15.8-.75,1.89-.93.52-.08.49-.55.56-.85l-1.65-.54-.48-.62c.94,0,1.47.07,1-.78a4.06,4.06,0,0,1-2-.67c.52,0,1.12-.33.63-.95l-.61-.78h-.72c-1-.45-.31-.38-.91-1.15s-2.24-2.18-2.66-2.72a3.54,3.54,0,0,1-.7-1c.83.77,2.73,2,3.16,2.56l.66.84a1.63,1.63,0,0,0,.79.47c.31,0,.23-2.71-.14-3.17-.49-.62-1.4-.86-2.1-1.48l.21-.38c.32.15.9.62,1.21.62.72,0,.49-2.71.2-3.33a6,6,0,0,1-1.66-.94.32.32,0,0,1,.17-.54c.31,0,.68.08,1,.08a10.39,10.39,0,0,0,3.55-.38c-1-.39-1.63,0-2.54,0h-1c1.22-1,5-.55,6.11-1.71.65.31,2.12,0,3.14-.23l-.45-.53s-.45.53-.66.53a4.7,4.7,0,0,1-2.16-1.39,2.25,2.25,0,0,1-1-.7c-2.41-2.94.28-3.79.83-5,.67-.38,1.09,0,2.28,0,1.4,0,2.1-.46,2.07-1.32a10.1,10.1,0,0,1-1-.59l-.19-.18-.2-.23a4,4,0,0,0,1,0c.61,0,3.34.31,3.83-.15s-.38-1.47,1-1.54c.93,1.07.9,1.15,2.48,1.15-2.14.16-4.64,1.4-3.19,3.09a9.4,9.4,0,0,0,3.65,1.95c.8,0,.86-2.08,2.44-2.55.43-.07,5.44-2.1,4.89-2.73-.75-.84-3.38-.92-4-.92-2.86,0-9.25-2.17-10.92-4.11-.39-.46-.15-1.08-.62-1.86-.49,0-1.76-.23-2.63-.23.06-.61,3.21-1,1.87-2.55s-4-1.16-6-1.16c-4.23,0-4.15,2.4-6.79,2.71-.48-2.09,2.13-1.4,2.8-3.1.44-1.08-1.1-1.8.44-2.32,2.79-.95,5.4-.39,9-.39,4.78,0,8.54,1.27,8.69-1.7.08-1.44,7.4-1.79,5.13-4.26a20,20,0,0,0-5-3.72c-.75,0-.36-.76-1.81-1.16l-.85-.93a13.44,13.44,0,0,1-6.74,2.32,3.09,3.09,0,0,1-1.21-.31c1.1-.85,5.74-1.44,5-2.91-.25-.39-1.14-.5-1.58-.88-2,.23-7.5-.63-9.83-3.25a2.41,2.41,0,0,0-.21-.24c-2,0-4.17-1.08-6-1.86.26-.22,1-.46.14-1.39-.68-.77-2-1.39-2.54-2.17-1-.23-5.34-1.83-5.82-3.25-.59-1.75-4.75-2.17-6.82-4.25a15.16,15.16,0,0,1-2.38-1c-.28.39-1.11,1.08-.18,2.17s.56,4-1.69,4c-1.61,0-3.31-1.7-4.39-1.7-1.52,0-5.3-3.81-6.9-5.42-2.15-2.17-5.64-.62-8-3.49-2.7-.31-5.36-2.94-7.79-2.94-1.13,0-.51.77-1.81.77-2.53,0-5.13-1.31-7.56-1.31-1.3,0-2.19.54-1.11,1.93.6.78,4.56,1.91,3,3.48-.63.62,3.42,2.34,4.48,3.49,2.09,2.29,0,2.87-.86,3.26,4.39,3,8.32,4,12.32,9.13,1.09,1.4-1.75,4.88-3.37,5.19,4.27,1.36,6.23,5.58,8.56,6.89,0,.47-.83,1-.27,1.86-1.14,0-.8,1.51-2.14.93-3.51-1.54-8.64-4-10.32-6.2-1.85-2.47-2.76-4.41-6.36-5.8h-6a104.51,104.51,0,0,0-14.6-4.65c-.88-.23-3.9-1.55-5.17-1.55s-1.2,1.17-2.57,1.17c-1.27-1.87-5.65-6.2-7.63-6.2-.89,0-.93.62-1.72.78-.27-.93-.83-1.25-2.33-3.49-2.07-3.1-2.25-5-1.44-6.74.29-.61-.27-3.64.25-3.86,1.13-.48,4.29.31,3-1.56-.81-1.16-4.16-1.25-5.79-1.87.32.08.1-.05,0-.18s.07-.51,5.56.77c2.16.5-.44-1.66.59-1.66h1.89c2.06,0,1.79-1.93,2.49-2.86-.34-.47-.51-.7-.84-1.17-3.32-.61-5.93-.22-8.82-2.55h1.52c1.53.62,3.45,1.78,5.06,1.78,1.35,0,2.64-1.62,2-2.56-.22-.3-2.49-1.69-1.82-1.69,1.84,0,3.64,1.54,4.81,1.54.76,0,.81-.62,2.32-.62-.77-.46-1.38-1.83.72-.39,1.12.78,2.88-2.63,2.12-3.63-.53-.7-3-1.47-3.36-1.94s-2.43-1.77-.73-3c-.2-.69-.46-.61-1.45-1.92-2.6,0-3.41-2-6.73-2-.78-.08-1.69-.54-2.42-.54-1,0-1.57.62-.89,1.56s2.23,1.39,2.74,2.08-1.34.79-1.18,1.55c.28,1.3,1.28,2.35,1.11,3.79-.27,2.21-5.31-1.39-5.91-2.24-.71-1,.85-.77,0-1.93a17.63,17.63,0,0,0-4.95-2.72c-2.36,0,1.61,3.34-.94,3.34a6.8,6.8,0,0,0-4-3,1.33,1.33,0,0,1,.18-.93c-1.84-.78-3.09,0-4.86-1.17.35-.31,1.45-.85.76-1.86-1-1.46-3.35-1.41-4.16-2.55a9.62,9.62,0,0,0-7.63-4h-.08c-1.41,0-.17.95.41,1.7"/><path class="cls-2" d="M975.62,294.73a2.93,2.93,0,0,0,2.24,1.48c.22,0,.38-.23.26-.39a2.91,2.91,0,0,0-2.06-1.09l-.38,0s-.08,0-.06,0"/><path class="cls-2" d="M971.05,290.94c.65,0,1.81.08,2.85,0a3.64,3.64,0,0,0-1.81-.62c-.53,0-1.06.31-1,.62"/><path class="cls-2" d="M977.24,291.87l-1-.61c.07.22.75.69,1,.61"/><path class="cls-2" d="M997.16,303.56l.37.47c.06.08.33,0,.45,0,.56,0,1.23-.15,1.42-.47l-.56-.69c-.07.47-.66.85-1.68.69"/><path class="cls-2" d="M766.91,212.9c.84-.63.45-.24,2,0-.11.38.42,1,.66,1.54,0,.08,1.73,1.7,2.57,1.7.47,0,.64-.23.4-.77-.72-1.7-3.31-1.94-3.92-4a9.33,9.33,0,0,0-1.39-.16c-.82,0-.89.38-.34,1.71"/><path class="cls-2" d="M758,205.15c-.36,0-1,.15-.77.78a4.39,4.39,0,0,0,3.39,2.32,6.14,6.14,0,0,0,2.72,3.09c.6-.77-.76-1.85-1-2.94-.15.08-.82.23-.91,0-1-1.24-.51-1.24-1.33-3.25-1,.62-.46,0-2.08,0"/><path class="cls-2" d="M799,148.39a4.61,4.61,0,0,0,.53.77c-.88.63-.77,0-2.17,0-.63,0-1.18.39-.81,1a44.25,44.25,0,0,0,4.91,5.34c-.22.3,0,.61-.68.61-1.42,0-2-1.93-3-2.86a10.1,10.1,0,0,0-3.84-2.17h-1.71a10.11,10.11,0,0,1,1.18,1.4,19.07,19.07,0,0,1-2,.54,6.18,6.18,0,0,0-4.81-2.32c-1.25,0-1.24,1-1.66,1.39-.57-.46-1.7-2.71-2.79-2.71-2.8,0-8.45,2.79-6.52,6.58a6.54,6.54,0,0,0,3.18,1.55,8.9,8.9,0,0,1,2.83.08c-.6.54-3.23-.08-2.35,1.63,1.12,2.17,5.13,1.39,6.9,1.39h4.24a6.9,6.9,0,0,1,2.44.78,25.48,25.48,0,0,1-2.57.15c-3.37,0-5.66.38-6.87,1.78,1,.93,3.45,2.71,5.24,2.71,1.14,0,3.46-.24,4.68.38s1.14,1.94,2.54,1.94h7.36c1.07-1.16,3.48-.6,5-1.55.88-.55-.16-1.39,1.3-1.39,2.35,0,4.89,2.32,8.08,2.32,2,0,4,.08,3.79-1.39a3.61,3.61,0,0,1-1.48-1.09c-.32,0-1.22,0-1.6-.62s-.07-.77.57-.77c1.46,0,2,.3,2.86-.62-2.27-1.16-10.06-2.87-11.56-5.34-1.22-2-4.42-3.8-6.08-6.58-.42-.7.87-1.4.17-2.56a4.43,4.43,0,0,0-3.73-1.71c-1.23,0-2,.55-1.54,1.32"/><path class="cls-2" d="M762.24,144.52c-1.83,0-3-.77-4.59,0,.48.85,2.14,2.09,2.44,2.71,1.33,2.79-1.55,5-.32,7.59.44.93,3.49.7,4.53,1.55.42.38,1.53,1.55,1.93,1.55s1,.77,1.57.77,5.17-1.94,4.86-2.55c-.9-1.79.93-5.08,2.93-5.81.64-.24,4.45-.85,4-1.7-1-1.79-5.54-3.34-7.15-3.34-1,0-1.44.94-2.49.24-1.77-.16-3-1.09-4.91-1.55a2.8,2.8,0,0,0-.7-.1c-1,0-1.33.64-2.1.64"/><path class="cls-2" d="M783.63,135.62c.39.69,2,1.07,2.52,1.15l.58,1c-.22,0-.59.15-.57.3a4.16,4.16,0,0,0,1.63.23c.1.7-.11,1-1.08,1-3.32,0-6.53-2.94-8.78-2.94h-1.71a2.55,2.55,0,0,0-1.9-1.16,8.56,8.56,0,0,0-2.46,0,1.84,1.84,0,0,0,1,.79l-.19,0a1,1,0,0,0-1,.85,4.5,4.5,0,0,0,1,.36l-.44-.05a6.89,6.89,0,0,0-1.27,0l.6,1.16,1,.33a5,5,0,0,0-.88-.09c-.76,0-.81.61-1.48.77.58.55.2.39.6,1.16a2.29,2.29,0,0,0,1.74,1.17c.54,0,2,.53,2.94.53s1.7-.38,2.91-.53c-.25-.47-.12-.94.29-1a10.37,10.37,0,0,0,2.26,1.79c-1,0-2.26-.24-1.64.93a4.51,4.51,0,0,0,2.78,1.16,8.71,8.71,0,0,0,4.33-1.16c.18-.08,4.43-1.17,4.34-1.32a10,10,0,0,1,2.52.06,15.57,15.57,0,0,0,2.52.09c.54-.23,1-2.55.34-3.63a4.32,4.32,0,0,0-2.88-1.94c-1,0-.8.93-1.47.93-1.43,0-3.84-1.7-4.51-2.86a6.34,6.34,0,0,1-.58-1,4.1,4.1,0,0,1-1.72-.54c-.39.61-2,1.23-1.26,2.48"/><path class="cls-2" d="M766.15,139a2.22,2.22,0,0,0,1.76.93c1,0,1.27-1.64.86-2.72h-.14c-.9,0-3.07.61-2.48,1.79"/><path class="cls-2" d="M772.69,133.29a2,2,0,0,0,1.5,1h1.64l-.55-1Z"/><path class="cls-2" d="M765,131a9.85,9.85,0,0,0-1.4-.16c-2.06,0-1.41,2-2.38,2.87s-1.93.92-2.81,1.55c-.21.15-1,1.24-1,1.39s.9.62,1.31,1.16c.57-.07.52-.62,1-.62.75,0,1.42.47,2.1,0,.3.32,1.24,1.17,1.85,1.17.82,0,1-.86.72-1.71,1.35.16,1.84-1.08,1.31-2.4.86.39,1.71,2.17,3,2.17.77-1,1.15-1.48,1.9-2.48-.33-.62-.93-.77-1.41-1.54.44-.16.6-.7.3-1.25a1.75,1.75,0,0,0-1.64-.65,10.65,10.65,0,0,0-2.85.5"/><path class="cls-2" d="M772.19,126.94c.53-.08.53-.62,1.11-.62.73,0,1.28.62,2.15.62h3.13c.87,0,1.11-.46,1.52-.77a6,6,0,0,0-4.13-1.94c-.94,0-4.33,1.7-3.78,2.71"/><path class="cls-2" d="M773.68,129.27a5.83,5.83,0,0,0,3.49,2.08c1.62,0,3.65-.69,2.59-2.32h-2c1.1,0,2.21-.23,2.62-.93a2.77,2.77,0,0,0-1.75-.77c-1.53,0-5.88.15-4.9,1.94"/><path class="cls-2" d="M769.83,128.65a3.51,3.51,0,0,0,2.08,1.15c.52,0,.49-.46.53-.92a10.23,10.23,0,0,0-2.54-1.09c-.31,0-.41.22-.07.86"/><path class="cls-2" d="M811.61,148.16c.07.23-.3.39-.15.62.62,1,2,.85,3.11,1l1.33,2.09h-1.18c-1.33,0-3.08-.93-4.09-.93l.81,1.31c3.66,2.25,5.91,1.94,9.51,4.11.77.46,1.48,1.31,2.59,1.31.71,0,.27-.93.83-1.16,1.94-.93,2.93.2.54-4-.58-.15-1.7-.31-2.06-.38-.5-.77.18-.08-.52-1.16-.56-.85-2.37-.16-2.94-.08.1-.69,1.64-1.32.64-2.86a2.43,2.43,0,0,0-1.28-.78h-3.09c-.56,0-1.14,0-1.69,0-1.1,0-2.05.14-2.36,1"/><path class="cls-2" d="M802.24,134.37c1,1.09,2,1.09,3.29,1.09l1.07,1.7c-1.87,0-3.53-1.7-5.17-1.7l.58.93a15.28,15.28,0,0,0,2.31,1.32c-1.9.69-5.45-3.26-7.61-3.26h-.89a3.88,3.88,0,0,0,.82.92l-.2-.15.85,1.4c.88.47,1.73,1,2.34.77l.69.77h1.13a2,2,0,0,0,1.48.94c1.51,0,3.65-.78,5-.78a2.61,2.61,0,0,1,1,.24c-.15.46-1.59.46-1.15,1.16a2.32,2.32,0,0,0,.48.77.57.57,0,0,0,0,.77c.43.7,2.21.4,2.67.4a8.43,8.43,0,0,0,2.78-.4c-1.7-2.16-1.39-3.1-2.54-4.87-.75-1.17-1.41-1.94-2.74-1.94-.6,0-.49.62-1.09.62-1.41,0-2.65-.77-3.83-.77-.3,0-.56-.06-.8-.06a.89.89,0,0,0-.5.13"/><path class="cls-2" d="M828.61,166.2a3.71,3.71,0,0,1-.52,0c-.56,0-1.31-.06-1,.38a57,57,0,0,0,8.61,2.31c.9,0,.72-.77,1.23-1.23-1.21-1.08-6.42-3.95-7.63-3.95-1.62,0,.1,2.17-.67,2.48"/><path class="cls-2" d="M824.41,146.69c.15.23.31.69.51.77h-1.77c.35.52.52.79.87,1.32,1.56,1.55,1.63,2.47,3.7,3.72.19.38.81,1.31,1.47,2.32h1.57c.33-.93.81-1.17.11-2.56h-1c-.57-1.55.1-.54,1.82-.54,2.35,0,2.28-1.7,2.32-3.09,0,0,.69-1,.58-1.17a8.63,8.63,0,0,1-.69-1c-2.78,0-5.56-.93-8.17-.93-1.61,0-1.36,1.09-1.3,1.17"/><path class="cls-2" d="M793.47,132.13c.51,0,.72-.39.46-.93-1.87-.54-3-2.17-4.89-2.17.6,1,3.61,3.1,4.43,3.1"/><path class="cls-2" d="M798.76,141.58a11.57,11.57,0,0,1,1.57.08c.46,0,1.09-.08.53-1-.33-.54-.86-.76-1.24-1.16-.82.4-1.35.78-.86,2.1"/><path class="cls-2" d="M785.75,121.91a1.8,1.8,0,0,0,1.91,1.16.86.86,0,0,1,0,.77c.85.47.93,0,2.51,0a1.67,1.67,0,0,0,.57.93c-.68.31-1.38.23-1.61.94a3.07,3.07,0,0,0,2.33.61c1.08,0,1.79-.39,2.58.31,1.21-.16,2.29.31,3.6.31,1.68,0,2.74,1.93,4.5,1.93.58,0,1.17-.23.68-1s-2.4-1.47-3.37-2.09c0-.23.09-.55.09-.78-.6-.38-2.28-1.78-3.28-1.78-.43,0-.26.62-.69.62-.79,0-1.82-1.78-3.25-1.78-.58,0-.48.62-1.06.62-.86,0-2.06-1.39-3.56-1.39-.86,0-1.15.47-1.91.62"/><path class="cls-2" d="M796.64,129c1.1,0,2,0,2-.54a7.19,7.19,0,0,0-2.07-.62c-.29,0-1.25,1.16.06,1.16"/><path class="cls-2" d="M811.57,133.52c.45.7,6.33,2.71,7.14,2.71a.92.92,0,0,0,1-.77c2.15,1.31,3.36,2.56,5.68,3.95a1,1,0,0,0-.06,1.23c1.05,1.55,6.19,3.49,7.87,3.49.69,0,1.19-.93,1.22-1.32h.91c.78,1.32,3.32,1.55,4.65,1.16h6.11c.35-.46.22-.84,1.17-1a3.57,3.57,0,0,0,2.39,1.16c2.67,0,6.12,0,4.28-2.71a2.59,2.59,0,0,1-1-.08,1.3,1.3,0,0,1-.17-.72,1.22,1.22,0,0,0,.5-.13c-2.6-2-4.66-2.17-7.67-2.17-3.91,0-3.85,1.94-8,1.94a28.39,28.39,0,0,1-5.87-.93c-.14.23-.72.7-1.48-.39-.16-.23.22-.23.26-.39-1.65-.85-2.72.31-4.61-1.78h3c-1.38-1-4.48-.54-5.12-2.32h-1.34c0,.46-.32.62-1.06.62-2.53,0-4.94-2.71-8.27-2.71-.88,0-2.21,0-1.45,1.16"/><path class="cls-2" d="M817.63,140.49c-.14,0-.72.39-.22,1.17,0,0,5.8,2.08,6.34,2.08,1.07,0,.74-1.16-.15-2.48a8.6,8.6,0,0,0-4.88-2.55c-1.73,0-.25,1.78-1.09,1.78"/><path class="cls-2" d="M814.62,129c-1.39,0-3.91.16-4.13.93,0,0,4.81.85,5.18.85.67,0,.85-.38.58-.77l-.68-1c-.62.16-.14,0-1,0"/><path class="cls-2" d="M802.5,124.38c1,1.55,2.81,2,4.29,3a.53.53,0,0,0-.23.77c.61.93,3,.62,5.11,0a9.93,9.93,0,0,1-1.29-1.93c-1.08-1.63-2.48.08-3.71-1.79a6.38,6.38,0,0,1-3.27-1.16c-.66.08-1.39.4-.9,1.16"/><path class="cls-2" d="M795.94,118c.59.93,1.54,1.08,2.26,1.55h1.21l-1-1.55c-.33,0-.94,0-1.57,0a8.92,8.92,0,0,0-.91,0"/><path class="cls-2" d="M805.43,112.77h-1.18c-1.46-.31-1.7.15-2.17.7a7.61,7.61,0,0,0,1.73,1.24c.42,0,.94-.47,2,0,0,.23.17.77-.25.77s-1.27-.54-2.25-.54c-.62,0-1.66-.08-1.1.77s3.1,1.39,4.23,1.71c0,0,.06.62-.22.62a8.12,8.12,0,0,1-2.63-.77h-1.06c1.69,2.24,3.34,2.47,5.74,2.47,0,.61-.45.7-1,1,.3.46.59.77,1.08.77s.58-.31,1.09-.62c.52.46,1,1,1.67,1s.65-.62,1.72-.62a14.59,14.59,0,0,1,3.36.62c-.85.23-5.38.07-4.39,1.54.78,1.17,3.33,1.94,4.56,1.94a.58.58,0,0,1-.57.54c.89,1.09,2.7,1.39,3.86,1.39s1.47-.39.5-1.77c1,.46,3,1.47,3.59,1.39-.29-.4-.43-.61-.71-1h1.3c-.65-.62-1.05-.77-2-1.55.09-.38,0-.77,0-1.16.82.86,1.32,1.55,2.25,1.55s.31-2.3,1.6-2.47c.52-.07,1.42.07,1.37-.39,0-.31-.38-.62-.77-1.17-1-.08-3.51-1-4.22-1-.14,0-.71.7-1.21,0-.33-.46.06-.61-.33-1.15s-1.29-.62-1.67-1.16c-.66-.93-.87-1.33-1.85-1.33h-.7l.73.55.71,1h-.85c-1.12-.69-1.41-1.7-2.79-2.16a2.42,2.42,0,0,0-1.46-.08,2.44,2.44,0,0,1-1.44-.08c-1.43-.47-2.72-2.71-4.52-3.32a19.56,19.56,0,0,0-4.94-.85c.8,1.08,2,1.16,3.17,1.62"/><path class="cls-2" d="M869.38,183.24l.84,1.16c.33.46.08.7-.13,1,.1.38-1,.22-.18,1.54a11.62,11.62,0,0,1,3.7,0c.39.78.69,1.55,1.72,1.55.43,0,.27-.23.25-.62a1.79,1.79,0,0,0,1.94-2.87c.62.16,4.7,1.94,4.7,1.94h2.32a2.73,2.73,0,0,0,2.2-.84c-1.48-.94-2.73-.55-4.8-1.48-.66-.31-.81-.86-1.65-1.4-2.9-1.87-5.07-1.08-8.32-3.1a.9.9,0,0,0-.3.63,28.9,28.9,0,0,1-2.86-2.17c-2.19.23-.38,3.33.57,4.65"/><path class="cls-2" d="M883,171.86a4.72,4.72,0,0,0,3.39,1.7c1,0,2.52-.7,1.73-1.7a6.27,6.27,0,0,0-4.42-2.13c-1.21,0-1.86.65-.7,2.13"/><path class="cls-2" d="M882.23,189c.25.46-.36,1.16-.49,1.94l.74,1a3.25,3.25,0,0,0,2.4-2.63,4.93,4.93,0,0,0-1.57-.35l-1.08,0"/><path class="cls-2" d="M856.52,148.39a6.12,6.12,0,0,0,2.79,1.63c.45,1.31,2.08,1.7,3.64,1.7,1.33,0,1.43-.77,2.29-.77s1.75.54,2.77.54c.7,0,.75-.54.42-1.24-1.94-.7-5-2.4-7.14-2.4-1.62,0-2.64-.62-4.33-.62-.62,0-1,.39-.44,1.16"/><path class="cls-2" d="M890.81,192.37s2,1.16,2.19,1.16c.87,0,.22-1.08.28-1.7a4.29,4.29,0,0,0-2-.62c-.72,0-1.08.37-.48,1.16"/><path class="cls-2" d="M888.09,170.85a2,2,0,0,0,1.57.62,3.37,3.37,0,0,0,1.52-.16,7.49,7.49,0,0,0-2.64-1.24c-.16,0-.63.54-.45.78"/><path class="cls-2" d="M874.69,167.36c1,0,1-.85.51-1.78-1,0-1.48,1.78-.51,1.78"/><path class="cls-2" d="M839.17,149.94c-.09.31,1.28,1.72,1,2.17-.56.85-.65,1.31.86,3.48a14.61,14.61,0,0,0,2.65,2.09,26.88,26.88,0,0,1,4.92.78c.29.4.44.6.72,1-1.47-.15-3-.62-3.76-.23.92,1.08,2.23,1.23,3.4,2.32h3.86a11,11,0,0,0,3.53,1.55c3.64,0,9.6-.23,12.28,0,.33.54.94,1.79,2,1.79,1.47,0,.51-2.95,1.55-2.95s8,3.56,9.32,4.26c-.43.08-1.78.23-1.18,1a4,4,0,0,0,1.38.93c1.07,0,.83-.93,1.89-.93,1.72,0,10,3.8,11.65,5.81.87,1.08.5,2.78.31,3.48-.15.54-2.22-.16-1.16,1.16a8.7,8.7,0,0,0,2.81,1.62,5,5,0,0,1-2.94,1.09h-3.65c-1.18,0-2.36,1.32-1.76,2.09.84,1.08,4.42,2.18,5.36,2.18s.62-1.17,1.65-1.17c.77,0,1,.54,1.87.54s.79-.62.79-1.16c3.51,1.31,6.08,2.79,9.8,3.88.56,2.47,5.7,2.39,8.66,3.47,3.13,1.15,4.4.7,7.84,1.78.33.08,1.23.94,1.67.94s.54-.4.08-.94c-1.84-2.16-8.07-3.79-10.89-5.41h1.29c1.85,1.08,9,2.93,10.66,3.1a13.57,13.57,0,0,0-1.37-3.1c-.74-.86-2.61-1.24-3.08-1.78a9.11,9.11,0,0,1-1.33-1.55h-1.44c-.79-.8-1-.77-1.56-.75a4.81,4.81,0,0,1-1.62-.18,16.13,16.13,0,0,1-4.36-2.95h-1.1l-1-1.15a1.45,1.45,0,0,0,1.26,0c-.32-.38-.47-.57-.79-.94a2.22,2.22,0,0,1-1.8-.15c.08,0,.45-.85,1-.85,4,0,8.69,5.27,12.93,5.27.93,0,0-1.32-.79-2.18,1.61,0,1.26-.69,1.06-.92a8.74,8.74,0,0,0-.89-1c1.09,0,2.25-.3,1.36-1.31a4.7,4.7,0,0,0-3.82-1.78,3.8,3.8,0,0,1-1.83-.38c-1.95-1.48-1.41-.39-3.25-.39-1.24,0-2.79-1.32-4.15-2.71a10.56,10.56,0,0,1-6.42-2.72,7.45,7.45,0,0,1-2.81-.61c-.24-1.16.41-1.16,1.19-1.78a3.52,3.52,0,0,0-1.81-.7,20.09,20.09,0,0,1-2.57-.15c-.13-.94,1-.86,1.93-1.08-1.4-1.09-2.7-1.87-3.82-1.87h-1.38l-1.1-1.31c-2.44-.24-4.67-1.48-7.39-2.17-.85-1.32-3-1.55-3.88-1.55h-2c-2.62,0-5.29-2.65-8-3.87a23.44,23.44,0,0,0-6.79-1.16c-1.41,0-.31,1.93-1.64,1.93-.71,0-1.53-.77-2.4-.77s-.51.77-1,.77-.93-1.23-1.16-1.54c-1.3-1.71-4.43-4.41-6.44-4.41-3.1,0-7.6.92-5.47,3.86.56.78,1.74,1.32,2.3,2.09s0,1.55-.45,1.55c-1,0-1.29-.69-1.74-1.31a7.33,7.33,0,0,1-1-1.4,1.65,1.65,0,0,1-1.18-.77c-1.61-2.24.84-2.4.43-4-.07,0-3.1-.78-3.1-.78-2.62,0-3.69,1.32-4.17,2.86"/><path class="cls-2" d="M892.4,187.65c1.34.62,1.6.62,2,0a11.2,11.2,0,0,0-1.63-.57c-.22,0-.32.15-.36.57"/><path class="cls-2" d="M871.06,178.2a3.65,3.65,0,0,0,2.59,1.24c-.9-.57-1.56-1.36-2.19-1.36a.77.77,0,0,0-.4.12"/><path class="cls-2" d="M833.77,102.32c-1,0-2.07-.93-3.28-.93a.37.37,0,0,0-.37.54h-7.7c-.68,0-1,.23-.79,1-.24.85-.09.15-1.23.15-1.95,0-1.55,1.63-.78,3.49-.79-.24-4.51-1.7-5.8-1.7s.69,1.7-1.49,1.7c.23.31.17.62-.1.62h-1.5c-2,0-5.77.92-4.86,2.86h1.52a1.69,1.69,0,0,1,.65-.55h2.06a1.59,1.59,0,0,0-1,1.32,8.33,8.33,0,0,0,1.67.61c1.32,0,.41-1.39,1.79-1.39a5.33,5.33,0,0,1,1.49.16c-1.35.62-3.24.39-2.6,2.4.5-.08,1.94,0,3.26,0a1.39,1.39,0,0,0-1.27.85,11.68,11.68,0,0,0,5,1.63c.63,0,.77-.39,1-.77h.91c.3,1,2.52,1.54,3.92,1.54.56,0,.27-.77.83-.77s1.58.62,2.91.62c2.24,0,3.45-.54,3.91-1.78h1c.05,1.16-.85,1.55-1.71,2.17H827.7c0,.23-.15.46.08.77.34.47,3.75,2,4.4,2.4-1.82.23-4.13-2-6.33-2.63a10.82,10.82,0,0,0-3.84-.15c-.35,0-.81-.16-1,0a4.49,4.49,0,0,0,1.72.93s-1.87-.15-1.31.62c1,1.39,5.82,1.39,7.63,3.86,1.59,2.18-1.09,1.47-2.43,2.09-.8.38-.69,1.24-.33,2.56.26.37.39.56.66.93H828c.07-.31.07-.31.34-.54h1.09c1.34,1.86,4.28,2.79,6.1,3.87H834.2c-2-.85-3.77-2.17-6.1-2.17-.73,0-2.05-.31-1.28.78,1,1.39,2.69,1.62,4.08,2.32-.72,1.16-5.38,0-3.22,3.1a1.65,1.65,0,0,0,1.18.62c.38,0,.4-.4.35-.78a32.68,32.68,0,0,0,8.18,1.55c1.13,0,1-.77,1.68-.77h5.6c1.49,0,1.62,1.16,3.34,1.16s4.9-1.4,3.88-2.71a1.82,1.82,0,0,0-1.59-.62h-1.85c-2-2.64,2.2-1.16.28-3.65-.36-.46-.84-.61-1.41-1.16H851c.51-.92-.45-2.78.46-3.55a10.37,10.37,0,0,0-3.56-1.86c1.48.15,2.47.31,1-1.4h-2c.35-1,2-1.17,3.13-1.7a3.59,3.59,0,0,1,1.65,0c.83.1,1.66.21,1.85-.23.76-1.67-.16-4.79,1.76-5.8,1.72-.91,4.7-2,4.75-3.8a17.49,17.49,0,0,0-1.89.08,6.3,6.3,0,0,1-3.48-.32c1.95-2,6.46-.71,7.19-2.93.12-.38,1.57-.16.68-1.16-1.22-1.39-4.48-1-6.09-1.94a8.77,8.77,0,0,0-2.28-1.31,10.59,10.59,0,0,1-1.74-.62l-3.66,1.69c.23-.14.28-.33.29-.77-2.65-1.55-8.21-1.31-9.82-1.31h-1.87a23.77,23.77,0,0,0-2.44-.54c-.94,0-.15,1.32-1.1,1.32"/><path class="cls-2" d="M904.05,97.67c-3.37,0-3.72,2.17-6.91,2.17a14.74,14.74,0,0,0-2.66,0l.93.93h-1.33a13.19,13.19,0,0,0-4.67-.54c-2.2,0-3.34.54-4.17,1.54.87.55,1.48.63,2.48,1.17-.46.15-2.91-.23-1.79.92,1.42,1.47,5.18,2.49,6.87,3.1h-3.07c-2.59-.92-5.93-2.7-8.7-2.7-.67,0-1.6.07-.73,1a19,19,0,0,0,2.15,1.7h-1c-1.94-.61-3-.46-5.07-1.93,0,.31,0,.47,0,.78.5.54,1.27,1,1.78,1.55-1.3,0-3.79-2.33-5-2.33-1.83,0-2.06,1.24-3.48,1.78-2.59,0-2.92.77-5.31,1.16-1.91.31,3.08,3.88.65,3.88a5.1,5.1,0,0,1-2.34-.63c0,1.55-1.58,3.41-3.24,4.26-.29.07-1,.47-.42,1.17,1.23,1.47,5.2,1.39,6.6,1.55,1.66,1.93,2.08,3.36,1.59,4.1-.36.54-1.59.45-2.86.37a6.34,6.34,0,0,0-2.78.17c-1,.47-1.07,1.33-2,1.78-1.12.55-4.36-.31-2.42,2.09,1,1.24,9.73,3.33,10,3.33h2.57c.37,0,.26-.39.09-.77h2.92c.51.85.77,1.16.5,1.7h-4.2c.09.54-.07.62-.8.62h-1.85c-.59,0-1.68.47-1,1.55,1.86.54,1,0,2.59,0,.89,0,2.49.85,4.06,1.31.29.69-.16.77-.45,1.24a14.5,14.5,0,0,0,6.42,1.86c.6,0,.72.23.78-.23a8.23,8.23,0,0,1-1.28-.63,1.82,1.82,0,0,1,1.24-.3c.89,0,2.1.62,2.77.62,1,0,.55-1,1.52-1h2.24c10.23.7,20.24,7,28,13.4l1.06,1.15a4.51,4.51,0,0,1,3.17,1.32c1.64,1.78-.23,1.63,1.34,3.33a3.79,3.79,0,0,0,3.35,1.31c1,0,.05-1.31.76-1.31,2.61,0,6.73,3.64,9.93,4.41.38.47,1.11,1.17.32,1.17-1.93,0-4.23-1.17-5.91-1.17-.72,0-.92-.3-1.44,0,2.34,2.18,8.57,2.56,11.81,3.33,1.34,2.17.85,2.94,2.55,5.27-1.59-.47-1.51-.39-2.14.15l.14.16c-.47,1.23.47,2.78.68,4.25l1.66,1.79c.13-.4.79-.31,1.67,0,.47.77.24,1.16,1,1.93,2,2.09,5,2.94,6.91,4.42a39,39,0,0,0,3.26,2.55c.91.31,1.16.11,1.37-.09s.49-.5,2,.32c-.08.54-.84.47.11,1.47,2.12,2.25,8.73,5.74,11.66,7,.4.15,1.27,1.23,2.09,1.54,2.3.93,2.65.39,5,2.17,1-.08,1.49-1,2.72-1,2.2,0,5.45,3.49,7.67,3.49.53,0,.25-.46,1.23-.54a3.15,3.15,0,0,0,1.84.77c2.39,0-2.69-4-1.53-4.88-1-.85-2.88-2.86-4.28-4.25-2.26-2.26,2.65-1.4,0-4-.87-.85-2.29-1.24-2.83-1.78s-.29-.63-.35-.94c-.24-.22-.72-.53-1-.77-2.59-2.56,2.68-1.86,2.78-3.48,0-.69-1.1-1.47-.32-1.94l1.61,1.55h1.26c.57-1.16,3.81-.78,3.85-2.32,0-1.16-1.51-2.71-1.18-3.87.24-.56.35-.84.58-1.4-.66-.62-.09-.85.23-1.31h3.86c1.77-1.24,4.42-1.06,6.32-1.94,1.55-.71,0-2.87,1.7-3.72.94-.46,1.66-.54,1.81-1.47-2.3-.54-9.11-.23-11.68-2.55.31-.08,1.41-.32.64-1s-1.74-.85-3-1.94c.65.24.79,0,1.19,0,3.25,0,6.8,3.87,10.56,3.87.88,0,2.08-.07,1.11-.92-5-4.42-11.57-5.73-17.48-8.52l-1.3-1.16a4,4,0,0,0,1,0c2.11,1.47,6.8,3.48,8.22,3.48.94,0-.23-1.24-1.28-2.17-2.38-2.09-5.08-1.39-8.2-3.48h1.16a29.49,29.49,0,0,0,4.34,1.78c-1.22-1.62,3-.62.9-2.94a6.17,6.17,0,0,1-2.1-1.16c1.28-.16,2-.85,1.06-2.09-1.29-.31-3.33-.24-4.83-1.55-1.16-1,.06-1,1.27-1a9.17,9.17,0,0,1-1.95-1.7c-1.34-1.16-3-1.63-4.94-3.33a5.18,5.18,0,0,1-3.89-1.32c-.62-.54-.66-1.16.15-1.16,1.33,0,6,.69,3.84-1.16s-4.57-1.47-6.28-2.71a.77.77,0,0,0,.77-.47,15.69,15.69,0,0,0-4.6-1.47c-.8,0-.94.39-2.18,0-.45-.77-2.65-2.64-2.57-3.33.11-1.06,1-1.62-.86-3.25-.36-.31-.29-.31-1.34-1.16.9-.39,2.38-.7.94-1.94-.89-.77.59.08-1.16-1,.9-.31,2.8-.31.26-2.48,0,.46-.08.46-1.46,0,3.14,0,2-2.24,3.23-3.1.22-.15.71-.85-.41-1.78s-6.43-2.71-7.31-2.71c-.68,0-1.07.07-.18,1h-3.28c-.37.62-.12,1-.74,1.54a11.19,11.19,0,0,1-1.83-.22h-4.6c0,.93,2.21,6,1,6.57-.65-.77-2.09-6-2.88-6.73-1.32-1.16-3.1-2.32-4.32-2.32-2.25,0-1.43,4.41-3.15,4.41-.56,0-1.15-3.25-1.71-3.87a28,28,0,0,0-5.85.11c-3.21.22-6.73.44-8-.11L932,106c1-.78,6-.39,3.28-3.1-2.21-.46-4,.08-6.71-.77-4.88-1.52-11-4.49-14.93-4.49Z"/><path class="cls-2" d="M927.44,162.71c.85.93,3.32,2.64,4.13,2.72h1.79c1.38,0,2.86-.24,1.79-1.55-2.69-.62-5.29-2.71-7.38-2.71-.72,0-1.4.38-.33,1.54"/><path class="cls-2" d="M983.84,139.48c0,.23-.12.55.41,1a6,6,0,0,0,2.34,1.17c.76,0,1-.94,1.07-1.17h-1.29l-1.16-1Z"/><path class="cls-2" d="M981.66,227.52c.22,1.74,2.29,5.27.55,6.35a2.24,2.24,0,0,0,1.12.4l.42.46c.07.08-.7,1.16-.43,1.47A3.6,3.6,0,0,0,985,237c1.17,0,1.15-.46,2.6-.46,1.07,0,2.15.54,3.41.54a3.42,3.42,0,0,0,1.59-.38c1.2.77,2,.3,3,.3.15.47-.64.47.07,1.24.14.15.4,0,.59,0,1.17,0,1-1.16.88-2.1,1.36.63,2.15,2.1,2.93,2.1.29,0,.63.15.92.15a2.91,2.91,0,0,0,1.75.93c1,0,.69-.93-.18-1.85-.72-.77-1.33-.7-2.2-1.63-.3.3.14.46-.83.46-.51-.54-1.48-.85-1.84-1.23s.44-.47-.11-1.17c-.39,0-.81.08-.85.23-1.08-1.16-1.64-1.85-2.28-2.55a5.1,5.1,0,0,1-2.79,0l-.87.31-.35-.38h-1.73c-.26-.28-.39-.42-.64-.71l.13-.37a4.33,4.33,0,0,0-1.9-.4c-.66,0-.24.46-.87.62l-.63-.69c-.71-1.41.53-2.24-1-4a2.67,2.67,0,0,0-1.37-.77c-1.53,0-.87,1.33-.73,2.31"/><path class="cls-2" d="M909.11,221.33a8.8,8.8,0,0,0,3.31.78c.1,0,.53.07.47,0-.82-1.09-2.59-1.32-4.18-1.32a1,1,0,0,1,.4.54"/><path class="cls-2" d="M788.42,228.53h.39s1.06.23,1.57.31a.85.85,0,0,1-.63.69c.8.93,3.84,1.71,5.77,1.71-.18.24-.66.24-.61.78,1.91.77,6.27,2.86,8.5,2.86h.87l-.33-.7c-3.49-2-6.68-3.87-11.29-5-.74-.16-2-1.09-3.08-1.09a2.79,2.79,0,0,0-1.16.39"/><path class="cls-2" d="M771.61,219c.57.47,1.34,1.39,1.71,1.39.56,0,1.11.86,1.94,1,.06.15-.21.39,0,.85a2.63,2.63,0,0,0,1.94,1.47c.94,0-1.25-1.16-1.39-1.47s.27-.46.14-.77-.7-.55-.86-.93a6.71,6.71,0,0,0-.74-1.7c0,.38-.12,1-.78,1s.19-.84.16-.92c-.87-.07-1.54-.54-2.38-.54l.27.62"/><path class="cls-2" d="M715.43,206.7c-1.63,0-2.58.77-4,1.16.11.37.16.56.26.93.76.39,1.24.46,2.21,1a11.79,11.79,0,0,1,2.91-2.18l-.28-.92Z"/><path class="cls-2" d="M964.13,230.4c1.75.69,6,2.31,7.49,2.31.77,0,1-.07.94-.47-2.41-.78-5-2-7.27-2a4.91,4.91,0,0,0-1.16.12"/><path class="cls-2" d="M972.3,239.29c.46.54,5.38,2,6.07,2,.19,0,.83-.39.43-.85l-.42-.47h-2.94a7.2,7.2,0,0,1-3.22-1.24c-.13.08-.13.31.08.54"/><path class="cls-2" d="M982.14,241.47a3.35,3.35,0,0,0,2.33.85c1.08,0,1.75-.47,1.27-1l-.48-.54c-2.26,0-1.2-.47-1.82-1.17-.27-.31-.9-.46-1.37-.77-.68.23-.34,2.17.07,2.64"/><path class="cls-2" d="M678.53,199.11H677.2a4.81,4.81,0,0,0,1.22.77h3c-.36-.77-.55-1.31-1.62-1.31l-.55,0c-.34,0-.53.08-.67.56"/><text class="cls-3" transform="translate(140.58 188.85)">유럽</text><text class="cls-3" transform="translate(910.45 215.75)">북미</text><g class="cls-4"><rect class="cls-5" x="795.18" y="237.9" width="195.18" height="73.77"/><rect class="cls-5" x="795.18" y="237.9" width="195.18" height="73.77"/><path class="cls-6" d="M990.36,274.79c0,20.37-43.69,36.89-97.59,36.89s-97.59-16.52-97.59-36.89,43.69-36.89,97.59-36.89,97.59,16.52,97.59,36.89"/><rect class="cls-5" x="810.2" y="243.58" width="165.14" height="62.42"/><path class="cls-7" d="M975.34,274.79c0,17.24-37,31.21-82.57,31.21s-82.57-14-82.57-31.21,37-31.21,82.57-31.21,82.57,14,82.57,31.21"/><rect class="cls-5" x="825.22" y="249.26" width="135.11" height="51.07"/><path class="cls-8" d="M960.32,274.79c0,14.1-30.24,25.54-67.55,25.54s-67.55-11.44-67.55-25.54,30.24-25.53,67.55-25.53,67.55,11.43,67.55,25.53"/><rect class="cls-5" x="840.23" y="254.93" width="105.08" height="39.72"/><path class="cls-9" d="M945.31,274.79c0,11-23.52,19.86-52.54,19.86s-52.54-8.89-52.54-19.86,23.52-19.86,52.54-19.86,52.54,8.89,52.54,19.86"/><rect class="cls-5" x="855.25" y="260.61" width="75.04" height="28.37"/><path class="cls-10" d="M930.29,274.79c0,7.83-16.8,14.18-37.52,14.18s-37.52-6.34-37.52-14.18,16.8-14.18,37.52-14.18,37.52,6.35,37.52,14.18"/><rect class="cls-5" x="870.27" y="266.28" width="45" height="17.01"/><path class="cls-11" d="M915.27,274.79c0,4.7-10.07,8.51-22.5,8.51s-22.5-3.81-22.5-8.51,10.07-8.5,22.5-8.5,22.5,3.8,22.5,8.5"/><rect class="cls-5" x="885.28" y="271.96" width="14.97" height="5.66"/><path class="cls-12" d="M900.26,274.79c0,1.56-3.36,2.83-7.49,2.83s-7.49-1.27-7.49-2.83,3.36-2.83,7.49-2.83,7.49,1.27,7.49,2.83"/><line class="cls-13" x1="892.88" y1="274.49" x2="892.88" y2="180.53"/><polygon class="cls-14" points="895.7 200.04 892.77 203.95 892.77 180.53 895.7 180.53 895.7 200.04"/><path class="cls-14" d="M885.28,274.79c0,1.52,3.36,2.75,7.49,2.75s7.49-1.23,7.49-2.75-3.36-2.74-7.49-2.74-7.49,1.23-7.49,2.74"/></g><g class="cls-4"><rect class="cls-5" x="340.95" y="327.04" width="149.98" height="56.69"/><rect class="cls-5" x="340.95" y="327.04" width="149.98" height="56.69"/><path class="cls-6" d="M490.93,355.38c0,15.66-33.58,28.35-75,28.35S341,371,341,355.38s33.57-28.34,75-28.34,75,12.69,75,28.34"/><rect class="cls-5" x="352.49" y="331.4" width="126.9" height="47.97"/><path class="cls-7" d="M479.39,355.38c0,13.25-28.41,24-63.45,24s-63.45-10.74-63.45-24,28.41-24,63.45-24,63.45,10.74,63.45,24"/><rect class="cls-5" x="364.03" y="335.76" width="103.82" height="39.24"/><path class="cls-8" d="M467.85,355.38c0,10.84-23.24,19.63-51.91,19.63S364,366.22,364,355.38s23.24-19.62,51.91-19.62,51.91,8.79,51.91,19.62"/><rect class="cls-5" x="375.57" y="340.12" width="80.74" height="30.52"/><path class="cls-9" d="M456.31,355.38c0,8.43-18.08,15.26-40.37,15.26s-40.37-6.83-40.37-15.26,18.07-15.25,40.37-15.25,40.37,6.83,40.37,15.25"/><rect class="cls-5" x="387.11" y="344.49" width="57.66" height="21.8"/><path class="cls-10" d="M444.77,355.38c0,6-12.91,10.9-28.83,10.9s-28.83-4.88-28.83-10.9,12.9-10.89,28.83-10.89,28.83,4.88,28.83,10.89"/><rect class="cls-5" x="398.65" y="348.85" width="34.58" height="13.07"/><path class="cls-11" d="M433.23,355.38c0,3.61-7.74,6.54-17.29,6.54s-17.29-2.93-17.29-6.54,7.74-6.53,17.29-6.53,17.29,2.92,17.29,6.53"/><rect class="cls-5" x="410.18" y="353.21" width="11.51" height="4.35"/><path class="cls-12" d="M421.69,355.38c0,1.21-2.58,2.18-5.75,2.18s-5.75-1-5.75-2.18,2.57-2.17,5.75-2.17,5.75,1,5.75,2.17"/><line class="cls-13" x1="416.02" y1="355.15" x2="416.02" y2="282.95"/><polygon class="cls-14" points="418.19 297.94 415.94 300.95 415.94 282.95 418.19 282.95 418.19 297.94"/><path class="cls-14" d="M410.19,355.38c0,1.17,2.57,2.11,5.75,2.11s5.75-.94,5.75-2.11-2.58-2.11-5.75-2.11-5.75,1-5.75,2.11"/></g><g class="cls-4"><rect class="cls-5" x="37.55" y="225.93" width="171.2" height="64.71"/><rect class="cls-5" x="37.55" y="225.93" width="171.2" height="64.71"/><path class="cls-6" d="M208.74,258.29c0,17.87-38.32,32.36-85.6,32.36s-85.59-14.49-85.59-32.36,38.32-32.35,85.59-32.35,85.6,14.48,85.6,32.35"/><rect class="cls-5" x="51.18" y="231.09" width="143.93" height="54.41"/><path class="cls-7" d="M195.11,258.29c0,15-32.22,27.2-72,27.2s-72-12.17-72-27.2,32.22-27.2,72-27.2,72,12.18,72,27.2"/><rect class="cls-5" x="64.81" y="236.25" width="116.67" height="44.09"/><path class="cls-8" d="M181.48,258.29c0,12.18-26.12,22-58.34,22s-58.33-9.87-58.33-22,26.12-22.05,58.33-22.05,58.34,9.88,58.34,22.05"/><rect class="cls-5" x="78.44" y="241.4" width="89.4" height="33.8"/><path class="cls-9" d="M167.85,258.29c0,9.33-20,16.9-44.71,16.9s-44.7-7.57-44.7-16.9,20-16.89,44.7-16.89,44.71,7.56,44.71,16.89"/><rect class="cls-5" x="92.08" y="246.55" width="62.14" height="23.48"/><path class="cls-10" d="M154.21,258.29c0,6.49-13.91,11.75-31.07,11.75s-31.06-5.26-31.06-11.75,13.91-11.74,31.06-11.74,31.07,5.26,31.07,11.74"/><rect class="cls-5" x="105.71" y="251.7" width="34.87" height="13.18"/><path class="cls-11" d="M140.58,258.29c0,3.64-7.81,6.59-17.44,6.59s-17.43-2.95-17.43-6.59,7.8-6.59,17.43-6.59,17.44,3,17.44,6.59"/><rect class="cls-5" x="119.34" y="256.86" width="7.61" height="2.87"/><path class="cls-12" d="M127,258.29c0,.8-1.71,1.44-3.81,1.44s-3.8-.64-3.8-1.44,1.7-1.43,3.8-1.43,3.81.64,3.81,1.43"/><path class="cls-14" d="M127,258.29c0,.8-1.71,1.44-3.81,1.44s-3.8-.64-3.8-1.44,1.7-1.43,3.8-1.43,3.81.64,3.81,1.43"/><line class="cls-13" x1="123.14" y1="258.29" x2="123.14" y2="155.74"/><polygon class="cls-14" points="126.26 177.31 123.03 181.62 123.03 155.74 126.26 155.74 126.26 177.31"/></g><g class="cls-4"><rect class="cls-5" x="251.09" y="227.7" width="275.7" height="83.6"/><rect class="cls-5" x="251.09" y="227.7" width="275.7" height="83.6"/><path class="cls-6" d="M526.79,269.5c0,23.09-61.71,41.8-137.85,41.8s-137.85-18.71-137.85-41.8,61.72-41.8,137.85-41.8,137.85,18.72,137.85,41.8"/><rect class="cls-5" x="272.3" y="234" width="233.29" height="71.01"/><path class="cls-7" d="M505.59,269.5c0,19.61-52.23,35.5-116.65,35.5S272.3,289.11,272.3,269.5,324.52,234,388.94,234s116.65,15.89,116.65,35.5"/><rect class="cls-5" x="293.51" y="240.3" width="190.87" height="58.4"/><path class="cls-8" d="M484.38,269.5c0,16.13-42.73,29.2-95.43,29.2s-95.44-13.07-95.44-29.2,42.73-29.2,95.44-29.2,95.43,13.07,95.43,29.2"/><rect class="cls-5" x="314.72" y="246.6" width="148.46" height="45.81"/><path class="cls-9" d="M463.17,269.5c0,12.65-33.23,22.91-74.23,22.91s-74.22-10.26-74.22-22.91,33.23-22.9,74.22-22.9,74.23,10.25,74.23,22.9"/><rect class="cls-5" x="335.92" y="252.89" width="106.04" height="33.22"/><path class="cls-10" d="M442,269.5c0,9.17-23.73,16.61-53,16.61s-53-7.44-53-16.61,23.74-16.6,53-16.6,53,7.43,53,16.6"/><rect class="cls-5" x="357.13" y="259.2" width="63.62" height="20.61"/><path class="cls-11" d="M420.76,269.5c0,5.69-14.25,10.31-31.82,10.31s-31.81-4.62-31.81-10.31,14.24-10.31,31.81-10.31,31.82,4.62,31.82,10.31"/><rect class="cls-5" x="378.34" y="265.49" width="21.21" height="8.02"/><path class="cls-12" d="M399.55,269.5c0,2.21-4.75,4-10.61,4s-10.6-1.8-10.6-4,4.75-4,10.6-4,10.61,1.8,10.61,4"/><line class="cls-13" x1="388.89" y1="269.75" x2="388.89" y2="87.98"/><polygon class="cls-14" points="392.43 112.47 388.75 117.37 388.75 87.98 392.43 87.98 392.43 112.47"/><path class="cls-14" d="M396,269.75c0,1.47-3.16,2.67-7.06,2.67s-7.07-1.2-7.07-2.67,3.16-2.68,7.07-2.68,7.06,1.2,7.06,2.68"/><rect class="cls-5" x="269.22" y="292" width="98.67" height="37.29"/><rect class="cls-5" x="269.22" y="292" width="98.67" height="37.29"/><path class="cls-6" d="M367.89,310.64c0,10.3-22.09,18.65-49.34,18.65s-49.33-8.35-49.33-18.65S291.31,292,318.55,292s49.34,8.35,49.34,18.64"/><rect class="cls-5" x="276.66" y="294.8" width="83.8" height="31.67"/><path class="cls-7" d="M360.45,310.64c0,8.75-18.76,15.84-41.9,15.84s-41.9-7.09-41.9-15.84,18.76-15.83,41.9-15.83,41.9,7.09,41.9,15.83"/><rect class="cls-5" x="284.09" y="297.61" width="68.93" height="26.06"/><path class="cls-8" d="M353,310.64c0,7.2-15.43,13-34.47,13s-34.46-5.83-34.46-13,15.43-13,34.46-13,34.47,5.83,34.47,13"/><rect class="cls-5" x="291.52" y="300.43" width="54.06" height="20.44"/><path class="cls-9" d="M345.59,310.64c0,5.65-12.11,10.22-27,10.22s-27-4.57-27-10.22,12.1-10.21,27-10.21,27,4.57,27,10.21"/><rect class="cls-5" x="298.96" y="303.24" width="39.2" height="14.82"/><path class="cls-10" d="M338.15,310.64c0,4.1-8.77,7.41-19.6,7.41S299,314.74,299,310.64s8.77-7.4,19.59-7.4,19.6,3.31,19.6,7.4"/><rect class="cls-5" x="306.39" y="306.05" width="24.33" height="9.19"/><path class="cls-11" d="M330.72,310.64c0,2.54-5.45,4.6-12.17,4.6s-12.16-2.06-12.16-4.6,5.45-4.59,12.16-4.59,12.17,2.05,12.17,4.59"/><rect class="cls-5" x="313.82" y="308.86" width="9.46" height="3.57"/><path class="cls-12" d="M323.28,310.64c0,1-2.11,1.79-4.73,1.79s-4.73-.8-4.73-1.79,2.12-1.79,4.73-1.79,4.73.81,4.73,1.79"/></g><text class="cls-15" transform="translate(413.01 121.45)">동아시아</text><text class="cls-15" transform="translate(140.58 188.85)">유럽</text><text class="cls-15" transform="translate(910.45 215.75)">북미</text><text class="cls-3" transform="translate(433.53 323.85)">동남아시아 · 인도</text><text class="cls-15" transform="translate(433.53 323.85)">동남아시아 · 인도</text></g></g></svg>