<?xml version="1.0" encoding="utf-8"?>
<!-- Generator: Adobe Illustrator 14.0.0, SVG Export Plug-In . SVG Version: 6.00 Build 43363)  -->
<!DOCTYPE svg PUBLIC "-//W3C//DTD SVG 1.1//EN" "http://www.w3.org/Graphics/SVG/1.1/DTD/svg11.dtd">
<svg version="1.1" id="レイヤー_1" xmlns="http://www.w3.org/2000/svg" xmlns:xlink="http://www.w3.org/1999/xlink" x="0px"
	 y="0px" width="284.029px" height="190.858px" viewBox="0 0 284.029 190.858" enable-background="new 0 0 284.029 190.858"
	 xml:space="preserve">
<rect y="83.498" fill="none" width="284.029" height="107.359"/>
<g>
	<g>
		<rect y="83.498" fill="none" width="284.029" height="107.359"/>
		<path fill="#FFFFFF" d="M284.028,137.178c0,29.646-63.582,53.681-142.013,53.681c-78.432,0-142.013-24.034-142.013-53.681
			c0-29.646,63.581-53.679,142.013-53.679C220.446,83.499,284.028,107.532,284.028,137.178"/>
	</g>
</g>
<g>
	<g>
		<rect x="21.859" y="91.758" fill="none" width="240.32" height="90.84"/>
		<path fill="#ECDFF3" d="M262.176,137.178c0,25.084-53.798,45.42-120.16,45.42s-120.16-20.336-120.16-45.42
			s53.798-45.419,120.16-45.419S262.176,112.094,262.176,137.178"/>
	</g>
</g>
<g>
	<g>
		<rect x="43.71" y="100.018" fill="none" width="196.609" height="74.32"/>
		<path fill="#D8BEE6" d="M240.322,137.178c0,20.522-44.013,37.159-98.307,37.159S43.709,157.7,43.709,137.178
			c0-20.521,44.013-37.158,98.307-37.158S240.322,116.656,240.322,137.178"/>
	</g>
</g>
<g>
	<g>
		<rect x="65.56" y="108.277" fill="none" width="152.91" height="57.801"/>
		<path fill="#C59EDA" d="M218.469,137.178c0,15.961-34.229,28.898-76.453,28.898s-76.453-12.938-76.453-28.898
			c0-15.96,34.229-28.897,76.453-28.897S218.469,121.218,218.469,137.178"/>
	</g>
</g>
<g>
	<g>
		<rect x="87.42" y="116.538" fill="none" width="109.2" height="41.28"/>
		<path fill="#B17ECD" d="M196.615,137.178c0,11.398-24.445,20.639-54.601,20.639c-30.153,0-54.599-9.24-54.599-20.639
			c0-11.397,24.445-20.638,54.599-20.638C172.17,116.54,196.615,125.78,196.615,137.178"/>
	</g>
</g>
<g>
	<g>
		<rect x="109.27" y="124.798" fill="none" width="65.49" height="24.76"/>
		<path fill="#9E5DC1" d="M174.763,137.178c0,6.836-14.661,12.379-32.748,12.379c-18.084,0-32.745-5.543-32.745-12.379
			s14.661-12.378,32.745-12.378C160.102,124.8,174.763,130.342,174.763,137.178"/>
	</g>
</g>
<g>
	<g>
		<rect x="131.12" y="133.058" fill="none" width="21.789" height="8.24"/>
		<path fill="#8A3DB4" d="M152.909,137.178c0,2.274-4.878,4.118-10.894,4.118s-10.893-1.844-10.893-4.118
			c0-2.273,4.877-4.117,10.893-4.117S152.909,134.904,152.909,137.178"/>
	</g>
</g>
<line fill="none" stroke="#192B64" stroke-width="0.819" stroke-miterlimit="10" x1="142.171" y1="136.74" x2="142.171" y2="0"/>
<polygon fill="#192B64" points="146.276,28.402 142.016,34.084 142.016,0.001 146.276,0.001 "/>
<path fill="#192B64" d="M131.122,137.178c0,2.207,4.877,3.997,10.894,3.997c6.016,0,10.893-1.79,10.893-3.997
	s-4.877-3.996-10.893-3.996C135.999,133.182,131.122,134.971,131.122,137.178"/>
</svg>
