<?xml version="1.0" encoding="utf-8"?>
<!-- Generator: Adobe Illustrator 14.0.0, SVG Export Plug-In . SVG Version: 6.00 Build 43363)  -->
<!DOCTYPE svg PUBLIC "-//W3C//DTD SVG 1.1//EN" "http://www.w3.org/Graphics/SVG/1.1/DTD/svg11.dtd">
<svg version="1.1" id="レイヤー_1" xmlns="http://www.w3.org/2000/svg" xmlns:xlink="http://www.w3.org/1999/xlink" x="0px"
	 y="0px" width="196.269px" height="91.854px" viewBox="0 0 196.269 91.854" enable-background="new 0 0 196.269 91.854"
	 xml:space="preserve">
<rect y="17.665" fill="none" width="196.268" height="74.189"/>
<g>
	<g>
		<rect y="17.665" fill="none" width="196.268" height="74.189"/>
		<path fill="#FFFFFF" d="M196.269,54.761c0,20.486-43.937,37.094-98.135,37.094C43.937,91.854,0,75.247,0,54.761
			s43.936-37.094,98.134-37.094C152.333,17.667,196.269,34.274,196.269,54.761"/>
	</g>
</g>
<g>
	<g>
		<rect x="15.202" y="23.415" fill="none" width="165.864" height="62.689"/>
		<path fill="#ECDFF3" d="M181.066,54.761c0,17.312-37.129,31.347-82.932,31.347c-45.802,0-82.932-14.035-82.932-31.347
			c0-17.312,37.13-31.348,82.932-31.348C143.937,23.413,181.066,37.448,181.066,54.761"/>
	</g>
</g>
<g>
	<g>
		<rect x="30.404" y="29.154" fill="none" width="135.46" height="51.21"/>
		<path fill="#D8BEE6" d="M165.865,54.761c0,14.139-30.324,25.601-67.73,25.601S30.405,68.899,30.405,54.761
			s30.323-25.602,67.729-25.602S165.865,40.622,165.865,54.761"/>
	</g>
</g>
<g>
	<g>
		<rect x="45.607" y="34.904" fill="none" width="105.055" height="39.71"/>
		<path fill="#C59EDA" d="M150.662,54.761c0,10.965-23.518,19.855-52.527,19.855c-29.01,0-52.527-8.891-52.527-19.855
			c0-10.966,23.517-19.855,52.527-19.855C127.144,34.905,150.662,43.795,150.662,54.761"/>
	</g>
</g>
<g>
	<g>
		<rect x="60.809" y="40.654" fill="none" width="74.651" height="28.21"/>
		<path fill="#B17ECD" d="M135.46,54.761c0,7.792-16.711,14.107-37.326,14.107c-20.614,0-37.325-6.315-37.325-14.107
			S77.52,40.651,98.134,40.651C118.75,40.651,135.46,46.969,135.46,54.761"/>
	</g>
</g>
<g>
	<g>
		<rect x="76.011" y="46.395" fill="none" width="44.247" height="16.729"/>
		<path fill="#9E5DC1" d="M120.257,54.761c0,4.618-9.904,8.361-22.123,8.361s-22.123-3.743-22.123-8.361
			c0-4.619,9.904-8.362,22.123-8.362S120.257,50.142,120.257,54.761"/>
	</g>
</g>
<g>
	<g>
		<rect x="91.213" y="52.145" fill="none" width="13.842" height="5.229"/>
		<path fill="#8A3DB4" d="M105.056,54.761c0,1.445-3.1,2.616-6.922,2.616s-6.921-1.171-6.921-2.616s3.099-2.616,6.921-2.616
			S105.056,53.315,105.056,54.761"/>
	</g>
</g>
<line fill="none" stroke="#192B64" stroke-width="0.819" stroke-miterlimit="10" x1="98.072" y1="54.213" x2="98.072" y2="0"/>
<polygon fill="#192B64" points="102.177,28.402 97.916,34.084 97.916,0 102.177,0 "/>
<path fill="#192B64" d="M105.056,54.848c0,1.396-3.1,2.529-6.922,2.529s-6.921-1.133-6.921-2.529c0-1.396,3.099-2.527,6.921-2.527
	S105.056,53.452,105.056,54.848"/>
</svg>
