<?xml version="1.0" encoding="utf-8"?>
<!-- Generator: Adobe Illustrator 14.0.0, SVG Export Plug-In . SVG Version: 6.00 Build 43363)  -->
<!DOCTYPE svg PUBLIC "-//W3C//DTD SVG 1.1//EN" "http://www.w3.org/Graphics/SVG/1.1/DTD/svg11.dtd">
<svg version="1.1" id="レイヤー_1" xmlns="http://www.w3.org/2000/svg" xmlns:xlink="http://www.w3.org/1999/xlink" x="0px"
	 y="0px" width="225.424px" height="177.645px" viewBox="0 0 225.424 177.645" enable-background="new 0 0 225.424 177.645"
	 xml:space="preserve">
<rect y="92.432" fill="none" width="225.424" height="85.21"/>
<g>
	<g>
		<rect y="92.432" fill="none" width="225.424" height="85.21"/>
		<path fill="#FFFFFF" d="M225.424,135.04c0,23.529-50.463,42.604-112.711,42.604C50.463,177.645,0,158.569,0,135.04
			s50.463-42.604,112.713-42.604C174.961,92.437,225.424,111.511,225.424,135.04"/>
	</g>
</g>
<g>
	<g>
		<rect x="17.951" y="99.222" fill="none" width="189.523" height="71.64"/>
		<path fill="#ECDFF3" d="M207.474,135.04c0,19.782-42.426,35.818-94.762,35.818c-52.335,0-94.761-16.036-94.761-35.818
			s42.426-35.818,94.761-35.818C165.048,99.222,207.474,115.258,207.474,135.04"/>
	</g>
</g>
<g>
	<g>
		<rect x="35.901" y="106.012" fill="none" width="153.622" height="58.06"/>
		<path fill="#D8BEE6" d="M189.524,135.04c0,16.035-34.391,29.033-76.812,29.033s-76.811-12.998-76.811-29.033
			c0-16.034,34.39-29.034,76.811-29.034S189.524,119.006,189.524,135.04"/>
	</g>
</g>
<g>
	<g>
		<rect x="53.852" y="112.791" fill="none" width="117.721" height="44.5"/>
		<path fill="#C59EDA" d="M171.573,135.04c0,12.287-26.354,22.248-58.86,22.248s-58.86-9.961-58.86-22.248
			c0-12.288,26.353-22.249,58.86-22.249S171.573,122.752,171.573,135.04"/>
	</g>
</g>
<g>
	<g>
		<rect x="71.803" y="119.581" fill="none" width="81.818" height="30.921"/>
		<path fill="#B17ECD" d="M153.622,135.04c0,8.54-18.314,15.464-40.909,15.464c-22.594,0-40.909-6.924-40.909-15.464
			s18.315-15.463,40.909-15.463C135.307,119.577,153.622,126.5,153.622,135.04"/>
	</g>
</g>
<g>
	<g>
		<rect x="89.754" y="126.361" fill="none" width="45.917" height="17.36"/>
		<path fill="#9E5DC1" d="M135.67,135.04c0,4.792-10.278,8.679-22.958,8.679c-12.68,0-22.959-3.887-22.959-8.679
			c0-4.793,10.279-8.678,22.959-8.678C125.392,126.362,135.67,130.247,135.67,135.04"/>
	</g>
</g>
<g>
	<g>
		<rect x="107.704" y="133.151" fill="none" width="10.016" height="3.78"/>
		<path fill="#8A3DB4" d="M117.72,135.04c0,1.046-2.242,1.894-5.008,1.894c-2.765,0-5.008-0.848-5.008-1.894
			c0-1.045,2.243-1.893,5.008-1.893C115.478,133.147,117.72,133.995,117.72,135.04"/>
	</g>
</g>
<path fill="#192B64" d="M117.72,135.04c0,1.046-2.242,1.894-5.008,1.894c-2.765,0-5.008-0.848-5.008-1.894
	c0-1.045,2.243-1.893,5.008-1.893C115.478,133.147,117.72,133.995,117.72,135.04"/>
<line fill="none" stroke="#192B64" stroke-width="0.819" stroke-miterlimit="10" x1="112.712" y1="135.04" x2="112.712" y2="0"/>
<polygon fill="#192B64" points="116.818,28.403 112.558,34.083 112.558,0 116.818,0 "/>
</svg>
