<?xml version="1.0" encoding="utf-8"?>
<!-- Generator: Adobe Illustrator 14.0.0, SVG Export Plug-In . SVG Version: 6.00 Build 43363)  -->
<!DOCTYPE svg PUBLIC "-//W3C//DTD SVG 1.1//EN" "http://www.w3.org/Graphics/SVG/1.1/DTD/svg11.dtd">
<svg version="1.1" id="レイヤー_1" xmlns="http://www.w3.org/2000/svg" xmlns:xlink="http://www.w3.org/1999/xlink" x="0px"
	 y="0px" width="319.705px" height="279.825px" viewBox="0 0 319.705 279.825" enable-background="new 0 0 319.705 279.825"
	 xml:space="preserve">
<rect x="0" y="162.023" fill="none" width="319.705" height="96.939"/>
<g>
	<g>
		<rect x="0" y="162.023" fill="none" width="319.705" height="96.939"/>
		<path fill="#FFFFFF" d="M319.704,210.492c0,26.77-71.567,48.471-159.852,48.471C71.569,258.963,0,237.262,0,210.492
			s71.569-48.471,159.852-48.471C248.137,162.021,319.704,183.723,319.704,210.492"/>
	</g>
</g>
<g>
	<g>
		<rect x="24.592" y="169.323" fill="none" width="270.519" height="82.34"/>
		<path fill="#ECDFF3" d="M295.111,210.492c0,22.736-60.558,41.167-135.259,41.167c-74.702,0-135.26-18.431-135.26-41.167
			s60.558-41.167,135.26-41.167C234.554,169.325,295.111,187.756,295.111,210.492"/>
	</g>
</g>
<g>
	<g>
		<rect x="49.186" y="176.633" fill="none" width="221.334" height="67.72"/>
		<path fill="#D8BEE6" d="M270.52,210.492c0,18.703-49.547,33.863-110.667,33.863s-110.667-15.16-110.667-33.863
			c0-18.702,49.547-33.864,110.667-33.864S270.52,191.79,270.52,210.492"/>
	</g>
</g>
<g>
	<g>
		<rect x="73.777" y="183.933" fill="none" width="172.15" height="53.12"/>
		<path fill="#C59EDA" d="M245.928,210.492c0,14.668-38.537,26.56-86.076,26.56c-47.538,0-86.075-11.892-86.075-26.56
			s38.537-26.561,86.075-26.561C207.391,183.932,245.928,195.824,245.928,210.492"/>
	</g>
</g>
<g>
	<g>
		<rect x="98.369" y="191.232" fill="none" width="122.965" height="38.521"/>
		<path fill="#B17ECD" d="M221.335,210.492c0,10.635-27.526,19.256-61.482,19.256c-33.956,0-61.483-8.621-61.483-19.256
			s27.527-19.256,61.483-19.256C193.809,191.236,221.335,199.857,221.335,210.492"/>
	</g>
</g>
<g>
	<g>
		<rect x="122.962" y="198.543" fill="none" width="73.78" height="23.9"/>
		<path fill="#9E5DC1" d="M196.742,210.492c0,6.601-16.517,11.952-36.89,11.952c-20.374,0-36.89-5.352-36.89-11.952
			c0-6.602,16.516-11.952,36.89-11.952C180.226,198.54,196.742,203.891,196.742,210.492"/>
	</g>
</g>
<g>
	<g>
		<rect x="147.554" y="205.843" fill="none" width="24.596" height="9.3"/>
		<path fill="#8A3DB4" d="M172.15,210.492c0,2.566-5.506,4.648-12.298,4.648s-12.298-2.082-12.298-4.648
			c0-2.567,5.506-4.648,12.298-4.648S172.15,207.925,172.15,210.492"/>
	</g>
</g>
<line fill="none" stroke="#192B64" stroke-width="0.819" stroke-miterlimit="10" x1="159.786" y1="210.775" x2="159.786" y2="0.001"/>
<polygon fill="#192B64" points="163.893,28.403 159.631,34.083 159.631,0 163.893,0 "/>
<path fill="#192B64" d="M167.98,210.775c0,1.711-3.669,3.098-8.194,3.098c-4.526,0-8.195-1.387-8.195-3.098
	c0-1.71,3.669-3.097,8.195-3.097C164.312,207.679,167.98,209.065,167.98,210.775"/>
<rect x="21.021" y="236.583" fill="none" width="114.413" height="43.24"/>
<g>
	<g>
		<rect x="21.021" y="236.583" fill="none" width="114.413" height="43.24"/>
		<path fill="#FFFFFF" d="M135.434,258.201c0,11.942-25.612,21.624-57.207,21.624c-31.594,0-57.207-9.682-57.207-21.624
			c0-11.941,25.613-21.623,57.207-21.623C109.822,236.578,135.434,246.26,135.434,258.201"/>
	</g>
</g>
<g>
	<g>
		<rect x="29.641" y="239.833" fill="none" width="97.173" height="36.729"/>
		<path fill="#ECDFF3" d="M126.813,258.201c0,10.144-21.753,18.365-48.587,18.365c-26.833,0-48.586-8.222-48.586-18.365
			c0-10.143,21.753-18.365,48.586-18.365C105.061,239.836,126.813,248.059,126.813,258.201"/>
	</g>
</g>
<g>
	<g>
		<rect x="38.26" y="243.093" fill="none" width="79.933" height="30.22"/>
		<path fill="#D8BEE6" d="M118.193,258.201c0,8.344-17.894,15.107-39.967,15.107c-22.073,0-39.966-6.764-39.966-15.107
			c0-8.343,17.893-15.106,39.966-15.106C100.299,243.095,118.193,249.858,118.193,258.201"/>
	</g>
</g>
<g>
	<g>
		<rect x="46.88" y="246.353" fill="none" width="62.693" height="23.7"/>
		<path fill="#C59EDA" d="M109.573,258.201c0,6.545-14.034,11.85-31.347,11.85c-17.312,0-31.346-5.305-31.346-11.85
			c0-6.543,14.034-11.849,31.346-11.849C95.539,246.353,109.573,251.658,109.573,258.201"/>
	</g>
</g>
<g>
	<g>
		<rect x="55.5" y="249.613" fill="none" width="45.453" height="17.18"/>
		<path fill="#B17ECD" d="M100.953,258.201c0,4.745-10.175,8.59-22.727,8.59c-12.551,0-22.726-3.845-22.726-8.59
			c0-4.744,10.175-8.59,22.726-8.59C90.778,249.611,100.953,253.457,100.953,258.201"/>
	</g>
</g>
<g>
	<g>
		<rect x="64.121" y="252.873" fill="none" width="28.213" height="10.66"/>
		<path fill="#9E5DC1" d="M92.333,258.201c0,2.945-6.315,5.332-14.106,5.332s-14.106-2.387-14.106-5.332
			c0-2.944,6.315-5.332,14.106-5.332S92.333,255.257,92.333,258.201"/>
	</g>
</g>
<g>
	<g>
		<rect x="72.74" y="256.133" fill="none" width="10.973" height="4.141"/>
		<path fill="#8A3DB4" d="M83.713,258.201c0,1.146-2.456,2.074-5.486,2.074c-3.03,0-5.486-0.928-5.486-2.074
			c0-1.145,2.456-2.074,5.486-2.074C81.257,256.127,83.713,257.057,83.713,258.201"/>
	</g>
</g>
</svg>
